  0
SECTION
  2
HEADER
  9
$ACADVER
  1
AC1014
  9
$HANDSEED
  5
FFFF
  9
$MEASUREMENT
 70
     1
  0
ENDSEC
  0
SECTION
  2
TABLES
  0
TABLE
  2
VPORT
  5
8
330
0
100
AcDbSymbolTable
 70
     4
  0
VPORT
  5
2E
330
8
100
AcDbSymbolTableRecord
100
AcDbViewportTableRecord
  2
*ACTIVE
 70
     0
 10
0.0
 20
0.0
 11
1.0
 21
1.0
 12
210.0
 22
148.5
 13
0.0
 23
0.0
 14
10.0
 24
10.0
 15
10.0
 25
10.0
 16
0.0
 26
0.0
 36
1.0
 17
0.0
 27
0.0
 37
0.0
 40
341.0
 41
1.24
 42
50.0
 43
0.0
 44
0.0
 50
0.0
 51
0.0
 71
     0
 72
   100
 73
     1
 74
     3
 75
     0
 76
     0
 77
     0
 78
     0
  0
ENDTAB
  0
TABLE
  2
LTYPE
  5
5
330
0
100
AcDbSymbolTable
 70
     1
  0
LTYPE
  5
14
330
5
100
AcDbSymbolTableRecord
100
AcDbLinetypeTableRecord
  2
BYBLOCK
 70
     0
  3

 72
    65
 73
     0
 40
0.0
  0
LTYPE
  5
15
330
5
100
AcDbSymbolTableRecord
100
AcDbLinetypeTableRecord
  2
BYLAYER
 70
     0
  3

 72
    65
 73
     0
 40
0.0
  0
LTYPE
  5
16
330
5
100
AcDbSymbolTableRecord
100
AcDbLinetypeTableRecord
  2
CONTINUOUS
 70
     0
  3
Solid line
 72
    65
 73
     0
 40
0.0
  0
ENDTAB
  0
TABLE
  2
LAYER
  5
2
100
AcDbSymbolTable
 70
2
  0
LAYER
  5
50
100
AcDbSymbolTableRecord
100
AcDbLayerTableRecord
  2
0
 70
0
  6
CONTINUOUS
  0
LAYER
  5
51
100
AcDbSymbolTableRecord
100
AcDbLayerTableRecord
  2
Layer_1
 70
0
  6
CONTINUOUS
  0
ENDTAB
  0
TABLE
  2
STYLE
  5
3
330
0
100
AcDbSymbolTable
 70
     1
  0
STYLE
  5
11
330
3
100
AcDbSymbolTableRecord
100
AcDbTextStyleTableRecord
  2
STANDARD
 70
     0
 40
0.0
 41
1.0
 50
0.0
 71
     0
 42
2.5
  3
txt
  4

  0
ENDTAB
  0
TABLE
  2
VIEW
  5
6
330
0
100
AcDbSymbolTable
 70
     0
  0
ENDTAB
  0
TABLE
  2
UCS
  5
7
330
0
100
AcDbSymbolTable
 70
     0
  0
ENDTAB
  0
TABLE
  2
APPID
  5
9
330
0
100
AcDbSymbolTable
 70
     2
  0
APPID
  5
12
330
9
100
AcDbSymbolTableRecord
100
AcDbRegAppTableRecord
  2
ACAD
 70
     0
  0
ENDTAB
  0
TABLE
  2
DIMSTYLE
  5
A
330
0
100
AcDbSymbolTable
 70
     1
  0
DIMSTYLE
105
27
330
A
100
AcDbSymbolTableRecord
100
AcDbDimStyleTableRecord
  2
ISO-25
 70
     0
  3

  4

  5

  6

  7

 40
1.0
 41
2.5
 42
0.625
 43
3.75
 44
1.25
 45
0.0
 46
0.0
 47
0.0
 48
0.0
140
2.5
141
2.5
142
0.0
143
0.03937007874016
144
1.0
145
0.0
146
1.0
147
0.625
 71
     0
 72
     0
 73
     0
 74
     0
 75
     0
 76
     0
 77
     1
 78
     8
170
     0
171
     3
172
     1
173
     0
174
     0
175
     0
176
     0
177
     0
178
     0
270
     2
271
     2
272
     2
273
     2
274
     3
340
11
275
     0
280
     0
281
     0
282
     0
283
     0
284
     8
285
     0
286
     0
287
     3
288
     0
  0
ENDTAB
  0
TABLE
  2
BLOCK_RECORD
  5
1
330
0
100
AcDbSymbolTable
 70
     1
  0
BLOCK_RECORD
  5
1F
330
1
100
AcDbSymbolTableRecord
100
AcDbBlockTableRecord
  2
*MODEL_SPACE
  0
BLOCK_RECORD
  5
1B
330
1
100
AcDbSymbolTableRecord
100
AcDbBlockTableRecord
  2
*PAPER_SPACE
  0
ENDTAB
  0
ENDSEC
  0
SECTION
  2
BLOCKS
  0
BLOCK
  5
20
330
1F
100
AcDbEntity
  8
0
100
AcDbBlockBegin
  2
*MODEL_SPACE
 70
     0
 10
0.0
 20
0.0
 30
0.0
  3
*MODEL_SPACE
  1

  0
ENDBLK
  5
21
330
1F
100
AcDbEntity
  8
0
100
AcDbBlockEnd
  0
BLOCK
  5
1C
330
1B
100
AcDbEntity
 67
     1
  8
0
100
AcDbBlockBegin
  2
*PAPER_SPACE
  1

  0
ENDBLK
  5
1D
330
1B
100
AcDbEntity
 67
     1
  8
0
100
AcDbBlockEnd
  0
ENDSEC
  0
SECTION
  2
ENTITIES
  0
LINE
  5
100
100
AcDbEntity
  8
Layer_1
 62
7
100
AcDbLine
 10
69.472240
 20
5.725098
 30
0.0
 11
89.227282
 21
5.725098
 31
0.0
  0
SPLINE
  5
101
100
AcDbEntity
  8
Layer_1
 62
7
100
AcDbSpline
 70
0
 71
3
 72
10
 73
6
 74
4
 40
0.000000
 40
0.000000
 40
0.000000
 40
0.000000
 40
1.475809
 40
2.907847
 40
4.383656
 40
4.383656
 40
4.383656
 40
4.383656
 10
69.475226
 20
33.950851
 30
0.0
 10
68.980638
 20
33.873216
 30
0.0
 10
68.006131
 20
33.720248
 30
0.0
 10
66.883254
 20
32.597371
 30
0.0
 10
66.730286
 20
31.622864
 30
0.0
 10
66.652651
 20
31.128276
 30
0.0
 11
69.475226
 21
33.950851
 31
0.0
 11
68.050618
 21
33.565487
 31
0.0
 11
67.038015
 21
32.552884
 31
0.0
 11
66.652651
 21
31.128276
 31
0.0
  0
LINE
  5
102
100
AcDbEntity
  8
Layer_1
 62
7
100
AcDbLine
 10
66.646680
 20
31.125290
 30
0.0
 11
66.646680
 21
8.550659
 31
0.0
  0
SPLINE
  5
103
100
AcDbEntity
  8
Layer_1
 62
7
100
AcDbSpline
 70
0
 71
3
 72
10
 73
6
 74
4
 40
0.000000
 40
0.000000
 40
0.000000
 40
0.000000
 40
1.475809
 40
2.907847
 40
4.383656
 40
4.383656
 40
4.383656
 40
4.383656
 10
66.652651
 20
8.553645
 30
0.0
 10
66.730286
 20
8.059057
 30
0.0
 10
66.883254
 20
7.084550
 30
0.0
 10
68.006131
 20
5.961673
 30
0.0
 10
68.980638
 20
5.808705
 30
0.0
 10
69.475226
 20
5.731069
 30
0.0
 11
66.652651
 21
8.553645
 31
0.0
 11
67.038015
 21
7.129037
 31
0.0
 11
68.050618
 21
6.116434
 31
0.0
 11
69.475226
 21
5.731069
 31
0.0
  0
LINE
  5
104
100
AcDbEntity
  8
Layer_1
 62
7
100
AcDbLine
 10
89.227283
 20
33.950851
 30
0.0
 11
69.472240
 21
33.950851
 31
0.0
  0
SPLINE
  5
105
100
AcDbEntity
  8
Layer_1
 62
7
100
AcDbSpline
 70
0
 71
3
 72
10
 73
6
 74
4
 40
0.000000
 40
0.000000
 40
0.000000
 40
0.000000
 40
1.475809
 40
2.907847
 40
4.383656
 40
4.383656
 40
4.383656
 40
4.383656
 10
92.052844
 20
31.128276
 30
0.0
 10
91.975208
 20
31.622864
 30
0.0
 10
91.822240
 20
32.597371
 30
0.0
 10
90.699363
 20
33.720248
 30
0.0
 10
89.724856
 20
33.873216
 30
0.0
 10
89.230268
 20
33.950851
 30
0.0
 11
92.052844
 21
31.128276
 31
0.0
 11
91.667479
 21
32.552884
 31
0.0
 11
90.654876
 21
33.565487
 31
0.0
 11
89.230268
 21
33.950851
 31
0.0
  0
LINE
  5
106
100
AcDbEntity
  8
Layer_1
 62
7
100
AcDbLine
 10
92.052843
 20
8.550659
 30
0.0
 11
92.052843
 21
31.125290
 31
0.0
  0
SPLINE
  5
107
100
AcDbEntity
  8
Layer_1
 62
7
100
AcDbSpline
 70
0
 71
3
 72
10
 73
6
 74
4
 40
0.000000
 40
0.000000
 40
0.000000
 40
0.000000
 40
1.475809
 40
2.907846
 40
4.383655
 40
4.383655
 40
4.383655
 40
4.383655
 10
89.230268
 20
5.731070
 30
0.0
 10
89.724856
 20
5.808705
 30
0.0
 10
90.699363
 20
5.961673
 30
0.0
 10
91.822240
 20
7.084550
 30
0.0
 10
91.975208
 20
8.059057
 30
0.0
 10
92.052843
 20
8.553645
 30
0.0
 11
89.230268
 21
5.731070
 31
0.0
 11
90.654876
 21
6.116434
 31
0.0
 11
91.667479
 21
7.129037
 31
0.0
 11
92.052843
 21
8.553645
 31
0.0
  0
SPLINE
  5
108
100
AcDbEntity
  8
Layer_1
 62
7
100
AcDbSpline
 70
0
 71
3
 72
19
 73
15
 74
13
 40
0.000000
 40
0.000000
 40
0.000000
 40
0.000000
 40
0.220200
 40
0.433869
 40
0.654069
 40
0.874269
 40
1.087939
 40
1.308139
 40
1.528339
 40
1.742008
 40
1.962208
 40
2.182408
 40
2.396077
 40
2.616277
 40
2.616277
 40
2.616277
 40
2.616277
 10
69.185503
 20
7.842775
 30
0.0
 10
69.173928
 20
7.917016
 30
0.0
 10
69.151121
 20
8.063296
 30
0.0
 10
68.983455
 20
8.224339
 30
0.0
 10
68.764743
 20
8.284010
 30
0.0
 10
68.543735
 20
8.224339
 30
0.0
 10
68.382822
 20
8.063296
 30
0.0
 10
68.323107
 20
7.842775
 30
0.0
 10
68.382822
 20
7.622254
 30
0.0
 10
68.543735
 20
7.461211
 30
0.0
 10
68.764743
 20
7.401540
 30
0.0
 10
68.983455
 20
7.461211
 30
0.0
 10
69.151121
 20
7.622254
 30
0.0
 10
69.173928
 20
7.768534
 30
0.0
 10
69.185503
 20
7.842775
 30
0.0
 11
69.185503
 21
7.842775
 31
0.0
 11
69.128004
 21
8.055335
 31
0.0
 11
68.976917
 21
8.206422
 31
0.0
 11
68.764357
 21
8.263921
 31
0.0
 11
68.551796
 21
8.206422
 31
0.0
 11
68.400709
 21
8.055335
 31
0.0
 11
68.343210
 21
7.842775
 31
0.0
 11
68.400709
 21
7.630214
 31
0.0
 11
68.551796
 21
7.479128
 31
0.0
 11
68.764357
 21
7.421629
 31
0.0
 11
68.976917
 21
7.479128
 31
0.0
 11
69.128004
 21
7.630214
 31
0.0
 11
69.185503
 21
7.842775
 31
0.0
  0
SPLINE
  5
109
100
AcDbEntity
  8
Layer_1
 62
7
100
AcDbSpline
 70
0
 71
3
 72
19
 73
15
 74
13
 40
0.000000
 40
0.000000
 40
0.000000
 40
0.000000
 40
0.220200
 40
0.433869
 40
0.654069
 40
0.874269
 40
1.087939
 40
1.308139
 40
1.528339
 40
1.742008
 40
1.962208
 40
2.182408
 40
2.396077
 40
2.616277
 40
2.616277
 40
2.616277
 40
2.616277
 10
69.185503
 20
31.839146
 30
0.0
 10
69.173928
 20
31.913387
 30
0.0
 10
69.151121
 20
32.059667
 30
0.0
 10
68.983455
 20
32.220710
 30
0.0
 10
68.764743
 20
32.280381
 30
0.0
 10
68.543735
 20
32.220710
 30
0.0
 10
68.382822
 20
32.059667
 30
0.0
 10
68.323107
 20
31.839146
 30
0.0
 10
68.382822
 20
31.618624
 30
0.0
 10
68.543735
 20
31.457581
 30
0.0
 10
68.764743
 20
31.397910
 30
0.0
 10
68.983455
 20
31.457581
 30
0.0
 10
69.151121
 20
31.618624
 30
0.0
 10
69.173928
 20
31.764904
 30
0.0
 10
69.185503
 20
31.839146
 30
0.0
 11
69.185503
 21
31.839146
 31
0.0
 11
69.128004
 21
32.051706
 31
0.0
 11
68.976917
 21
32.202793
 31
0.0
 11
68.764357
 21
32.260292
 31
0.0
 11
68.551796
 21
32.202793
 31
0.0
 11
68.400709
 21
32.051706
 31
0.0
 11
68.343210
 21
31.839146
 31
0.0
 11
68.400709
 21
31.626585
 31
0.0
 11
68.551796
 21
31.475498
 31
0.0
 11
68.764357
 21
31.417999
 31
0.0
 11
68.976917
 21
31.475498
 31
0.0
 11
69.128004
 21
31.626585
 31
0.0
 11
69.185503
 21
31.839146
 31
0.0
  0
SPLINE
  5
10a
100
AcDbEntity
  8
Layer_1
 62
7
100
AcDbSpline
 70
0
 71
3
 72
19
 73
15
 74
13
 40
0.000000
 40
0.000000
 40
0.000000
 40
0.000000
 40
1.181997
 40
2.327627
 40
3.506926
 40
4.686225
 40
5.831856
 40
7.013853
 40
8.195849
 40
9.341480
 40
10.520779
 40
11.700078
 40
12.845709
 40
14.027705
 40
14.027705
 40
14.027705
 40
14.027705
 10
75.959685
 20
17.018387
 30
0.0
 10
75.897773
 20
17.416893
 30
0.0
 10
75.775853
 20
18.201646
 30
0.0
 10
74.878505
 20
19.066590
 30
0.0
 10
73.706672
 20
19.387397
 30
0.0
 10
72.522594
 20
19.066590
 30
0.0
 10
71.661309
 20
18.201646
 30
0.0
 10
71.341998
 20
17.018387
 30
0.0
 10
71.661309
 20
15.835128
 30
0.0
 10
72.522594
 20
14.970183
 30
0.0
 10
73.706672
 20
14.649377
 30
0.0
 10
74.878505
 20
14.970183
 30
0.0
 10
75.775853
 20
15.835128
 30
0.0
 10
75.897773
 20
16.619880
 30
0.0
 10
75.959685
 20
17.018387
 30
0.0
 11
75.959685
 21
17.018387
 31
0.0
 11
75.651801
 21
18.159580
 31
0.0
 11
74.842790
 21
18.970735
 31
0.0
 11
73.704611
 21
19.279434
 31
0.0
 11
72.566433
 21
18.970735
 31
0.0
 11
71.757422
 21
18.159580
 31
0.0
 11
71.449538
 21
17.018387
 31
0.0
 11
71.757422
 21
15.877193
 31
0.0
 11
72.566433
 21
15.066039
 31
0.0
 11
73.704611
 21
14.757339
 31
0.0
 11
74.842790
 21
15.066039
 31
0.0
 11
75.651801
 21
15.877193
 31
0.0
 11
75.959685
 21
17.018387
 31
0.0
  0
SPLINE
  5
10b
100
AcDbEntity
  8
Layer_1
 62
7
100
AcDbSpline
 70
0
 71
3
 72
19
 73
15
 74
13
 40
0.000000
 40
0.000000
 40
0.000000
 40
0.000000
 40
0.220200
 40
0.433869
 40
0.654069
 40
0.874269
 40
1.087939
 40
1.308139
 40
1.528339
 40
1.742008
 40
1.962208
 40
2.182408
 40
2.396077
 40
2.616277
 40
2.616277
 40
2.616277
 40
2.616277
 10
90.362287
 20
7.842775
 30
0.0
 10
90.350712
 20
7.917016
 30
0.0
 10
90.327905
 20
8.063296
 30
0.0
 10
90.160240
 20
8.224339
 30
0.0
 10
89.941527
 20
8.284010
 30
0.0
 10
89.720519
 20
8.224339
 30
0.0
 10
89.559606
 20
8.063296
 30
0.0
 10
89.499891
 20
7.842775
 30
0.0
 10
89.559606
 20
7.622254
 30
0.0
 10
89.720519
 20
7.461211
 30
0.0
 10
89.941527
 20
7.401540
 30
0.0
 10
90.160240
 20
7.461211
 30
0.0
 10
90.327905
 20
7.622254
 30
0.0
 10
90.350712
 20
7.768534
 30
0.0
 10
90.362287
 20
7.842775
 30
0.0
 11
90.362287
 21
7.842775
 31
0.0
 11
90.304788
 21
8.055335
 31
0.0
 11
90.153701
 21
8.206422
 31
0.0
 11
89.941141
 21
8.263921
 31
0.0
 11
89.728580
 21
8.206422
 31
0.0
 11
89.577494
 21
8.055335
 31
0.0
 11
89.519995
 21
7.842775
 31
0.0
 11
89.577494
 21
7.630214
 31
0.0
 11
89.728580
 21
7.479128
 31
0.0
 11
89.941141
 21
7.421629
 31
0.0
 11
90.153701
 21
7.479128
 31
0.0
 11
90.304788
 21
7.630214
 31
0.0
 11
90.362287
 21
7.842775
 31
0.0
  0
SPLINE
  5
10c
100
AcDbEntity
  8
Layer_1
 62
7
100
AcDbSpline
 70
0
 71
3
 72
19
 73
15
 74
13
 40
0.000000
 40
0.000000
 40
0.000000
 40
0.000000
 40
0.220200
 40
0.433869
 40
0.654069
 40
0.874269
 40
1.087939
 40
1.308139
 40
1.528339
 40
1.742008
 40
1.962208
 40
2.182408
 40
2.396077
 40
2.616277
 40
2.616277
 40
2.616277
 40
2.616277
 10
90.362287
 20
31.839146
 30
0.0
 10
90.350712
 20
31.913387
 30
0.0
 10
90.327905
 20
32.059667
 30
0.0
 10
90.160240
 20
32.220710
 30
0.0
 10
89.941527
 20
32.280381
 30
0.0
 10
89.720519
 20
32.220710
 30
0.0
 10
89.559606
 20
32.059667
 30
0.0
 10
89.499891
 20
31.839146
 30
0.0
 10
89.559606
 20
31.618624
 30
0.0
 10
89.720519
 20
31.457581
 30
0.0
 10
89.941527
 20
31.397910
 30
0.0
 10
90.160240
 20
31.457581
 30
0.0
 10
90.327905
 20
31.618624
 30
0.0
 10
90.350712
 20
31.764904
 30
0.0
 10
90.362287
 20
31.839146
 30
0.0
 11
90.362287
 21
31.839146
 31
0.0
 11
90.304788
 21
32.051706
 31
0.0
 11
90.153701
 21
32.202793
 31
0.0
 11
89.941141
 21
32.260292
 31
0.0
 11
89.728580
 21
32.202793
 31
0.0
 11
89.577494
 21
32.051706
 31
0.0
 11
89.519995
 21
31.839146
 31
0.0
 11
89.577494
 21
31.626585
 31
0.0
 11
89.728580
 21
31.475498
 31
0.0
 11
89.941141
 21
31.417999
 31
0.0
 11
90.153701
 21
31.475498
 31
0.0
 11
90.304788
 21
31.626585
 31
0.0
 11
90.362287
 21
31.839146
 31
0.0
  0
SPLINE
  5
10d
100
AcDbEntity
  8
Layer_1
 62
7
100
AcDbSpline
 70
0
 71
3
 72
19
 73
15
 74
13
 40
0.000000
 40
0.000000
 40
0.000000
 40
0.000000
 40
0.220200
 40
0.433869
 40
0.654069
 40
0.874269
 40
1.087939
 40
1.308139
 40
1.528339
 40
1.742008
 40
1.962208
 40
2.182408
 40
2.396077
 40
2.616277
 40
2.616277
 40
2.616277
 40
2.616277
 10
69.185503
 20
29.861851
 30
0.0
 10
69.173928
 20
29.936093
 30
0.0
 10
69.151121
 20
30.082373
 30
0.0
 10
68.983455
 20
30.243416
 30
0.0
 10
68.764743
 20
30.303087
 30
0.0
 10
68.543735
 20
30.243416
 30
0.0
 10
68.382822
 20
30.082373
 30
0.0
 10
68.323107
 20
29.861851
 30
0.0
 10
68.382822
 20
29.641330
 30
0.0
 10
68.543735
 20
29.480287
 30
0.0
 10
68.764743
 20
29.420616
 30
0.0
 10
68.983455
 20
29.480287
 30
0.0
 10
69.151121
 20
29.641330
 30
0.0
 10
69.173928
 20
29.787610
 30
0.0
 10
69.185503
 20
29.861851
 30
0.0
 11
69.185503
 21
29.861851
 31
0.0
 11
69.128004
 21
30.074412
 31
0.0
 11
68.976917
 21
30.225499
 31
0.0
 11
68.764357
 21
30.282998
 31
0.0
 11
68.551796
 21
30.225499
 31
0.0
 11
68.400709
 21
30.074412
 31
0.0
 11
68.343210
 21
29.861851
 31
0.0
 11
68.400709
 21
29.649291
 31
0.0
 11
68.551796
 21
29.498204
 31
0.0
 11
68.764357
 21
29.440705
 31
0.0
 11
68.976917
 21
29.498204
 31
0.0
 11
69.128004
 21
29.649291
 31
0.0
 11
69.185503
 21
29.861851
 31
0.0
  0
SPLINE
  5
10e
100
AcDbEntity
  8
Layer_1
 62
7
100
AcDbSpline
 70
0
 71
3
 72
19
 73
15
 74
13
 40
0.000000
 40
0.000000
 40
0.000000
 40
0.000000
 40
0.220200
 40
0.433869
 40
0.654069
 40
0.874269
 40
1.087939
 40
1.308139
 40
1.528339
 40
1.742008
 40
1.962208
 40
2.182408
 40
2.396077
 40
2.616277
 40
2.616277
 40
2.616277
 40
2.616277
 10
90.362287
 20
29.861851
 30
0.0
 10
90.350712
 20
29.936093
 30
0.0
 10
90.327905
 20
30.082373
 30
0.0
 10
90.160240
 20
30.243416
 30
0.0
 10
89.941527
 20
30.303087
 30
0.0
 10
89.720519
 20
30.243416
 30
0.0
 10
89.559606
 20
30.082373
 30
0.0
 10
89.499891
 20
29.861851
 30
0.0
 10
89.559606
 20
29.641330
 30
0.0
 10
89.720519
 20
29.480287
 30
0.0
 10
89.941527
 20
29.420616
 30
0.0
 10
90.160240
 20
29.480287
 30
0.0
 10
90.327905
 20
29.641330
 30
0.0
 10
90.350712
 20
29.787610
 30
0.0
 10
90.362287
 20
29.861851
 30
0.0
 11
90.362287
 21
29.861851
 31
0.0
 11
90.304788
 21
30.074412
 31
0.0
 11
90.153701
 21
30.225499
 31
0.0
 11
89.941141
 21
30.282998
 31
0.0
 11
89.728580
 21
30.225499
 31
0.0
 11
89.577494
 21
30.074412
 31
0.0
 11
89.519995
 21
29.861851
 31
0.0
 11
89.577494
 21
29.649291
 31
0.0
 11
89.728580
 21
29.498204
 31
0.0
 11
89.941141
 21
29.440705
 31
0.0
 11
90.153701
 21
29.498204
 31
0.0
 11
90.304788
 21
29.649291
 31
0.0
 11
90.362287
 21
29.861851
 31
0.0
  0
SPLINE
  5
10f
100
AcDbEntity
  8
Layer_1
 62
7
100
AcDbSpline
 70
0
 71
3
 72
19
 73
15
 74
13
 40
0.000000
 40
0.000000
 40
0.000000
 40
0.000000
 40
0.220200
 40
0.433869
 40
0.654069
 40
0.874269
 40
1.087939
 40
1.308139
 40
1.528339
 40
1.742008
 40
1.962208
 40
2.182408
 40
2.396077
 40
2.616277
 40
2.616277
 40
2.616277
 40
2.616277
 10
90.362287
 20
21.110375
 30
0.0
 10
90.350712
 20
21.184616
 30
0.0
 10
90.327905
 20
21.330896
 30
0.0
 10
90.160240
 20
21.491939
 30
0.0
 10
89.941527
 20
21.551610
 30
0.0
 10
89.720519
 20
21.491939
 30
0.0
 10
89.559606
 20
21.330896
 30
0.0
 10
89.499891
 20
21.110375
 30
0.0
 10
89.559606
 20
20.889853
 30
0.0
 10
89.720519
 20
20.728811
 30
0.0
 10
89.941527
 20
20.669139
 30
0.0
 10
90.160240
 20
20.728811
 30
0.0
 10
90.327905
 20
20.889853
 30
0.0
 10
90.350712
 20
21.036133
 30
0.0
 10
90.362287
 20
21.110375
 30
0.0
 11
90.362287
 21
21.110375
 31
0.0
 11
90.304788
 21
21.322935
 31
0.0
 11
90.153701
 21
21.474022
 31
0.0
 11
89.941141
 21
21.531521
 31
0.0
 11
89.728580
 21
21.474022
 31
0.0
 11
89.577494
 21
21.322935
 31
0.0
 11
89.519995
 21
21.110375
 31
0.0
 11
89.577494
 21
20.897814
 31
0.0
 11
89.728580
 21
20.746727
 31
0.0
 11
89.941141
 21
20.689228
 31
0.0
 11
90.153701
 21
20.746727
 31
0.0
 11
90.304788
 21
20.897814
 31
0.0
 11
90.362287
 21
21.110375
 31
0.0
  0
SPLINE
  5
110
100
AcDbEntity
  8
Layer_1
 62
7
100
AcDbSpline
 70
0
 71
3
 72
19
 73
15
 74
13
 40
0.000000
 40
0.000000
 40
0.000000
 40
0.000000
 40
0.220200
 40
0.433869
 40
0.654069
 40
0.874269
 40
1.087939
 40
1.308139
 40
1.528339
 40
1.742008
 40
1.962208
 40
2.182408
 40
2.396077
 40
2.616277
 40
2.616277
 40
2.616277
 40
2.616277
 10
69.185503
 20
21.110375
 30
0.0
 10
69.173928
 20
21.184616
 30
0.0
 10
69.151121
 20
21.330896
 30
0.0
 10
68.983455
 20
21.491939
 30
0.0
 10
68.764743
 20
21.551610
 30
0.0
 10
68.543735
 20
21.491939
 30
0.0
 10
68.382822
 20
21.330896
 30
0.0
 10
68.323107
 20
21.110375
 30
0.0
 10
68.382822
 20
20.889853
 30
0.0
 10
68.543735
 20
20.728811
 30
0.0
 10
68.764743
 20
20.669139
 30
0.0
 10
68.983455
 20
20.728811
 30
0.0
 10
69.151121
 20
20.889853
 30
0.0
 10
69.173928
 20
21.036133
 30
0.0
 10
69.185503
 20
21.110375
 30
0.0
 11
69.185503
 21
21.110375
 31
0.0
 11
69.128004
 21
21.322935
 31
0.0
 11
68.976917
 21
21.474022
 31
0.0
 11
68.764357
 21
21.531521
 31
0.0
 11
68.551796
 21
21.474022
 31
0.0
 11
68.400709
 21
21.322935
 31
0.0
 11
68.343210
 21
21.110375
 31
0.0
 11
68.400709
 21
20.897814
 31
0.0
 11
68.551796
 21
20.746727
 31
0.0
 11
68.764357
 21
20.689228
 31
0.0
 11
68.976917
 21
20.746727
 31
0.0
 11
69.128004
 21
20.897814
 31
0.0
 11
69.185503
 21
21.110375
 31
0.0
  0
LINE
  5
111
100
AcDbEntity
  8
Layer_1
 62
7
100
AcDbLine
 10
70.511665
 20
27.385749
 30
0.0
 11
88.128120
 21
27.385749
 31
0.0
  0
SPLINE
  5
112
100
AcDbEntity
  8
Layer_1
 62
7
100
AcDbSpline
 70
0
 71
3
 72
10
 73
6
 74
4
 40
0.000000
 40
0.000000
 40
0.000000
 40
0.000000
 40
0.148362
 40
0.292323
 40
0.440685
 40
0.440685
 40
0.440685
 40
0.440685
 10
70.514654
 20
27.391723
 30
0.0
 10
70.464933
 20
27.383919
 30
0.0
 10
70.366967
 20
27.368541
 30
0.0
 10
70.254085
 20
27.255659
 30
0.0
 10
70.238707
 20
27.157693
 30
0.0
 10
70.230903
 20
27.107972
 30
0.0
 11
70.514654
 21
27.391723
 31
0.0
 11
70.371439
 21
27.352983
 31
0.0
 11
70.269643
 21
27.251187
 31
0.0
 11
70.230903
 21
27.107972
 31
0.0
  0
LINE
  5
113
100
AcDbEntity
  8
Layer_1
 62
7
100
AcDbLine
 10
70.230902
 20
23.580499
 30
0.0
 11
70.230902
 21
27.104986
 31
0.0
  0
SPLINE
  5
114
100
AcDbEntity
  8
Layer_1
 62
7
100
AcDbSpline
 70
0
 71
3
 72
10
 73
6
 74
4
 40
0.000000
 40
0.000000
 40
0.000000
 40
0.000000
 40
0.148362
 40
0.292324
 40
0.440687
 40
0.440687
 40
0.440687
 40
0.440687
 10
70.230902
 20
23.583488
 30
0.0
 10
70.238706
 20
23.533767
 30
0.0
 10
70.254084
 20
23.435801
 30
0.0
 10
70.366966
 20
23.322918
 30
0.0
 10
70.464933
 20
23.307541
 30
0.0
 10
70.514654
 20
23.299736
 30
0.0
 11
70.230902
 21
23.583488
 31
0.0
 11
70.269642
 21
23.440273
 31
0.0
 11
70.371438
 21
23.338476
 31
0.0
 11
70.514654
 21
23.299736
 31
0.0
  0
LINE
  5
115
100
AcDbEntity
  8
Layer_1
 62
7
100
AcDbLine
 10
88.128120
 20
23.293761
 30
0.0
 11
70.511665
 21
23.293761
 31
0.0
  0
SPLINE
  5
116
100
AcDbEntity
  8
Layer_1
 62
7
100
AcDbSpline
 70
0
 71
3
 72
10
 73
6
 74
4
 40
0.000000
 40
0.000000
 40
0.000000
 40
0.000000
 40
0.148362
 40
0.292323
 40
0.440685
 40
0.440685
 40
0.440685
 40
0.440685
 10
88.131106
 20
23.299737
 30
0.0
 10
88.180826
 20
23.307542
 30
0.0
 10
88.278793
 20
23.322919
 30
0.0
 10
88.391674
 20
23.435801
 30
0.0
 10
88.407052
 20
23.533767
 30
0.0
 10
88.414857
 20
23.583488
 30
0.0
 11
88.131106
 21
23.299737
 31
0.0
 11
88.274320
 21
23.338477
 31
0.0
 11
88.376116
 21
23.440273
 31
0.0
 11
88.414857
 21
23.583488
 31
0.0
  0
LINE
  5
117
100
AcDbEntity
  8
Layer_1
 62
7
100
AcDbLine
 10
88.408886
 20
27.104986
 30
0.0
 11
88.408886
 21
23.580499
 31
0.0
  0
SPLINE
  5
118
100
AcDbEntity
  8
Layer_1
 62
7
100
AcDbSpline
 70
0
 71
3
 72
10
 73
6
 74
4
 40
0.000000
 40
0.000000
 40
0.000000
 40
0.000000
 40
0.148362
 40
0.292323
 40
0.440685
 40
0.440685
 40
0.440685
 40
0.440685
 10
88.414857
 20
27.107972
 30
0.0
 10
88.407052
 20
27.157693
 30
0.0
 10
88.391674
 20
27.255659
 30
0.0
 10
88.278793
 20
27.368541
 30
0.0
 10
88.180826
 20
27.383919
 30
0.0
 10
88.131106
 20
27.391723
 30
0.0
 11
88.414857
 21
27.107972
 31
0.0
 11
88.376116
 21
27.251187
 31
0.0
 11
88.274320
 21
27.352983
 31
0.0
 11
88.131106
 21
27.391723
 31
0.0
  0
SPLINE
  5
119
100
AcDbEntity
  8
Layer_1
 62
7
100
AcDbSpline
 70
0
 71
3
 72
19
 73
15
 74
13
 40
0.000000
 40
0.000000
 40
0.000000
 40
0.000000
 40
0.220200
 40
0.433869
 40
0.654069
 40
0.874269
 40
1.087939
 40
1.308139
 40
1.528339
 40
1.742008
 40
1.962208
 40
2.182408
 40
2.396077
 40
2.616277
 40
2.616277
 40
2.616277
 40
2.616277
 10
25.793757
 20
30.611552
 30
0.0
 10
25.782182
 20
30.685793
 30
0.0
 10
25.759375
 20
30.832074
 30
0.0
 10
25.591710
 20
30.993116
 30
0.0
 10
25.372998
 20
31.052787
 30
0.0
 10
25.151989
 20
30.993116
 30
0.0
 10
24.991076
 20
30.832074
 30
0.0
 10
24.931361
 20
30.611552
 30
0.0
 10
24.991076
 20
30.391031
 30
0.0
 10
25.151989
 20
30.229988
 30
0.0
 10
25.372998
 20
30.170317
 30
0.0
 10
25.591710
 20
30.229988
 30
0.0
 10
25.759375
 20
30.391031
 30
0.0
 10
25.782182
 20
30.537311
 30
0.0
 10
25.793757
 20
30.611552
 30
0.0
 11
25.793757
 21
30.611552
 31
0.0
 11
25.736259
 21
30.824113
 31
0.0
 11
25.585172
 21
30.975200
 31
0.0
 11
25.372611
 21
31.032698
 31
0.0
 11
25.160051
 21
30.975200
 31
0.0
 11
25.008964
 21
30.824113
 31
0.0
 11
24.951465
 21
30.611552
 31
0.0
 11
25.008964
 21
30.398992
 31
0.0
 11
25.160051
 21
30.247905
 31
0.0
 11
25.372611
 21
30.190406
 31
0.0
 11
25.585172
 21
30.247905
 31
0.0
 11
25.736259
 21
30.398992
 31
0.0
 11
25.793757
 21
30.611552
 31
0.0
  0
SPLINE
  5
11a
100
AcDbEntity
  8
Layer_1
 62
7
100
AcDbSpline
 70
0
 71
3
 72
19
 73
15
 74
13
 40
0.000000
 40
0.000000
 40
0.000000
 40
0.000000
 40
0.220200
 40
0.433869
 40
0.654069
 40
0.874269
 40
1.087939
 40
1.308139
 40
1.528339
 40
1.742008
 40
1.962208
 40
2.182408
 40
2.396077
 40
2.616277
 40
2.616277
 40
2.616277
 40
2.616277
 10
36.821215
 20
30.611552
 30
0.0
 10
36.809640
 20
30.685793
 30
0.0
 10
36.786833
 20
30.832074
 30
0.0
 10
36.619168
 20
30.993116
 30
0.0
 10
36.400455
 20
31.052787
 30
0.0
 10
36.179447
 20
30.993116
 30
0.0
 10
36.018534
 20
30.832074
 30
0.0
 10
35.958819
 20
30.611552
 30
0.0
 10
36.018534
 20
30.391031
 30
0.0
 10
36.179447
 20
30.229988
 30
0.0
 10
36.400455
 20
30.170317
 30
0.0
 10
36.619168
 20
30.229988
 30
0.0
 10
36.786833
 20
30.391031
 30
0.0
 10
36.809640
 20
30.537311
 30
0.0
 10
36.821215
 20
30.611552
 30
0.0
 11
36.821215
 21
30.611552
 31
0.0
 11
36.763716
 21
30.824113
 31
0.0
 11
36.612629
 21
30.975200
 31
0.0
 11
36.400069
 21
31.032698
 31
0.0
 11
36.187508
 21
30.975200
 31
0.0
 11
36.036421
 21
30.824113
 31
0.0
 11
35.978923
 21
30.611552
 31
0.0
 11
36.036421
 21
30.398992
 31
0.0
 11
36.187508
 21
30.247905
 31
0.0
 11
36.400069
 21
30.190406
 31
0.0
 11
36.612629
 21
30.247905
 31
0.0
 11
36.763716
 21
30.398992
 31
0.0
 11
36.821215
 21
30.611552
 31
0.0
  0
SPLINE
  5
11b
100
AcDbEntity
  8
Layer_1
 62
7
100
AcDbSpline
 70
0
 71
3
 72
19
 73
15
 74
13
 40
0.000000
 40
0.000000
 40
0.000000
 40
0.000000
 40
0.220200
 40
0.433869
 40
0.654069
 40
0.874269
 40
1.087939
 40
1.308139
 40
1.528339
 40
1.742008
 40
1.962208
 40
2.182408
 40
2.396077
 40
2.616277
 40
2.616277
 40
2.616277
 40
2.616277
 10
36.815243
 20
14.010626
 30
0.0
 10
36.803668
 20
14.084867
 30
0.0
 10
36.780861
 20
14.231147
 30
0.0
 10
36.613196
 20
14.392190
 30
0.0
 10
36.394484
 20
14.451861
 30
0.0
 10
36.173475
 20
14.392190
 30
0.0
 10
36.012562
 20
14.231147
 30
0.0
 10
35.952847
 20
14.010626
 30
0.0
 10
36.012562
 20
13.790104
 30
0.0
 10
36.173475
 20
13.629062
 30
0.0
 10
36.394484
 20
13.569391
 30
0.0
 10
36.613196
 20
13.629062
 30
0.0
 10
36.780861
 20
13.790104
 30
0.0
 10
36.803668
 20
13.936385
 30
0.0
 10
36.815243
 20
14.010626
 30
0.0
 11
36.815243
 21
14.010626
 31
0.0
 11
36.757744
 21
14.223186
 31
0.0
 11
36.606658
 21
14.374273
 31
0.0
 11
36.394097
 21
14.431772
 31
0.0
 11
36.181536
 21
14.374273
 31
0.0
 11
36.030450
 21
14.223186
 31
0.0
 11
35.972951
 21
14.010626
 31
0.0
 11
36.030450
 21
13.798065
 31
0.0
 11
36.181536
 21
13.646979
 31
0.0
 11
36.394097
 21
13.589480
 31
0.0
 11
36.606658
 21
13.646979
 31
0.0
 11
36.757744
 21
13.798065
 31
0.0
 11
36.815243
 21
14.010626
 31
0.0
  0
SPLINE
  5
11c
100
AcDbEntity
  8
Layer_1
 62
7
100
AcDbSpline
 70
0
 71
3
 72
19
 73
15
 74
13
 40
0.000000
 40
0.000000
 40
0.000000
 40
0.000000
 40
0.220200
 40
0.433869
 40
0.654069
 40
0.874269
 40
1.087939
 40
1.308139
 40
1.528339
 40
1.742008
 40
1.962208
 40
2.182408
 40
2.396077
 40
2.616277
 40
2.616277
 40
2.616277
 40
2.616277
 10
25.781810
 20
14.010626
 30
0.0
 10
25.770235
 20
14.084867
 30
0.0
 10
25.747428
 20
14.231147
 30
0.0
 10
25.579763
 20
14.392190
 30
0.0
 10
25.361050
 20
14.451861
 30
0.0
 10
25.140042
 20
14.392190
 30
0.0
 10
24.979129
 20
14.231147
 30
0.0
 10
24.919414
 20
14.010626
 30
0.0
 10
24.979129
 20
13.790104
 30
0.0
 10
25.140042
 20
13.629062
 30
0.0
 10
25.361050
 20
13.569391
 30
0.0
 10
25.579763
 20
13.629062
 30
0.0
 10
25.747428
 20
13.790104
 30
0.0
 10
25.770235
 20
13.936385
 30
0.0
 10
25.781810
 20
14.010626
 30
0.0
 11
25.781810
 21
14.010626
 31
0.0
 11
25.724311
 21
14.223186
 31
0.0
 11
25.573224
 21
14.374273
 31
0.0
 11
25.360664
 21
14.431772
 31
0.0
 11
25.148103
 21
14.374273
 31
0.0
 11
24.997016
 21
14.223186
 31
0.0
 11
24.939518
 21
14.010626
 31
0.0
 11
24.997016
 21
13.798065
 31
0.0
 11
25.148103
 21
13.646979
 31
0.0
 11
25.360664
 21
13.589480
 31
0.0
 11
25.573224
 21
13.646979
 31
0.0
 11
25.724311
 21
13.798065
 31
0.0
 11
25.781810
 21
14.010626
 31
0.0
  0
SPLINE
  5
11d
100
AcDbEntity
  8
Layer_1
 62
7
100
AcDbSpline
 70
0
 71
3
 72
19
 73
15
 74
13
 40
0.000000
 40
0.000000
 40
0.000000
 40
0.000000
 40
0.220200
 40
0.433869
 40
0.654069
 40
0.874269
 40
1.087939
 40
1.308139
 40
1.528339
 40
1.742008
 40
1.962208
 40
2.182408
 40
2.396077
 40
2.616277
 40
2.616277
 40
2.616277
 40
2.616277
 10
42.125867
 20
7.839789
 30
0.0
 10
42.114292
 20
7.914030
 30
0.0
 10
42.091485
 20
8.060310
 30
0.0
 10
41.923819
 20
8.221353
 30
0.0
 10
41.705107
 20
8.281024
 30
0.0
 10
41.484099
 20
8.221353
 30
0.0
 10
41.323186
 20
8.060310
 30
0.0
 10
41.263471
 20
7.839789
 30
0.0
 10
41.323186
 20
7.619268
 30
0.0
 10
41.484099
 20
7.458225
 30
0.0
 10
41.705107
 20
7.398554
 30
0.0
 10
41.923819
 20
7.458225
 30
0.0
 10
42.091485
 20
7.619268
 30
0.0
 10
42.114292
 20
7.765548
 30
0.0
 10
42.125867
 20
7.839789
 30
0.0
 11
42.125867
 21
7.839789
 31
0.0
 11
42.068368
 21
8.052350
 31
0.0
 11
41.917281
 21
8.203436
 31
0.0
 11
41.704721
 21
8.260935
 31
0.0
 11
41.492160
 21
8.203436
 31
0.0
 11
41.341073
 21
8.052350
 31
0.0
 11
41.283574
 21
7.839789
 31
0.0
 11
41.341073
 21
7.627228
 31
0.0
 11
41.492160
 21
7.476142
 31
0.0
 11
41.704721
 21
7.418643
 31
0.0
 11
41.917281
 21
7.476142
 31
0.0
 11
42.068368
 21
7.627228
 31
0.0
 11
42.125867
 21
7.839789
 31
0.0
  0
SPLINE
  5
11e
100
AcDbEntity
  8
Layer_1
 62
7
100
AcDbSpline
 70
0
 71
3
 72
19
 73
15
 74
13
 40
0.000000
 40
0.000000
 40
0.000000
 40
0.000000
 40
0.220200
 40
0.433869
 40
0.654069
 40
0.874269
 40
1.087939
 40
1.308139
 40
1.528339
 40
1.742008
 40
1.962208
 40
2.182408
 40
2.396077
 40
2.616277
 40
2.616277
 40
2.616277
 40
2.616277
 10
63.296676
 20
7.839789
 30
0.0
 10
63.285101
 20
7.914030
 30
0.0
 10
63.262294
 20
8.060310
 30
0.0
 10
63.094629
 20
8.221353
 30
0.0
 10
62.875917
 20
8.281024
 30
0.0
 10
62.654908
 20
8.221353
 30
0.0
 10
62.493996
 20
8.060310
 30
0.0
 10
62.434280
 20
7.839789
 30
0.0
 10
62.493996
 20
7.619268
 30
0.0
 10
62.654908
 20
7.458225
 30
0.0
 10
62.875917
 20
7.398554
 30
0.0
 10
63.094629
 20
7.458225
 30
0.0
 10
63.262294
 20
7.619268
 30
0.0
 10
63.285101
 20
7.765548
 30
0.0
 10
63.296676
 20
7.839789
 30
0.0
 11
63.296676
 21
7.839789
 31
0.0
 11
63.239178
 21
8.052350
 31
0.0
 11
63.088091
 21
8.203436
 31
0.0
 11
62.875530
 21
8.260935
 31
0.0
 11
62.662970
 21
8.203436
 31
0.0
 11
62.511883
 21
8.052350
 31
0.0
 11
62.454384
 21
7.839789
 31
0.0
 11
62.511883
 21
7.627228
 31
0.0
 11
62.662970
 21
7.476142
 31
0.0
 11
62.875530
 21
7.418643
 31
0.0
 11
63.088091
 21
7.476142
 31
0.0
 11
63.239178
 21
7.627228
 31
0.0
 11
63.296676
 21
7.839789
 31
0.0
  0
SPLINE
  5
11f
100
AcDbEntity
  8
Layer_1
 62
7
100
AcDbSpline
 70
0
 71
3
 72
19
 73
15
 74
13
 40
0.000000
 40
0.000000
 40
0.000000
 40
0.000000
 40
0.220200
 40
0.433869
 40
0.654069
 40
0.874269
 40
1.087939
 40
1.308139
 40
1.528339
 40
1.742008
 40
1.962208
 40
2.182408
 40
2.396077
 40
2.616277
 40
2.616277
 40
2.616277
 40
2.616277
 10
63.296676
 20
31.830188
 30
0.0
 10
63.285101
 20
31.904429
 30
0.0
 10
63.262294
 20
32.050709
 30
0.0
 10
63.094629
 20
32.211752
 30
0.0
 10
62.875917
 20
32.271423
 30
0.0
 10
62.654908
 20
32.211752
 30
0.0
 10
62.493996
 20
32.050709
 30
0.0
 10
62.434280
 20
31.830188
 30
0.0
 10
62.493996
 20
31.609666
 30
0.0
 10
62.654908
 20
31.448624
 30
0.0
 10
62.875917
 20
31.388953
 30
0.0
 10
63.094629
 20
31.448624
 30
0.0
 10
63.262294
 20
31.609666
 30
0.0
 10
63.285101
 20
31.755947
 30
0.0
 10
63.296676
 20
31.830188
 30
0.0
 11
63.296676
 21
31.830188
 31
0.0
 11
63.239178
 21
32.042748
 31
0.0
 11
63.088091
 21
32.193835
 31
0.0
 11
62.875530
 21
32.251334
 31
0.0
 11
62.662970
 21
32.193835
 31
0.0
 11
62.511883
 21
32.042748
 31
0.0
 11
62.454384
 21
31.830188
 31
0.0
 11
62.511883
 21
31.617627
 31
0.0
 11
62.662970
 21
31.466540
 31
0.0
 11
62.875530
 21
31.409042
 31
0.0
 11
63.088091
 21
31.466540
 31
0.0
 11
63.239178
 21
31.617627
 31
0.0
 11
63.296676
 21
31.830188
 31
0.0
  0
LINE
  5
120
100
AcDbEntity
  8
Layer_1
 62
3
100
AcDbLine
 10
6.994509
 20
31.689805
 30
0.0
 11
22.090061
 21
31.689805
 31
0.0
  0
LINE
  5
121
100
AcDbEntity
  8
Layer_1
 62
3
100
AcDbLine
 10
6.994509
 20
8.081724
 30
0.0
 11
6.994509
 21
31.689805
 31
0.0
  0
LINE
  5
122
100
AcDbEntity
  8
Layer_1
 62
3
100
AcDbLine
 10
22.090061
 20
8.081724
 30
0.0
 11
6.994509
 21
8.081724
 31
0.0
  0
LINE
  5
123
100
AcDbEntity
  8
Layer_1
 62
3
100
AcDbLine
 10
22.090061
 20
31.689805
 30
0.0
 11
22.090061
 21
8.081724
 31
0.0
  0
LINE
  5
124
100
AcDbEntity
  8
Layer_1
 62
7
100
AcDbLine
 10
5.716136
 20
31.122304
 30
0.0
 11
5.716136
 21
8.541698
 31
0.0
  0
LINE
  5
125
100
AcDbEntity
  8
Layer_1
 62
7
100
AcDbLine
 10
8.541699
 20
5.716137
 30
0.0
 11
62.161672
 21
5.716137
 31
0.0
  0
LINE
  5
126
100
AcDbEntity
  8
Layer_1
 62
7
100
AcDbLine
 10
64.987233
 20
8.541698
 30
0.0
 11
64.987233
 21
31.122304
 31
0.0
  0
LINE
  5
127
100
AcDbEntity
  8
Layer_1
 62
7
100
AcDbLine
 10
62.161672
 20
33.947865
 30
0.0
 11
8.541699
 21
33.947865
 31
0.0
  0
SPLINE
  5
128
100
AcDbEntity
  8
Layer_1
 62
7
100
AcDbSpline
 70
0
 71
3
 72
19
 73
15
 74
13
 40
0.000000
 40
0.000000
 40
0.000000
 40
0.000000
 40
0.220200
 40
0.433869
 40
0.654069
 40
0.874269
 40
1.087939
 40
1.308139
 40
1.528339
 40
1.742008
 40
1.962208
 40
2.182408
 40
2.396077
 40
2.616277
 40
2.616277
 40
2.616277
 40
2.616277
 10
42.125867
 20
31.830188
 30
0.0
 10
42.114292
 20
31.904429
 30
0.0
 10
42.091485
 20
32.050709
 30
0.0
 10
41.923819
 20
32.211752
 30
0.0
 10
41.705107
 20
32.271423
 30
0.0
 10
41.484099
 20
32.211752
 30
0.0
 10
41.323186
 20
32.050709
 30
0.0
 10
41.263471
 20
31.830188
 30
0.0
 10
41.323186
 20
31.609666
 30
0.0
 10
41.484099
 20
31.448624
 30
0.0
 10
41.705107
 20
31.388953
 30
0.0
 10
41.923819
 20
31.448624
 30
0.0
 10
42.091485
 20
31.609666
 30
0.0
 10
42.114292
 20
31.755947
 30
0.0
 10
42.125867
 20
31.830188
 30
0.0
 11
42.125867
 21
31.830188
 31
0.0
 11
42.068368
 21
32.042748
 31
0.0
 11
41.917281
 21
32.193835
 31
0.0
 11
41.704721
 21
32.251334
 31
0.0
 11
41.492160
 21
32.193835
 31
0.0
 11
41.341073
 21
32.042748
 31
0.0
 11
41.283574
 21
31.830188
 31
0.0
 11
41.341073
 21
31.617627
 31
0.0
 11
41.492160
 21
31.466540
 31
0.0
 11
41.704721
 21
31.409042
 31
0.0
 11
41.917281
 21
31.466540
 31
0.0
 11
42.068368
 21
31.617627
 31
0.0
 11
42.125867
 21
31.830188
 31
0.0
  0
SPLINE
  5
129
100
AcDbEntity
  8
Layer_1
 62
7
100
AcDbSpline
 70
0
 71
3
 72
10
 73
6
 74
4
 40
0.000000
 40
0.000000
 40
0.000000
 40
0.000000
 40
1.475809
 40
2.907846
 40
4.383656
 40
4.383656
 40
4.383656
 40
4.383656
 10
64.987233
 20
31.125290
 30
0.0
 10
64.909597
 20
31.619878
 30
0.0
 10
64.756629
 20
32.594385
 30
0.0
 10
63.633753
 20
33.717262
 30
0.0
 10
62.659246
 20
33.870230
 30
0.0
 10
62.164658
 20
33.947865
 30
0.0
 11
64.987233
 21
31.125290
 31
0.0
 11
64.601869
 21
32.549898
 31
0.0
 11
63.589266
 21
33.562501
 31
0.0
 11
62.164658
 21
33.947865
 31
0.0
  0
SPLINE
  5
12a
100
AcDbEntity
  8
Layer_1
 62
7
100
AcDbSpline
 70
0
 71
3
 72
10
 73
6
 74
4
 40
0.000000
 40
0.000000
 40
0.000000
 40
0.000000
 40
1.475808
 40
2.907847
 40
4.383657
 40
4.383657
 40
4.383657
 40
4.383657
 10
62.164658
 20
5.722109
 30
0.0
 10
62.659245
 20
5.799745
 30
0.0
 10
63.633752
 20
5.952714
 30
0.0
 10
64.756629
 20
7.075591
 30
0.0
 10
64.909597
 20
8.050099
 30
0.0
 10
64.987233
 20
8.544687
 30
0.0
 11
62.164658
 21
5.722109
 31
0.0
 11
63.589264
 21
6.107474
 31
0.0
 11
64.601868
 21
7.120078
 31
0.0
 11
64.987233
 21
8.544687
 31
0.0
  0
SPLINE
  5
12b
100
AcDbEntity
  8
Layer_1
 62
7
100
AcDbSpline
 70
0
 71
3
 72
10
 73
6
 74
4
 40
0.000000
 40
0.000000
 40
0.000000
 40
0.000000
 40
1.475809
 40
2.907846
 40
4.383656
 40
4.383656
 40
4.383656
 40
4.383656
 10
5.722110
 20
8.544687
 30
0.0
 10
5.799745
 20
8.050099
 30
0.0
 10
5.952713
 20
7.075592
 30
0.0
 10
7.075590
 20
5.952715
 30
0.0
 10
8.050097
 20
5.799747
 30
0.0
 10
8.544685
 20
5.722112
 30
0.0
 11
5.722110
 21
8.544687
 31
0.0
 11
6.107474
 21
7.120079
 31
0.0
 11
7.120077
 21
6.107476
 31
0.0
 11
8.544685
 21
5.722112
 31
0.0
  0
LINE
  5
12c
100
AcDbEntity
  8
Layer_1
 62
1
100
AcDbLine
 10
77.355864
 20
16.377409
 30
0.0
 11
77.355864
 21
17.660239
 31
0.0
  0
LINE
  5
12d
100
AcDbEntity
  8
Layer_1
 62
1
100
AcDbLine
 10
77.355864
 20
17.660239
 30
0.0
 11
77.743513
 21
17.660239
 31
0.0
  0
LINE
  5
12e
100
AcDbEntity
  8
Layer_1
 62
1
100
AcDbLine
 10
77.743513
 20
17.660239
 30
0.0
 11
77.976279
 21
16.785184
 31
0.0
  0
LINE
  5
12f
100
AcDbEntity
  8
Layer_1
 62
1
100
AcDbLine
 10
77.976279
 20
16.785184
 30
0.0
 11
78.206417
 21
17.660239
 31
0.0
  0
LINE
  5
130
100
AcDbEntity
  8
Layer_1
 62
1
100
AcDbLine
 10
78.206417
 20
17.660239
 30
0.0
 11
78.594941
 21
17.660239
 31
0.0
  0
LINE
  5
131
100
AcDbEntity
  8
Layer_1
 62
1
100
AcDbLine
 10
78.594941
 20
17.660239
 30
0.0
 11
78.594941
 21
16.377409
 31
0.0
  0
LINE
  5
132
100
AcDbEntity
  8
Layer_1
 62
1
100
AcDbLine
 10
78.594941
 20
16.377409
 30
0.0
 11
78.354302
 21
16.377409
 31
0.0
  0
LINE
  5
133
100
AcDbEntity
  8
Layer_1
 62
1
100
AcDbLine
 10
78.354302
 20
16.377409
 30
0.0
 11
78.354302
 21
17.387220
 31
0.0
  0
LINE
  5
134
100
AcDbEntity
  8
Layer_1
 62
1
100
AcDbLine
 10
78.354302
 20
17.387220
 30
0.0
 11
78.099661
 21
16.377409
 31
0.0
  0
LINE
  5
135
100
AcDbEntity
  8
Layer_1
 62
1
100
AcDbLine
 10
78.099661
 20
16.377409
 30
0.0
 11
77.850270
 21
16.377409
 31
0.0
  0
LINE
  5
136
100
AcDbEntity
  8
Layer_1
 62
1
100
AcDbLine
 10
77.850270
 20
16.377409
 30
0.0
 11
77.596504
 21
17.387220
 31
0.0
  0
LINE
  5
137
100
AcDbEntity
  8
Layer_1
 62
1
100
AcDbLine
 10
77.596504
 20
17.387220
 30
0.0
 11
77.596504
 21
16.377409
 31
0.0
  0
LINE
  5
138
100
AcDbEntity
  8
Layer_1
 62
1
100
AcDbLine
 10
77.596504
 20
16.377409
 30
0.0
 11
77.355864
 21
16.377409
 31
0.0
  0
LINE
  5
139
100
AcDbEntity
  8
Layer_1
 62
1
100
AcDbLine
 10
79.390365
 20
16.673178
 30
0.0
 11
79.635382
 21
16.632050
 31
0.0
  0
SPLINE
  5
13a
100
AcDbEntity
  8
Layer_1
 62
7
100
AcDbSpline
 70
0
 71
3
 72
10
 73
6
 74
4
 40
0.000000
 40
0.000000
 40
0.000000
 40
0.000000
 40
1.475809
 40
2.907846
 40
4.383656
 40
4.383656
 40
4.383656
 40
4.383656
 10
8.544685
 20
33.947865
 30
0.0
 10
8.050097
 20
33.870229
 30
0.0
 10
7.075590
 20
33.717261
 30
0.0
 10
5.952713
 20
32.594385
 30
0.0
 10
5.799745
 20
31.619878
 30
0.0
 10
5.722110
 20
31.125290
 30
0.0
 11
8.544685
 21
33.947865
 31
0.0
 11
7.120077
 21
33.562501
 31
0.0
 11
6.107474
 21
32.549898
 31
0.0
 11
5.722110
 21
31.125290
 31
0.0
  0
LINE
  5
13b
100
AcDbEntity
  8
Layer_1
 62
1
100
AcDbLine
 10
79.648505
 20
16.771183
 30
0.0
 11
79.032467
 21
16.771183
 31
0.0
  0
SPLINE
  5
13c
100
AcDbEntity
  8
Layer_1
 62
1
100
AcDbSpline
 70
0
 71
3
 72
31
 73
27
 74
25
 40
0.000000
 40
0.000000
 40
0.000000
 40
0.000000
 40
0.090896
 40
0.175668
 40
0.258215
 40
0.341288
 40
0.429318
 40
0.525984
 40
0.674623
 40
0.805350
 40
0.932359
 40
1.037551
 40
1.148613
 40
1.270577
 40
1.414035
 40
1.541048
 40
1.659897
 40
1.773879
 40
1.884681
 40
2.001588
 40
2.131027
 40
2.249339
 40
2.367074
 40
2.493007
 40
2.637855
 40
2.810360
 40
2.810360
 40
2.810360
 40
2.810360
 10
79.635382
 20
16.632050
 30
0.0
 10
79.623996
 20
16.603868
 30
0.0
 10
79.601992
 20
16.549404
 30
0.0
 10
79.550589
 20
16.479246
 30
0.0
 10
79.487507
 20
16.423580
 30
0.0
 10
79.411935
 20
16.383924
 30
0.0
 10
79.325039
 20
16.360788
 30
0.0
 10
79.213828
 20
16.353042
 30
0.0
 10
79.087767
 20
16.365591
 30
0.0
 10
78.960531
 20
16.419315
 30
0.0
 10
78.871828
 20
16.505575
 30
0.0
 10
78.816767
 20
16.607084
 30
0.0
 10
78.786167
 20
16.716498
 30
0.0
 10
78.777047
 20
16.842231
 30
0.0
 10
78.787732
 20
16.973349
 30
0.0
 10
78.827443
 20
17.098548
 30
0.0
 10
78.896207
 20
17.198819
 30
0.0
 10
78.984935
 20
17.273532
 30
0.0
 10
79.091233
 20
17.319193
 30
0.0
 10
79.210799
 20
17.332175
 30
0.0
 10
79.332884
 20
17.319118
 30
0.0
 10
79.447305
 20
17.272157
 30
0.0
 10
79.540757
 20
17.192528
 30
0.0
 10
79.608515
 20
17.079753
 30
0.0
 10
79.645531
 20
16.934790
 30
0.0
 10
79.647458
 20
16.828798
 30
0.0
 10
79.648505
 20
16.771183
 30
0.0
 11
79.635382
 21
16.632050
 31
0.0
 11
79.597753
 21
16.549309
 31
0.0
 11
79.547875
 21
16.480762
 31
0.0
 11
79.485747
 21
16.426411
 31
0.0
 11
79.412340
 21
16.387520
 31
0.0
 11
79.327460
 21
16.364185
 31
0.0
 11
79.231107
 21
16.356406
 31
0.0
 11
79.083513
 21
16.374005
 31
0.0
 11
78.963921
 21
16.426800
 31
0.0
 11
78.872332
 21
16.514792
 31
0.0
 11
78.821287
 21
16.606769
 31
0.0
 11
78.790660
 21
16.713525
 31
0.0
 11
78.780451
 21
16.835061
 31
0.0
 11
78.793869
 21
16.977890
 31
0.0
 11
78.834121
 21
17.098357
 31
0.0
 11
78.901209
 21
17.196460
 31
0.0
 11
78.988813
 21
17.269380
 31
0.0
 11
79.090611
 21
17.313132
 31
0.0
 11
79.206604
 21
17.327716
 31
0.0
 11
79.335140
 21
17.312452
 31
0.0
 11
79.444230
 21
17.266657
 31
0.0
 11
79.533875
 21
17.190333
 31
0.0
 11
79.599892
 21
17.083091
 31
0.0
 11
79.638103
 21
16.943374
 31
0.0
 11
79.648505
 21
16.771183
 31
0.0
  0
LINE
  5
13d
100
AcDbEntity
  8
Layer_1
 62
1
100
AcDbLine
 10
79.390365
 20
16.673178
 30
0.0
 11
79.390365
 21
16.673178
 31
0.0
  0
SPLINE
  5
13e
100
AcDbEntity
  8
Layer_1
 62
1
100
AcDbSpline
 70
0
 71
3
 72
19
 73
15
 74
13
 40
0.000000
 40
0.000000
 40
0.000000
 40
0.000000
 40
0.068015
 40
0.128252
 40
0.184398
 40
0.237395
 40
0.288756
 40
0.342651
 40
0.379279
 40
0.413316
 40
0.446584
 40
0.481519
 40
0.520740
 40
0.565896
 40
0.565896
 40
0.565896
 40
0.565896
 10
79.032467
 20
16.771183
 30
0.0
 10
79.034005
 20
16.748490
 30
0.0
 10
79.036904
 20
16.705699
 30
0.0
 10
79.057063
 20
16.646759
 30
0.0
 10
79.089335
 20
16.599575
 30
0.0
 10
79.131232
 20
16.565144
 30
0.0
 10
79.180438
 20
16.544197
 30
0.0
 10
79.227980
 20
16.538695
 30
0.0
 10
79.269582
 20
16.542187
 30
0.0
 10
79.302894
 20
16.552820
 30
0.0
 10
79.332267
 20
16.570833
 30
0.0
 10
79.356993
 20
16.597253
 30
0.0
 10
79.376970
 20
16.632043
 30
0.0
 10
79.385695
 20
16.658838
 30
0.0
 10
79.390365
 20
16.673178
 30
0.0
 11
79.032467
 21
16.771183
 31
0.0
 11
79.040208
 21
16.703609
 31
0.0
 11
79.060042
 21
16.646731
 31
0.0
 11
79.091971
 21
16.600548
 31
0.0
 11
79.133002
 21
16.567004
 31
0.0
 11
79.180255
 21
16.546878
 31
0.0
 11
79.233731
 21
16.540170
 31
0.0
 11
79.270192
 21
16.543670
 31
0.0
 11
79.302569
 21
16.554170
 31
0.0
 11
79.330861
 21
16.571671
 31
0.0
 11
79.354974
 21
16.596950
 31
0.0
 11
79.374809
 21
16.630786
 31
0.0
 11
79.390365
 21
16.673178
 31
0.0
  0
LINE
  5
13f
100
AcDbEntity
  8
Layer_1
 62
1
100
AcDbLine
 10
79.036842
 20
16.921692
 30
0.0
 11
79.404363
 21
16.921692
 31
0.0
  0
LINE
  5
140
100
AcDbEntity
  8
Layer_1
 62
1
100
AcDbLine
 10
80.695072
 20
16.377409
 30
0.0
 11
80.449181
 21
16.377409
 31
0.0
  0
LINE
  5
141
100
AcDbEntity
  8
Layer_1
 62
1
100
AcDbLine
 10
80.449181
 20
16.377409
 30
0.0
 11
80.449181
 21
16.851686
 31
0.0
  0
SPLINE
  5
142
100
AcDbEntity
  8
Layer_1
 62
1
100
AcDbSpline
 70
0
 71
3
 72
19
 73
15
 74
13
 40
0.000000
 40
0.000000
 40
0.000000
 40
0.000000
 40
0.065835
 40
0.122840
 40
0.174566
 40
0.223315
 40
0.269812
 40
0.317859
 40
0.368836
 40
0.417288
 40
0.467423
 40
0.519954
 40
0.575760
 40
0.638410
 40
0.638410
 40
0.638410
 40
0.638410
 10
79.404363
 20
16.921692
 30
0.0
 10
79.402922
 20
16.943645
 30
0.0
 10
79.400234
 20
16.984607
 30
0.0
 10
79.381908
 20
17.040711
 30
0.0
 10
79.351562
 20
17.084368
 30
0.0
 10
79.313553
 20
17.116192
 30
0.0
 10
79.269222
 20
17.135796
 30
0.0
 10
79.220497
 20
17.141543
 30
0.0
 10
79.171109
 20
17.135690
 30
0.0
 10
79.124765
 20
17.115319
 30
0.0
 10
79.086160
 20
17.081893
 30
0.0
 10
79.056658
 20
17.037322
 30
0.0
 10
79.039120
 20
16.982223
 30
0.0
 10
79.037630
 20
16.942631
 30
0.0
 10
79.036842
 20
16.921692
 30
0.0
 11
79.404363
 21
16.921692
 31
0.0
 11
79.397109
 21
16.987126
 31
0.0
 11
79.378732
 21
17.041088
 31
0.0
 11
79.349234
 21
17.083577
 31
0.0
 11
79.311704
 21
17.114691
 31
0.0
 11
79.269119
 21
17.133359
 31
0.0
 11
79.221477
 21
17.139581
 31
0.0
 11
79.170918
 21
17.133067
 31
0.0
 11
79.126582
 21
17.113524
 31
0.0
 11
79.088469
 21
17.080952
 31
0.0
 11
79.059397
 21
17.037200
 31
0.0
 11
79.042188
 21
16.984113
 31
0.0
 11
79.036842
 21
16.921692
 31
0.0
  0
LINE
  5
143
100
AcDbEntity
  8
Layer_1
 62
1
100
AcDbLine
 10
80.093917
 20
16.798304
 30
0.0
 11
80.093917
 21
16.377404
 31
0.0
  0
LINE
  5
144
100
AcDbEntity
  8
Layer_1
 62
1
100
AcDbLine
 10
80.093917
 20
16.377404
 30
0.0
 11
79.848028
 21
16.377404
 31
0.0
  0
LINE
  5
145
100
AcDbEntity
  8
Layer_1
 62
1
100
AcDbLine
 10
79.848028
 20
16.377404
 30
0.0
 11
79.848028
 21
17.306711
 31
0.0
  0
LINE
  5
146
100
AcDbEntity
  8
Layer_1
 62
1
100
AcDbLine
 10
79.848028
 20
17.306711
 30
0.0
 11
80.076416
 21
17.306711
 31
0.0
  0
LINE
  5
147
100
AcDbEntity
  8
Layer_1
 62
1
100
AcDbLine
 10
80.076416
 20
17.306711
 30
0.0
 11
80.076416
 21
17.170202
 31
0.0
  0
SPLINE
  5
148
100
AcDbEntity
  8
Layer_1
 62
1
100
AcDbSpline
 70
0
 71
3
 72
25
 73
21
 74
19
 40
0.000000
 40
0.000000
 40
0.000000
 40
0.000000
 40
0.088496
 40
0.153463
 40
0.195414
 40
0.225734
 40
0.254494
 40
0.283043
 40
0.311497
 40
0.340946
 40
0.372662
 40
0.413972
 40
0.453925
 40
0.494223
 40
0.534085
 40
0.572821
 40
0.612330
 40
0.662765
 40
0.734199
 40
0.827171
 40
0.827171
 40
0.827171
 40
0.827171
 10
80.449181
 20
16.851686
 30
0.0
 10
80.448934
 20
16.881198
 30
0.0
 10
80.448507
 20
16.932373
 30
0.0
 10
80.444093
 20
16.997330
 30
0.0
 10
80.436155
 20
17.042737
 30
0.0
 10
80.421808
 20
17.073523
 30
0.0
 10
80.404355
 20
17.097217
 30
0.0
 10
80.382372
 20
17.115851
 30
0.0
 10
80.356935
 20
17.129840
 30
0.0
 10
80.327935
 20
17.137989
 30
0.0
 10
80.293724
 20
17.140591
 30
0.0
 10
80.255985
 20
17.137131
 30
0.0
 10
80.216919
 20
17.125285
 30
0.0
 10
80.181679
 20
17.105726
 30
0.0
 10
80.151141
 20
17.080005
 30
0.0
 10
80.127265
 20
17.048312
 30
0.0
 10
80.109316
 20
17.008895
 30
0.0
 10
80.100283
 20
16.955506
 30
0.0
 10
80.094678
 20
16.884140
 30
0.0
 10
80.094192
 20
16.829311
 30
0.0
 10
80.093917
 20
16.798304
 30
0.0
 11
80.449181
 21
16.851686
 31
0.0
 11
80.447431
 21
16.940165
 31
0.0
 11
80.442182
 21
17.004919
 31
0.0
 11
80.433433
 21
17.045948
 31
0.0
 11
80.420697
 21
17.073464
 31
0.0
 11
80.403488
 21
17.096508
 31
0.0
 11
80.381806
 21
17.115079
 31
0.0
 11
80.356817
 21
17.128688
 31
0.0
 11
80.328523
 21
17.136854
 31
0.0
 11
80.296925
 21
17.139576
 31
0.0
 11
80.255797
 21
17.135686
 31
0.0
 11
80.217586
 21
17.124018
 31
0.0
 11
80.182292
 21
17.104572
 31
0.0
 11
80.151957
 21
17.078709
 31
0.0
 11
80.128623
 21
17.047791
 31
0.0
 11
80.112289
 21
17.011817
 31
0.0
 11
80.102082
 21
16.962424
 31
0.0
 11
80.095958
 21
16.891254
 31
0.0
 11
80.093917
 21
16.798304
 31
0.0
  0
LINE
  5
149
100
AcDbEntity
  8
Layer_1
 62
1
100
AcDbLine
 10
80.695078
 20
16.954937
 30
0.0
 11
80.695072
 21
16.377409
 31
0.0
  0
LINE
  5
14a
100
AcDbEntity
  8
Layer_1
 62
1
100
AcDbLine
 10
81.556999
 20
16.377409
 30
0.0
 11
81.556999
 21
16.516542
 31
0.0
  0
SPLINE
  5
14b
100
AcDbEntity
  8
Layer_1
 62
1
100
AcDbSpline
 70
0
 71
3
 72
22
 73
18
 74
16
 40
0.000000
 40
0.000000
 40
0.000000
 40
0.000000
 40
0.124164
 40
0.238963
 40
0.356367
 40
0.409167
 40
0.459736
 40
0.509063
 40
0.555373
 40
0.597319
 40
0.636190
 40
0.674159
 40
0.712133
 40
0.750921
 40
0.795646
 40
0.850971
 40
0.917203
 40
0.917203
 40
0.917203
 40
0.917203
 10
80.076416
 20
17.170202
 30
0.0
 10
80.104008
 20
17.201459
 30
0.0
 10
80.157111
 20
17.261615
 30
0.0
 10
80.265649
 20
17.316716
 30
0.0
 10
80.361184
 20
17.330133
 30
0.0
 10
80.434772
 20
17.325631
 30
0.0
 10
80.484919
 20
17.315834
 30
0.0
 10
80.530897
 20
17.299220
 30
0.0
 10
80.571999
 20
17.278620
 30
0.0
 10
80.606666
 20
17.253796
 30
0.0
 10
80.633600
 20
17.224444
 30
0.0
 10
80.654643
 20
17.192324
 30
0.0
 10
80.670911
 20
17.157552
 30
0.0
 10
80.682333
 20
17.118568
 30
0.0
 10
80.690032
 20
17.072858
 30
0.0
 10
80.694369
 20
17.017540
 30
0.0
 10
80.694828
 20
16.977017
 30
0.0
 10
80.695078
 20
16.954937
 30
0.0
 11
80.076416
 21
17.170202
 31
0.0
 11
80.164505
 21
17.257707
 31
0.0
 11
80.266595
 21
17.310210
 31
0.0
 11
80.382686
 21
17.327711
 31
0.0
 11
80.435383
 21
17.324405
 31
0.0
 11
80.484970
 21
17.314488
 31
0.0
 11
80.531446
 21
17.297959
 31
0.0
 11
80.572670
 21
17.276860
 31
0.0
 11
80.606504
 21
17.252067
 31
0.0
 11
80.632950
 21
17.223579
 31
0.0
 11
80.653855
 21
17.191883
 31
0.0
 11
80.669898
 21
17.157464
 31
0.0
 11
80.681080
 21
17.120322
 31
0.0
 11
80.688857
 21
17.076279
 31
0.0
 11
80.693523
 21
17.021151
 31
0.0
 11
80.695078
 21
16.954937
 31
0.0
  0
LINE
  5
14c
100
AcDbEntity
  8
Layer_1
 62
1
100
AcDbLine
 10
80.940086
 20
16.718681
 30
0.0
 11
80.940086
 21
17.306716
 31
0.0
  0
LINE
  5
14d
100
AcDbEntity
  8
Layer_1
 62
1
100
AcDbLine
 10
80.940086
 20
17.306716
 30
0.0
 11
81.185975
 21
17.306716
 31
0.0
  0
LINE
  5
14e
100
AcDbEntity
  8
Layer_1
 62
1
100
AcDbLine
 10
81.185975
 20
17.306716
 30
0.0
 11
81.185975
 21
16.879689
 31
0.0
  0
SPLINE
  5
14f
100
AcDbEntity
  8
Layer_1
 62
1
100
AcDbSpline
 70
0
 71
3
 72
22
 73
18
 74
16
 40
0.000000
 40
0.000000
 40
0.000000
 40
0.000000
 40
0.059373
 40
0.118697
 40
0.179649
 40
0.240418
 40
0.300196
 40
0.360568
 40
0.421024
 40
0.478682
 40
0.535229
 40
0.589952
 40
0.642579
 40
0.695691
 40
0.754571
 40
0.824007
 40
0.905277
 40
0.905277
 40
0.905277
 40
0.905277
 10
81.556999
 20
16.516542
 30
0.0
 10
81.545051
 20
16.500705
 30
0.0
 10
81.521166
 20
16.469044
 30
0.0
 10
81.475398
 20
16.429742
 30
0.0
 10
81.423865
 20
16.398002
 30
0.0
 10
81.368057
 20
16.373999
 30
0.0
 10
81.309226
 20
16.359493
 30
0.0
 10
81.248956
 20
16.354910
 30
0.0
 10
81.189380
 20
16.359221
 30
0.0
 10
81.132506
 20
16.372963
 30
0.0
 10
81.080692
 20
16.395742
 30
0.0
 10
81.035193
 20
16.426663
 30
0.0
 10
80.998361
 20
16.466081
 30
0.0
 10
80.970649
 20
16.513992
 30
0.0
 10
80.952483
 20
16.572042
 30
0.0
 10
80.941775
 20
16.641308
 30
0.0
 10
80.940678
 20
16.691574
 30
0.0
 10
80.940086
 20
16.718681
 30
0.0
 11
81.556999
 21
16.516542
 31
0.0
 11
81.519566
 21
16.470456
 31
0.0
 11
81.474939
 21
16.431370
 31
0.0
 11
81.423115
 21
16.399284
 31
0.0
 11
81.367210
 21
16.375463
 31
0.0
 11
81.309165
 21
16.361170
 31
0.0
 11
81.248982
 21
16.356406
 31
0.0
 11
81.188699
 21
16.360976
 31
0.0
 11
81.132695
 21
16.374685
 31
0.0
 11
81.080969
 21
16.397534
 31
0.0
 11
81.035952
 21
16.428648
 31
0.0
 11
81.000075
 21
16.467151
 31
0.0
 11
80.973338
 21
16.513042
 31
0.0
 11
80.954865
 21
16.568949
 31
0.0
 11
80.943781
 21
16.637495
 31
0.0
 11
80.940086
 21
16.718681
 31
0.0
  0
LINE
  5
150
100
AcDbEntity
  8
Layer_1
 62
1
100
AcDbLine
 10
81.539493
 20
16.914698
 30
0.0
 11
81.539493
 21
17.306722
 31
0.0
  0
LINE
  5
151
100
AcDbEntity
  8
Layer_1
 62
1
100
AcDbLine
 10
81.539493
 20
17.306722
 30
0.0
 11
81.785384
 21
17.306722
 31
0.0
  0
LINE
  5
152
100
AcDbEntity
  8
Layer_1
 62
1
100
AcDbLine
 10
81.785384
 20
17.306722
 30
0.0
 11
81.785384
 21
16.377415
 31
0.0
  0
LINE
  5
153
100
AcDbEntity
  8
Layer_1
 62
1
100
AcDbLine
 10
81.785384
 20
16.377415
 30
0.0
 11
81.556999
 21
16.377409
 31
0.0
  0
LINE
  5
154
100
AcDbEntity
  8
Layer_1
 62
1
100
AcDbLine
 10
81.909647
 20
16.355531
 30
0.0
 11
82.227291
 21
17.682114
 31
0.0
  0
LINE
  5
155
100
AcDbEntity
  8
Layer_1
 62
1
100
AcDbLine
 10
82.227291
 20
17.682114
 30
0.0
 11
82.411926
 21
17.682114
 31
0.0
  0
LINE
  5
156
100
AcDbEntity
  8
Layer_1
 62
1
100
AcDbLine
 10
82.411926
 20
17.682114
 30
0.0
 11
82.090783
 21
16.355531
 31
0.0
  0
LINE
  5
157
100
AcDbEntity
  8
Layer_1
 62
1
100
AcDbLine
 10
82.090783
 20
16.355531
 30
0.0
 11
81.909647
 21
16.355531
 31
0.0
  0
LINE
  5
158
100
AcDbEntity
  8
Layer_1
 62
1
100
AcDbLine
 10
82.474057
 20
16.794810
 30
0.0
 11
82.726073
 21
16.819307
 31
0.0
  0
SPLINE
  5
159
100
AcDbEntity
  8
Layer_1
 62
1
100
AcDbSpline
 70
0
 71
3
 72
25
 73
21
 74
19
 40
0.000000
 40
0.000000
 40
0.000000
 40
0.000000
 40
0.113863
 40
0.194196
 40
0.241335
 40
0.270992
 40
0.299644
 40
0.328625
 40
0.358250
 40
0.389742
 40
0.424470
 40
0.465190
 40
0.504499
 40
0.544049
 40
0.582966
 40
0.619500
 40
0.655244
 40
0.707108
 40
0.791045
 40
0.907641
 40
0.907641
 40
0.907641
 40
0.907641
 10
81.185975
 20
16.879689
 30
0.0
 10
81.186104
 20
16.841699
 30
0.0
 10
81.186322
 20
16.776906
 30
0.0
 10
81.190475
 20
16.696804
 30
0.0
 10
81.195544
 20
16.644137
 30
0.0
 10
81.209845
 20
16.611605
 30
0.0
 10
81.226781
 20
16.587744
 30
0.0
 10
81.248439
 20
16.567916
 30
0.0
 10
81.275199
 20
16.553632
 30
0.0
 10
81.306275
 20
16.545267
 30
0.0
 10
81.341983
 20
16.542676
 30
0.0
 10
81.380314
 20
16.546024
 30
0.0
 10
81.418766
 20
16.557600
 30
0.0
 10
81.453429
 20
16.576607
 30
0.0
 10
81.482943
 20
16.601464
 30
0.0
 10
81.506291
 20
16.630521
 30
0.0
 10
81.525044
 20
16.667956
 30
0.0
 10
81.533447
 20
16.725120
 30
0.0
 10
81.538820
 20
16.808904
 30
0.0
 10
81.539245
 20
16.875802
 30
0.0
 10
81.539493
 20
16.914698
 30
0.0
 11
81.185975
 21
16.879689
 31
0.0
 11
81.187434
 21
16.765834
 31
0.0
 11
81.191808
 21
16.685621
 31
0.0
 11
81.199099
 21
16.639049
 31
0.0
 11
81.210862
 21
16.611825
 31
0.0
 11
81.227489
 21
16.588491
 31
0.0
 11
81.248979
 21
16.569047
 31
0.0
 11
81.275035
 21
16.554951
 31
0.0
 11
81.305370
 21
16.546494
 31
0.0
 11
81.339984
 21
16.543675
 31
0.0
 11
81.380528
 21
16.547467
 31
0.0
 11
81.418155
 21
16.558842
 31
0.0
 11
81.452864
 21
16.577801
 31
0.0
 11
81.482617
 21
16.602886
 31
0.0
 11
81.505369
 21
16.631471
 31
0.0
 11
81.521120
 21
16.663557
 31
0.0
 11
81.531327
 21
16.714407
 31
0.0
 11
81.537451
 21
16.798121
 31
0.0
 11
81.539493
 21
16.914698
 31
0.0
  0
LINE
  5
15a
100
AcDbEntity
  8
Layer_1
 62
1
100
AcDbLine
 10
83.480374
 20
17.293587
 30
0.0
 11
83.221359
 21
17.282214
 31
0.0
  0
SPLINE
  5
15b
100
AcDbEntity
  8
Layer_1
 62
1
100
AcDbSpline
 70
0
 71
3
 72
49
 73
45
 74
43
 40
0.000000
 40
0.000000
 40
0.000000
 40
0.000000
 40
0.079734
 40
0.149001
 40
0.211445
 40
0.273077
 40
0.338851
 40
0.412555
 40
0.489296
 40
0.554405
 40
0.611348
 40
0.663001
 40
0.709573
 40
0.755434
 40
0.784371
 40
0.811585
 40
0.838711
 40
0.868838
 40
0.904955
 40
0.948186
 40
0.993428
 40
1.065033
 40
1.163038
 40
1.293445
 40
1.399652
 40
1.484114
 40
1.584333
 40
1.678962
 40
1.776205
 40
1.840377
 40
1.904048
 40
1.969677
 40
2.037417
 40
2.106251
 40
2.178938
 40
2.257710
 40
2.343310
 40
2.437266
 40
2.585423
 40
2.711513
 40
2.822747
 40
2.927063
 40
3.030576
 40
3.141849
 40
3.141849
 40
3.141849
 40
3.141849
 10
82.726073
 20
16.819307
 30
0.0
 10
82.731784
 20
16.793279
 30
0.0
 10
82.742454
 20
16.744640
 30
0.0
 10
82.773397
 20
16.680486
 30
0.0
 10
82.815616
 20
16.630644
 30
0.0
 10
82.870124
 20
16.596728
 30
0.0
 10
82.934847
 20
16.576965
 30
0.0
 10
83.007130
 20
16.571647
 30
0.0
 10
83.079034
 20
16.576472
 30
0.0
 10
83.143880
 20
16.592986
 30
0.0
 10
83.194428
 20
16.622860
 30
0.0
 10
83.230535
 20
16.660718
 30
0.0
 10
83.253440
 20
16.703793
 30
0.0
 10
83.259566
 20
16.744550
 30
0.0
 10
83.256313
 20
16.778610
 30
0.0
 10
83.247139
 20
16.805150
 30
0.0
 10
83.231149
 20
16.828656
 30
0.0
 10
83.208142
 20
16.850010
 30
0.0
 10
83.176322
 20
16.868303
 30
0.0
 10
83.137860
 20
16.884196
 30
0.0
 10
83.086524
 20
16.898922
 30
0.0
 10
83.017404
 20
16.917621
 30
0.0
 10
82.920237
 20
16.941286
 30
0.0
 10
82.812725
 20
16.971337
 30
0.0
 10
82.713382
 20
17.012340
 30
0.0
 10
82.631875
 20
17.066265
 30
0.0
 10
82.570117
 20
17.137784
 30
0.0
 10
82.528554
 20
17.227304
 30
0.0
 10
82.517578
 20
17.313230
 30
0.0
 10
82.524374
 20
17.388329
 30
0.0
 10
82.543288
 20
17.450459
 30
0.0
 10
82.574144
 20
17.508861
 30
0.0
 10
82.616789
 20
17.561683
 30
0.0
 10
82.671464
 20
17.605782
 30
0.0
 10
82.736732
 20
17.640308
 30
0.0
 10
82.812227
 20
17.664746
 30
0.0
 10
82.897362
 20
17.679296
 30
0.0
 10
83.006652
 20
17.684323
 30
0.0
 10
83.129622
 20
17.676034
 30
0.0
 10
83.254947
 20
17.642357
 30
0.0
 10
83.353552
 20
17.581878
 30
0.0
 10
83.424471
 20
17.500809
 30
0.0
 10
83.469996
 20
17.402434
 30
0.0
 10
83.476833
 20
17.330733
 30
0.0
 10
83.480374
 20
17.293587
 30
0.0
 11
82.726073
 21
16.819307
 31
0.0
 11
82.746392
 21
16.742206
 31
0.0
 11
82.777019
 21
16.680077
 31
0.0
 11
82.817954
 21
16.632922
 31
0.0
 11
82.869970
 21
16.599864
 31
0.0
 11
82.932681
 21
16.580030
 31
0.0
 11
83.006089
 21
16.573418
 31
0.0
 11
83.082608
 21
16.579252
 31
0.0
 11
83.145321
 21
16.596752
 31
0.0
 11
83.194226
 21
16.625920
 31
0.0
 11
83.229714
 21
16.663451
 31
0.0
 11
83.251007
 21
16.704871
 31
0.0
 11
83.258105
 21
16.750180
 31
0.0
 11
83.255091
 21
16.778959
 31
0.0
 11
83.246051
 21
16.804627
 31
0.0
 11
83.230983
 21
16.827184
 31
0.0
 11
83.209012
 21
16.847796
 31
0.0
 11
83.178093
 21
16.866464
 31
0.0
 11
83.138228
 21
16.883188
 31
0.0
 11
83.094961
 21
16.896410
 31
0.0
 11
83.025832
 21
16.915077
 31
0.0
 11
82.930840
 21
16.939189
 31
0.0
 11
82.805804
 21
16.976234
 31
0.0
 11
82.708382
 21
17.018529
 31
0.0
 11
82.638573
 21
17.066074
 31
0.0
 11
82.572944
 21
17.141814
 31
0.0
 11
82.533566
 21
17.227861
 31
0.0
 11
82.520441
 21
17.324214
 31
0.0
 11
82.526566
 21
17.388093
 31
0.0
 11
82.544941
 21
17.449055
 31
0.0
 11
82.575567
 21
17.507100
 31
0.0
 11
82.618251
 21
17.559700
 31
0.0
 11
82.671629
 21
17.603162
 31
0.0
 11
82.735703
 21
17.637483
 31
0.0
 11
82.810471
 21
17.662277
 31
0.0
 11
82.894768
 21
17.677153
 31
0.0
 11
82.988594
 21
17.682111
 31
0.0
 11
83.136283
 21
17.670347
 31
0.0
 11
83.257332
 21
17.635053
 31
0.0
 11
83.351740
 21
17.576230
 31
0.0
 11
83.420482
 21
17.497767
 31
0.0
 11
83.463360
 21
17.403553
 31
0.0
 11
83.480374
 21
17.293587
 31
0.0
  0
LINE
  5
15c
100
AcDbEntity
  8
Layer_1
 62
1
100
AcDbLine
 10
82.474063
 20
16.794810
 30
0.0
 11
82.474057
 21
16.794810
 31
0.0
  0
LINE
  5
15d
100
AcDbEntity
  8
Layer_1
 62
1
100
AcDbLine
 10
84.273168
 20
16.673178
 30
0.0
 11
84.518184
 21
16.632050
 31
0.0
  0
SPLINE
  5
15e
100
AcDbEntity
  8
Layer_1
 62
1
100
AcDbSpline
 70
0
 71
3
 72
49
 73
45
 74
43
 40
0.000000
 40
0.000000
 40
0.000000
 40
0.000000
 40
0.061643
 40
0.114605
 40
0.162211
 40
0.210993
 40
0.267454
 40
0.334426
 40
0.404427
 40
0.465341
 40
0.519846
 40
0.551614
 40
0.581489
 40
0.612841
 40
0.642033
 40
0.670992
 40
0.702433
 40
0.758101
 40
0.842432
 40
0.956720
 40
1.075625
 40
1.173675
 40
1.251496
 40
1.317961
 40
1.382162
 40
1.446294
 40
1.512087
 40
1.582194
 40
1.659121
 40
1.731392
 40
1.803194
 40
1.877207
 40
1.952099
 40
2.027091
 40
2.105387
 40
2.190193
 40
2.284516
 40
2.389941
 40
2.540091
 40
2.670116
 40
2.787442
 40
2.902194
 40
3.023273
 40
3.158463
 40
3.158463
 40
3.158463
 40
3.158463
 10
83.221359
 20
17.282214
 30
0.0
 10
83.217123
 20
17.302377
 30
0.0
 10
83.209248
 20
17.339863
 30
0.0
 10
83.185121
 20
17.389056
 30
0.0
 10
83.150890
 20
17.426239
 30
0.0
 10
83.105745
 20
17.451471
 30
0.0
 10
83.049520
 20
17.465260
 30
0.0
 10
82.984967
 20
17.469114
 30
0.0
 10
82.918875
 20
17.465037
 30
0.0
 10
82.858522
 20
17.449942
 30
0.0
 10
82.814288
 20
17.427403
 30
0.0
 10
82.785294
 20
17.400942
 30
0.0
 10
82.770812
 20
17.372756
 30
0.0
 10
82.766701
 20
17.342440
 30
0.0
 10
82.770773
 20
17.312439
 30
0.0
 10
82.784471
 20
17.285341
 30
0.0
 10
82.811415
 20
17.256832
 30
0.0
 10
82.863172
 20
17.230666
 30
0.0
 10
82.943259
 20
17.203226
 30
0.0
 10
83.046119
 20
17.177708
 30
0.0
 10
83.153272
 20
17.151106
 30
0.0
 10
83.246824
 20
17.120693
 30
0.0
 10
83.321176
 20
17.088673
 30
0.0
 10
83.380575
 20
17.051958
 30
0.0
 10
83.428689
 20
17.007742
 30
0.0
 10
83.467481
 20
16.955525
 30
0.0
 10
83.497023
 20
16.895219
 30
0.0
 10
83.513728
 20
16.825794
 30
0.0
 10
83.519125
 20
16.752626
 30
0.0
 10
83.512801
 20
16.678807
 30
0.0
 10
83.491729
 20
16.608711
 30
0.0
 10
83.457672
 20
16.543066
 30
0.0
 10
83.411341
 20
16.483879
 30
0.0
 10
83.352141
 20
16.435218
 30
0.0
 10
83.281577
 20
16.397798
 30
0.0
 10
83.199166
 20
16.372497
 30
0.0
 10
83.105256
 20
16.357546
 30
0.0
 10
82.988589
 20
16.352362
 30
0.0
 10
82.859731
 20
16.361120
 30
0.0
 10
82.730997
 20
16.397440
 30
0.0
 10
82.626452
 20
16.461453
 30
0.0
 10
82.548977
 20
16.552206
 30
0.0
 10
82.495501
 20
16.665586
 30
0.0
 10
82.481467
 20
16.750183
 30
0.0
 10
82.474063
 20
16.794810
 30
0.0
 11
83.221359
 21
17.282214
 31
0.0
 11
83.205999
 21
17.341912
 31
0.0
 11
83.182080
 21
17.389166
 31
0.0
 11
83.149604
 21
17.423974
 31
0.0
 11
83.107309
 21
17.448281
 31
0.0
 11
83.052764
 21
17.462865
 31
0.0
 11
82.985969
 21
17.467727
 31
0.0
 11
82.916158
 21
17.462574
 31
0.0
 11
82.857238
 21
17.447114
 31
0.0
 11
82.809208
 21
17.421349
 31
0.0
 11
82.786359
 21
17.399278
 31
0.0
 11
82.772649
 21
17.372734
 31
0.0
 11
82.768079
 21
17.341717
 31
0.0
 11
82.772357
 21
17.312841
 31
0.0
 11
82.785192
 21
17.286881
 31
0.0
 11
82.806583
 21
17.263838
 31
0.0
 11
82.854808
 21
17.236030
 31
0.0
 11
82.934146
 21
17.207445
 31
0.0
 11
83.044598
 21
17.178082
 31
0.0
 11
83.159619
 21
17.147941
 31
0.0
 11
83.252667
 21
17.117023
 31
0.0
 11
83.323741
 21
17.085327
 31
0.0
 11
83.379939
 21
17.049839
 31
0.0
 11
83.427191
 21
17.006377
 31
0.0
 11
83.465498
 21
16.954943
 31
0.0
 11
83.494182
 21
16.895732
 31
0.0
 11
83.511392
 21
16.827770
 31
0.0
 11
83.517128
 21
16.751057
 31
0.0
 11
83.510322
 21
16.679108
 31
0.0
 11
83.489903
 21
16.610270
 31
0.0
 11
83.455872
 21
16.544544
 31
0.0
 11
83.409397
 21
16.485817
 31
0.0
 11
83.351644
 21
16.437981
 31
0.0
 11
83.282613
 21
16.401034
 31
0.0
 11
83.201815
 21
16.375269
 31
0.0
 11
83.108768
 21
16.359809
 31
0.0
 11
83.003470
 21
16.354656
 31
0.0
 11
82.853836
 21
16.367102
 31
0.0
 11
82.729286
 21
16.404438
 31
0.0
 11
82.629821
 21
16.466665
 31
0.0
 11
82.554567
 21
16.553294
 31
0.0
 11
82.502647
 21
16.662676
 31
0.0
 11
82.474063
 21
16.794810
 31
0.0
  0
LINE
  5
15f
100
AcDbEntity
  8
Layer_1
 62
1
100
AcDbLine
 10
84.531308
 20
16.771183
 30
0.0
 11
83.915270
 21
16.771183
 31
0.0
  0
SPLINE
  5
160
100
AcDbEntity
  8
Layer_1
 62
1
100
AcDbSpline
 70
0
 71
3
 72
31
 73
27
 74
25
 40
0.000000
 40
0.000000
 40
0.000000
 40
0.000000
 40
0.090896
 40
0.175668
 40
0.258215
 40
0.341288
 40
0.429318
 40
0.525984
 40
0.674623
 40
0.805349
 40
0.932357
 40
1.037549
 40
1.148612
 40
1.270575
 40
1.414034
 40
1.541047
 40
1.659896
 40
1.773878
 40
1.884680
 40
2.001586
 40
2.131025
 40
2.249338
 40
2.367072
 40
2.493006
 40
2.637854
 40
2.810359
 40
2.810359
 40
2.810359
 40
2.810359
 10
84.518184
 20
16.632050
 30
0.0
 10
84.506799
 20
16.603868
 30
0.0
 10
84.484795
 20
16.549404
 30
0.0
 10
84.433391
 20
16.479246
 30
0.0
 10
84.370310
 20
16.423580
 30
0.0
 10
84.294738
 20
16.383924
 30
0.0
 10
84.207842
 20
16.360788
 30
0.0
 10
84.096631
 20
16.353042
 30
0.0
 10
83.970570
 20
16.365591
 30
0.0
 10
83.843334
 20
16.419315
 30
0.0
 10
83.754634
 20
16.505576
 30
0.0
 10
83.699571
 20
16.607083
 30
0.0
 10
83.668970
 20
16.716498
 30
0.0
 10
83.659850
 20
16.842231
 30
0.0
 10
83.670534
 20
16.973349
 30
0.0
 10
83.710245
 20
17.098548
 30
0.0
 10
83.779010
 20
17.198819
 30
0.0
 10
83.867738
 20
17.273532
 30
0.0
 10
83.974036
 20
17.319193
 30
0.0
 10
84.093602
 20
17.332175
 30
0.0
 10
84.215687
 20
17.319118
 30
0.0
 10
84.330108
 20
17.272157
 30
0.0
 10
84.423559
 20
17.192528
 30
0.0
 10
84.491318
 20
17.079753
 30
0.0
 10
84.528334
 20
16.934790
 30
0.0
 10
84.530261
 20
16.828798
 30
0.0
 10
84.531308
 20
16.771183
 30
0.0
 11
84.518184
 21
16.632050
 31
0.0
 11
84.480556
 21
16.549309
 31
0.0
 11
84.430678
 21
16.480762
 31
0.0
 11
84.368550
 21
16.426411
 31
0.0
 11
84.295143
 21
16.387520
 31
0.0
 11
84.210262
 21
16.364185
 31
0.0
 11
84.113910
 21
16.356406
 31
0.0
 11
83.966316
 21
16.374005
 31
0.0
 11
83.846725
 21
16.426800
 31
0.0
 11
83.755137
 21
16.514792
 31
0.0
 11
83.704091
 21
16.606769
 31
0.0
 11
83.673464
 21
16.713525
 31
0.0
 11
83.663254
 21
16.835061
 31
0.0
 11
83.676672
 21
16.977890
 31
0.0
 11
83.716924
 21
17.098357
 31
0.0
 11
83.784012
 21
17.196460
 31
0.0
 11
83.871616
 21
17.269380
 31
0.0
 11
83.973414
 21
17.313132
 31
0.0
 11
84.089407
 21
17.327716
 31
0.0
 11
84.217943
 21
17.312452
 31
0.0
 11
84.327033
 21
17.266657
 31
0.0
 11
84.416678
 21
17.190333
 31
0.0
 11
84.482695
 21
17.083091
 31
0.0
 11
84.520905
 21
16.943374
 31
0.0
 11
84.531308
 21
16.771183
 31
0.0
  0
LINE
  5
161
100
AcDbEntity
  8
Layer_1
 62
1
100
AcDbLine
 10
84.273168
 20
16.673178
 30
0.0
 11
84.273168
 21
16.673178
 31
0.0
  0
SPLINE
  5
162
100
AcDbEntity
  8
Layer_1
 62
1
100
AcDbSpline
 70
0
 71
3
 72
19
 73
15
 74
13
 40
0.000000
 40
0.000000
 40
0.000000
 40
0.000000
 40
0.068015
 40
0.128252
 40
0.184398
 40
0.237395
 40
0.288756
 40
0.342651
 40
0.379279
 40
0.413316
 40
0.446584
 40
0.481519
 40
0.520740
 40
0.565896
 40
0.565896
 40
0.565896
 40
0.565896
 10
83.915270
 20
16.771183
 30
0.0
 10
83.916808
 20
16.748490
 30
0.0
 10
83.919707
 20
16.705699
 30
0.0
 10
83.939866
 20
16.646759
 30
0.0
 10
83.972138
 20
16.599575
 30
0.0
 10
84.014035
 20
16.565144
 30
0.0
 10
84.063241
 20
16.544197
 30
0.0
 10
84.110783
 20
16.538695
 30
0.0
 10
84.152385
 20
16.542187
 30
0.0
 10
84.185697
 20
16.552820
 30
0.0
 10
84.215070
 20
16.570833
 30
0.0
 10
84.239796
 20
16.597253
 30
0.0
 10
84.259772
 20
16.632043
 30
0.0
 10
84.268498
 20
16.658838
 30
0.0
 10
84.273168
 20
16.673178
 30
0.0
 11
83.915270
 21
16.771183
 31
0.0
 11
83.923011
 21
16.703609
 31
0.0
 11
83.942845
 21
16.646731
 31
0.0
 11
83.974774
 21
16.600548
 31
0.0
 11
84.015805
 21
16.567004
 31
0.0
 11
84.063058
 21
16.546878
 31
0.0
 11
84.116534
 21
16.540170
 31
0.0
 11
84.152995
 21
16.543670
 31
0.0
 11
84.185371
 21
16.554170
 31
0.0
 11
84.213664
 21
16.571671
 31
0.0
 11
84.237777
 21
16.596950
 31
0.0
 11
84.257612
 21
16.630786
 31
0.0
 11
84.273168
 21
16.673178
 31
0.0
  0
LINE
  5
163
100
AcDbEntity
  8
Layer_1
 62
1
100
AcDbLine
 10
83.919645
 20
16.921692
 30
0.0
 11
84.287166
 21
16.921692
 31
0.0
  0
LINE
  5
164
100
AcDbEntity
  8
Layer_1
 62
1
100
AcDbLine
 10
84.732572
 20
16.377409
 30
0.0
 11
84.732572
 21
17.660239
 31
0.0
  0
LINE
  5
165
100
AcDbEntity
  8
Layer_1
 62
1
100
AcDbLine
 10
84.732572
 20
17.660239
 30
0.0
 11
84.978461
 21
17.660239
 31
0.0
  0
LINE
  5
166
100
AcDbEntity
  8
Layer_1
 62
1
100
AcDbLine
 10
84.978461
 20
17.660239
 30
0.0
 11
84.978461
 21
16.377409
 31
0.0
  0
LINE
  5
167
100
AcDbEntity
  8
Layer_1
 62
1
100
AcDbLine
 10
84.978461
 20
16.377409
 30
0.0
 11
84.732572
 21
16.377409
 31
0.0
  0
LINE
  5
168
100
AcDbEntity
  8
Layer_1
 62
1
100
AcDbLine
 10
85.767760
 20
16.673178
 30
0.0
 11
86.012777
 21
16.632050
 31
0.0
  0
SPLINE
  5
169
100
AcDbEntity
  8
Layer_1
 62
1
100
AcDbSpline
 70
0
 71
3
 72
19
 73
15
 74
13
 40
0.000000
 40
0.000000
 40
0.000000
 40
0.000000
 40
0.065835
 40
0.122840
 40
0.174566
 40
0.223315
 40
0.269812
 40
0.317859
 40
0.368836
 40
0.417288
 40
0.467423
 40
0.519954
 40
0.575760
 40
0.638410
 40
0.638410
 40
0.638410
 40
0.638410
 10
84.287166
 20
16.921692
 30
0.0
 10
84.285725
 20
16.943645
 30
0.0
 10
84.283037
 20
16.984607
 30
0.0
 10
84.264711
 20
17.040711
 30
0.0
 10
84.234365
 20
17.084368
 30
0.0
 10
84.196356
 20
17.116192
 30
0.0
 10
84.152025
 20
17.135796
 30
0.0
 10
84.103300
 20
17.141543
 30
0.0
 10
84.053912
 20
17.135690
 30
0.0
 10
84.007568
 20
17.115319
 30
0.0
 10
83.968963
 20
17.081893
 30
0.0
 10
83.939461
 20
17.037322
 30
0.0
 10
83.921923
 20
16.982223
 30
0.0
 10
83.920433
 20
16.942631
 30
0.0
 10
83.919645
 20
16.921692
 30
0.0
 11
84.287166
 21
16.921692
 31
0.0
 11
84.279911
 21
16.987126
 31
0.0
 11
84.261535
 21
17.041088
 31
0.0
 11
84.232037
 21
17.083577
 31
0.0
 11
84.194507
 21
17.114691
 31
0.0
 11
84.151922
 21
17.133359
 31
0.0
 11
84.104280
 21
17.139581
 31
0.0
 11
84.053721
 21
17.133067
 31
0.0
 11
84.009385
 21
17.113524
 31
0.0
 11
83.971272
 21
17.080952
 31
0.0
 11
83.942200
 21
17.037200
 31
0.0
 11
83.924991
 21
16.984113
 31
0.0
 11
83.919645
 21
16.921692
 31
0.0
  0
LINE
  5
16a
100
AcDbEntity
  8
Layer_1
 62
1
100
AcDbLine
 10
86.025900
 20
16.771183
 30
0.0
 11
85.409863
 21
16.771183
 31
0.0
  0
SPLINE
  5
16b
100
AcDbEntity
  8
Layer_1
 62
1
100
AcDbSpline
 70
0
 71
3
 72
31
 73
27
 74
25
 40
0.000000
 40
0.000000
 40
0.000000
 40
0.000000
 40
0.090896
 40
0.175669
 40
0.258216
 40
0.341289
 40
0.429318
 40
0.525986
 40
0.674624
 40
0.805350
 40
0.932358
 40
1.037550
 40
1.148613
 40
1.270576
 40
1.414034
 40
1.541048
 40
1.659897
 40
1.773877
 40
1.884680
 40
2.001587
 40
2.131026
 40
2.249339
 40
2.367073
 40
2.493007
 40
2.637855
 40
2.810360
 40
2.810360
 40
2.810360
 40
2.810360
 10
86.012777
 20
16.632050
 30
0.0
 10
86.001391
 20
16.603868
 30
0.0
 10
85.979387
 20
16.549404
 30
0.0
 10
85.927983
 20
16.479246
 30
0.0
 10
85.864900
 20
16.423581
 30
0.0
 10
85.789329
 20
16.383923
 30
0.0
 10
85.702432
 20
16.360788
 30
0.0
 10
85.591222
 20
16.353042
 30
0.0
 10
85.465161
 20
16.365591
 30
0.0
 10
85.337925
 20
16.419315
 30
0.0
 10
85.249223
 20
16.505575
 30
0.0
 10
85.194163
 20
16.607084
 30
0.0
 10
85.163563
 20
16.716498
 30
0.0
 10
85.154443
 20
16.842231
 30
0.0
 10
85.165127
 20
16.973349
 30
0.0
 10
85.204838
 20
17.098548
 30
0.0
 10
85.273603
 20
17.198818
 30
0.0
 10
85.362329
 20
17.273532
 30
0.0
 10
85.468628
 20
17.319193
 30
0.0
 10
85.588194
 20
17.332175
 30
0.0
 10
85.710280
 20
17.319118
 30
0.0
 10
85.824700
 20
17.272157
 30
0.0
 10
85.918152
 20
17.192528
 30
0.0
 10
85.985910
 20
17.079753
 30
0.0
 10
86.022927
 20
16.934790
 30
0.0
 10
86.024853
 20
16.828798
 30
0.0
 10
86.025900
 20
16.771183
 30
0.0
 11
86.012777
 21
16.632050
 31
0.0
 11
85.975148
 21
16.549309
 31
0.0
 11
85.925269
 21
16.480762
 31
0.0
 11
85.863140
 21
16.426411
 31
0.0
 11
85.789734
 21
16.387520
 31
0.0
 11
85.704853
 21
16.364185
 31
0.0
 11
85.608499
 21
16.356406
 31
0.0
 11
85.460907
 21
16.374005
 31
0.0
 11
85.341316
 21
16.426800
 31
0.0
 11
85.249727
 21
16.514792
 31
0.0
 11
85.198682
 21
16.606769
 31
0.0
 11
85.168056
 21
16.713525
 31
0.0
 11
85.157847
 21
16.835061
 31
0.0
 11
85.171264
 21
16.977890
 31
0.0
 11
85.211517
 21
17.098357
 31
0.0
 11
85.278604
 21
17.196460
 31
0.0
 11
85.366207
 21
17.269380
 31
0.0
 11
85.468005
 21
17.313132
 31
0.0
 11
85.584000
 21
17.327716
 31
0.0
 11
85.712535
 21
17.312452
 31
0.0
 11
85.821626
 21
17.266657
 31
0.0
 11
85.911270
 21
17.190333
 31
0.0
 11
85.977288
 21
17.083091
 31
0.0
 11
86.015498
 21
16.943374
 31
0.0
 11
86.025900
 21
16.771183
 31
0.0
  0
LINE
  5
16c
100
AcDbEntity
  8
Layer_1
 62
1
100
AcDbLine
 10
85.767760
 20
16.673178
 30
0.0
 11
85.767760
 21
16.673178
 31
0.0
  0
SPLINE
  5
16d
100
AcDbEntity
  8
Layer_1
 62
1
100
AcDbSpline
 70
0
 71
3
 72
19
 73
15
 74
13
 40
0.000000
 40
0.000000
 40
0.000000
 40
0.000000
 40
0.068015
 40
0.128252
 40
0.184398
 40
0.237395
 40
0.288756
 40
0.342651
 40
0.379278
 40
0.413315
 40
0.446584
 40
0.481519
 40
0.520740
 40
0.565896
 40
0.565896
 40
0.565896
 40
0.565896
 10
85.409863
 20
16.771183
 30
0.0
 10
85.411400
 20
16.748490
 30
0.0
 10
85.414299
 20
16.705699
 30
0.0
 10
85.434459
 20
16.646759
 30
0.0
 10
85.466730
 20
16.599575
 30
0.0
 10
85.508627
 20
16.565144
 30
0.0
 10
85.557834
 20
16.544197
 30
0.0
 10
85.605375
 20
16.538695
 30
0.0
 10
85.646977
 20
16.542187
 30
0.0
 10
85.680288
 20
16.552820
 30
0.0
 10
85.709662
 20
16.570833
 30
0.0
 10
85.734388
 20
16.597253
 30
0.0
 10
85.754365
 20
16.632043
 30
0.0
 10
85.763090
 20
16.658838
 30
0.0
 10
85.767760
 20
16.673178
 30
0.0
 11
85.409863
 21
16.771183
 31
0.0
 11
85.417603
 21
16.703609
 31
0.0
 11
85.437438
 21
16.646731
 31
0.0
 11
85.469366
 21
16.600548
 31
0.0
 11
85.510397
 21
16.567004
 31
0.0
 11
85.557651
 21
16.546878
 31
0.0
 11
85.611127
 21
16.540170
 31
0.0
 11
85.647586
 21
16.543670
 31
0.0
 11
85.679963
 21
16.554170
 31
0.0
 11
85.708256
 21
16.571671
 31
0.0
 11
85.732369
 21
16.596950
 31
0.0
 11
85.752204
 21
16.630786
 31
0.0
 11
85.767760
 21
16.673178
 31
0.0
  0
LINE
  5
16e
100
AcDbEntity
  8
Layer_1
 62
1
100
AcDbLine
 10
85.414234
 20
16.921692
 30
0.0
 11
85.781758
 21
16.921692
 31
0.0
  0
LINE
  5
16f
100
AcDbEntity
  8
Layer_1
 62
1
100
AcDbLine
 10
87.037464
 20
17.031950
 30
0.0
 11
86.795074
 21
16.988197
 31
0.0
  0
SPLINE
  5
170
100
AcDbEntity
  8
Layer_1
 62
1
100
AcDbSpline
 70
0
 71
3
 72
19
 73
15
 74
13
 40
0.000000
 40
0.000000
 40
0.000000
 40
0.000000
 40
0.065835
 40
0.122840
 40
0.174566
 40
0.223315
 40
0.269812
 40
0.317859
 40
0.368836
 40
0.417288
 40
0.467423
 40
0.519954
 40
0.575761
 40
0.638411
 40
0.638411
 40
0.638411
 40
0.638411
 10
85.781758
 20
16.921692
 30
0.0
 10
85.780317
 20
16.943645
 30
0.0
 10
85.777629
 20
16.984607
 30
0.0
 10
85.759303
 20
17.040711
 30
0.0
 10
85.728958
 20
17.084368
 30
0.0
 10
85.690949
 20
17.116192
 30
0.0
 10
85.646617
 20
17.135796
 30
0.0
 10
85.597893
 20
17.141543
 30
0.0
 10
85.548505
 20
17.135690
 30
0.0
 10
85.502160
 20
17.115319
 30
0.0
 10
85.463556
 20
17.081893
 30
0.0
 10
85.434053
 20
17.037322
 30
0.0
 10
85.416515
 20
16.982223
 30
0.0
 10
85.415023
 20
16.942631
 30
0.0
 10
85.414234
 20
16.921692
 30
0.0
 11
85.781758
 21
16.921692
 31
0.0
 11
85.774504
 21
16.987126
 31
0.0
 11
85.756127
 21
17.041088
 31
0.0
 11
85.726629
 21
17.083577
 31
0.0
 11
85.689100
 21
17.114691
 31
0.0
 11
85.646514
 21
17.133359
 31
0.0
 11
85.598873
 21
17.139581
 31
0.0
 11
85.548313
 21
17.133067
 31
0.0
 11
85.503977
 21
17.113524
 31
0.0
 11
85.465864
 21
17.080952
 31
0.0
 11
85.436792
 21
17.037200
 31
0.0
 11
85.419582
 21
16.984113
 31
0.0
 11
85.414234
 21
16.921692
 31
0.0
  0
LINE
  5
171
100
AcDbEntity
  8
Layer_1
 62
1
100
AcDbLine
 10
86.808200
 20
16.733557
 30
0.0
 11
87.049715
 21
16.692428
 31
0.0
  0
SPLINE
  5
172
100
AcDbEntity
  8
Layer_1
 62
1
100
AcDbSpline
 70
0
 71
3
 72
31
 73
27
 74
25
 40
0.000000
 40
0.000000
 40
0.000000
 40
0.000000
 40
0.045938
 40
0.086900
 40
0.125247
 40
0.162787
 40
0.202081
 40
0.245442
 40
0.303052
 40
0.356481
 40
0.410582
 40
0.470280
 40
0.543148
 40
0.632995
 40
0.732648
 40
0.812667
 40
0.876754
 40
0.932981
 40
0.987803
 40
1.046534
 40
1.090602
 40
1.131004
 40
1.170240
 40
1.212894
 40
1.263275
 40
1.323647
 40
1.323647
 40
1.323647
 40
1.323647
 10
86.795074
 20
16.988197
 30
0.0
 10
86.791850
 20
17.003214
 30
0.0
 10
86.785751
 20
17.031622
 30
0.0
 10
86.766679
 20
17.069372
 30
0.0
 10
86.740375
 20
17.098680
 30
0.0
 10
86.707772
 20
17.119817
 30
0.0
 10
86.669162
 20
17.132045
 30
0.0
 10
86.622336
 20
17.135912
 30
0.0
 10
86.570557
 20
17.130303
 30
0.0
 10
86.519257
 20
17.108173
 30
0.0
 10
86.476281
 20
17.071124
 30
0.0
 10
86.445259
 20
17.015883
 30
0.0
 10
86.428699
 20
16.942952
 30
0.0
 10
86.424167
 20
16.855416
 30
0.0
 10
86.428778
 20
16.765497
 30
0.0
 10
86.445351
 20
16.685395
 30
0.0
 10
86.476415
 20
16.624900
 30
0.0
 10
86.520483
 20
16.584951
 30
0.0
 10
86.572806
 20
16.561130
 30
0.0
 10
86.625691
 20
16.555097
 30
0.0
 10
86.673538
 20
16.559258
 30
0.0
 10
86.712995
 20
16.572570
 30
0.0
 10
86.747575
 20
16.595276
 30
0.0
 10
86.775049
 20
16.630599
 30
0.0
 10
86.795837
 20
16.677769
 30
0.0
 10
86.803839
 20
16.713875
 30
0.0
 10
86.808200
 20
16.733557
 30
0.0
 11
86.795074
 21
16.988197
 31
0.0
 11
86.783408
 21
17.032629
 31
0.0
 11
86.764740
 21
17.069090
 31
0.0
 11
86.739070
 21
17.097578
 31
0.0
 11
86.707568
 21
17.117995
 31
0.0
 11
86.670233
 21
17.130246
 31
0.0
 11
86.627065
 21
17.134329
 31
0.0
 11
86.569893
 21
17.127232
 31
0.0
 11
86.520890
 21
17.105939
 31
0.0
 11
86.480055
 21
17.070451
 31
0.0
 11
86.449914
 21
17.018920
 31
0.0
 11
86.431829
 21
16.948333
 31
0.0
 11
86.425801
 21
16.858688
 31
0.0
 11
86.431926
 21
16.759224
 31
0.0
 11
86.450303
 21
16.681344
 31
0.0
 11
86.480930
 21
16.625048
 31
0.0
 11
86.522447
 21
16.587130
 31
0.0
 11
86.572325
 21
16.564379
 31
0.0
 11
86.630564
 21
16.556795
 31
0.0
 11
86.674415
 21
16.561170
 31
0.0
 11
86.712626
 21
16.574296
 31
0.0
 11
86.745197
 21
16.596171
 31
0.0
 11
86.772032
 21
16.629326
 31
0.0
 11
86.793033
 21
16.675122
 31
0.0
 11
86.808200
 21
16.733557
 31
0.0
  0
LINE
  5
173
100
AcDbEntity
  8
Layer_1
 62
1
100
AcDbLine
 10
87.037464
 20
17.031950
 30
0.0
 11
87.037464
 21
17.031950
 31
0.0
  0
LINE
  5
174
100
AcDbEntity
  8
Layer_1
 62
1
100
AcDbLine
 10
87.650877
 20
17.306716
 30
0.0
 11
87.650877
 21
17.110704
 31
0.0
  0
LINE
  5
175
100
AcDbEntity
  8
Layer_1
 62
1
100
AcDbLine
 10
87.650877
 20
17.110704
 30
0.0
 11
87.482867
 21
17.110704
 31
0.0
  0
LINE
  5
176
100
AcDbEntity
  8
Layer_1
 62
1
100
AcDbLine
 10
87.482867
 20
17.110704
 30
0.0
 11
87.482867
 21
16.736181
 31
0.0
  0
SPLINE
  5
177
100
AcDbEntity
  8
Layer_1
 62
1
100
AcDbSpline
 70
0
 71
3
 72
31
 73
27
 74
25
 40
0.000000
 40
0.000000
 40
0.000000
 40
0.000000
 40
0.106941
 40
0.203504
 40
0.294818
 40
0.387028
 40
0.486517
 40
0.598436
 40
0.726025
 40
0.842697
 40
0.957797
 40
1.075525
 40
1.200879
 40
1.342207
 40
1.484898
 40
1.610898
 40
1.728745
 40
1.844150
 40
1.961907
 40
2.091427
 40
2.197139
 40
2.290259
 40
2.375025
 40
2.458325
 40
2.546672
 40
2.644534
 40
2.644534
 40
2.644534
 40
2.644534
 10
87.049715
 20
16.692428
 30
0.0
 10
87.040278
 20
16.657936
 30
0.0
 10
87.022319
 20
16.592298
 30
0.0
 10
86.972931
 20
16.506023
 30
0.0
 10
86.907773
 20
16.437771
 30
0.0
 10
86.825419
 20
16.389350
 30
0.0
 10
86.727162
 20
16.361610
 30
0.0
 10
86.614011
 20
16.353025
 30
0.0
 10
86.494760
 20
16.364332
 30
0.0
 10
86.381437
 20
16.408203
 30
0.0
 10
86.288800
 20
16.481707
 30
0.0
 10
86.220115
 20
16.581499
 30
0.0
 10
86.180128
 20
16.704837
 30
0.0
 10
86.169073
 20
16.841648
 30
0.0
 10
86.180155
 20
16.978648
 30
0.0
 10
86.220281
 20
17.102765
 30
0.0
 10
86.289805
 20
17.202413
 30
0.0
 10
86.382877
 20
17.276162
 30
0.0
 10
86.497500
 20
17.319847
 30
0.0
 10
86.615676
 20
17.330851
 30
0.0
 10
86.725217
 20
17.323237
 30
0.0
 10
86.817509
 20
17.299524
 30
0.0
 10
86.894843
 20
17.257441
 30
0.0
 10
86.957580
 20
17.198175
 30
0.0
 10
87.006865
 20
17.121850
 30
0.0
 10
87.026923
 20
17.062921
 30
0.0
 10
87.037464
 20
17.031950
 30
0.0
 11
87.049715
 21
16.692428
 31
0.0
 11
87.016948
 21
16.590631
 31
0.0
 11
86.968820
 21
16.506917
 31
0.0
 11
86.905330
 21
16.441287
 31
0.0
 11
86.826089
 21
16.394131
 31
0.0
 11
86.730709
 21
16.365837
 31
0.0
 11
86.619188
 21
16.356406
 31
0.0
 11
86.492402
 21
16.370699
 31
0.0
 11
86.383895
 21
16.413577
 31
0.0
 11
86.293667
 21
16.485040
 31
0.0
 11
86.226580
 21
16.581783
 31
0.0
 11
86.186327
 21
16.700499
 31
0.0
 11
86.172910
 21
16.841188
 31
0.0
 11
86.186424
 21
16.983238
 31
0.0
 11
86.226969
 21
17.102537
 31
0.0
 11
86.294542
 21
17.199085
 31
0.0
 11
86.385160
 21
17.270547
 31
0.0
 11
86.494833
 21
17.313424
 31
0.0
 11
86.623562
 21
17.327716
 31
0.0
 11
86.728958
 21
17.319549
 31
0.0
 11
86.818797
 21
17.295048
 31
0.0
 11
86.893079
 21
17.254212
 31
0.0
 11
86.953847
 21
17.197237
 31
0.0
 11
87.001975
 21
17.123150
 31
0.0
 11
87.037464
 21
17.031950
 31
0.0
  0
LINE
  5
178
100
AcDbEntity
  8
Layer_1
 62
1
100
AcDbLine
 10
87.649996
 20
16.583920
 30
0.0
 11
87.670993
 21
16.393157
 31
0.0
  0
SPLINE
  5
179
100
AcDbEntity
  8
Layer_1
 62
1
100
AcDbSpline
 70
0
 71
3
 72
19
 73
15
 74
13
 40
0.000000
 40
0.000000
 40
0.000000
 40
0.000000
 40
0.065340
 40
0.109700
 40
0.133161
 40
0.145671
 40
0.158216
 40
0.171434
 40
0.185617
 40
0.200201
 40
0.215819
 40
0.242104
 40
0.275991
 40
0.317866
 40
0.317866
 40
0.317866
 40
0.317866
 10
87.482867
 20
16.736181
 30
0.0
 10
87.482830
 20
16.714371
 30
0.0
 10
87.482768
 20
16.677752
 30
0.0
 10
87.484735
 20
16.633625
 30
0.0
 10
87.485277
 20
16.606473
 30
0.0
 10
87.491598
 20
16.591346
 30
0.0
 10
87.499104
 20
16.580930
 30
0.0
 10
87.509053
 20
16.571903
 30
0.0
 10
87.521493
 20
16.565212
 30
0.0
 10
87.535809
 20
16.561091
 30
0.0
 10
87.554693
 20
16.559626
 30
0.0
 10
87.579897
 20
16.562801
 30
0.0
 10
87.612956
 20
16.570987
 30
0.0
 10
87.636811
 20
16.579316
 30
0.0
 10
87.649996
 20
16.583920
 30
0.0
 11
87.482867
 21
16.736181
 31
0.0
 11
87.483353
 21
16.670843
 31
0.0
 11
87.484811
 21
16.626507
 31
0.0
 11
87.487241
 21
16.603173
 31
0.0
 11
87.492005
 21
16.591604
 31
0.0
 11
87.499295
 21
16.581395
 31
0.0
 11
87.509113
 21
16.572546
 31
0.0
 11
87.521557
 21
16.565741
 31
0.0
 11
87.535558
 21
16.561659
 31
0.0
 11
87.551117
 21
16.560298
 31
0.0
 11
87.577270
 21
16.562922
 31
0.0
 11
87.610230
 21
16.570796
 31
0.0
 11
87.649996
 21
16.583920
 31
0.0
  0
LINE
  5
17a
100
AcDbEntity
  8
Layer_1
 62
1
100
AcDbLine
 10
87.236092
 20
16.705546
 30
0.0
 11
87.236092
 21
17.110696
 31
0.0
  0
LINE
  5
17b
100
AcDbEntity
  8
Layer_1
 62
1
100
AcDbLine
 10
87.236092
 20
17.110696
 30
0.0
 11
87.123208
 21
17.110696
 31
0.0
  0
LINE
  5
17c
100
AcDbEntity
  8
Layer_1
 62
1
100
AcDbLine
 10
87.123208
 20
17.110696
 30
0.0
 11
87.123208
 21
17.306708
 31
0.0
  0
LINE
  5
17d
100
AcDbEntity
  8
Layer_1
 62
1
100
AcDbLine
 10
87.123208
 20
17.306708
 30
0.0
 11
87.236092
 21
17.306708
 31
0.0
  0
LINE
  5
17e
100
AcDbEntity
  8
Layer_1
 62
1
100
AcDbLine
 10
87.236092
 20
17.306708
 30
0.0
 11
87.236092
 21
17.491343
 31
0.0
  0
LINE
  5
17f
100
AcDbEntity
  8
Layer_1
 62
1
100
AcDbLine
 10
87.236092
 20
17.491343
 30
0.0
 11
87.482856
 21
17.634853
 31
0.0
  0
LINE
  5
180
100
AcDbEntity
  8
Layer_1
 62
1
100
AcDbLine
 10
87.482856
 20
17.634853
 30
0.0
 11
87.482856
 21
17.306708
 31
0.0
  0
LINE
  5
181
100
AcDbEntity
  8
Layer_1
 62
1
100
AcDbLine
 10
87.482856
 20
17.306708
 30
0.0
 11
87.650877
 21
17.306716
 31
0.0
  0
LINE
  5
182
100
AcDbEntity
  8
Layer_1
 62
1
100
AcDbLine
 10
83.119692
 20
11.266162
 30
0.0
 11
83.119692
 21
10.866529
 31
0.0
  0
LINE
  5
183
100
AcDbEntity
  8
Layer_1
 62
1
100
AcDbLine
 10
83.119692
 20
10.866529
 30
0.0
 11
82.947522
 21
10.866529
 31
0.0
  0
SPLINE
  5
184
100
AcDbEntity
  8
Layer_1
 62
1
100
AcDbSpline
 70
0
 71
3
 72
22
 73
18
 74
16
 40
0.000000
 40
0.000000
 40
0.000000
 40
0.000000
 40
0.063094
 40
0.128997
 40
0.198926
 40
0.241873
 40
0.282493
 40
0.321478
 40
0.357917
 40
0.390471
 40
0.420206
 40
0.450622
 40
0.484664
 40
0.523052
 40
0.561609
 40
0.619423
 40
0.696627
 40
0.696627
 40
0.696627
 40
0.696627
 10
87.670993
 20
16.393157
 30
0.0
 10
87.651273
 20
16.385735
 30
0.0
 10
87.610954
 20
16.370560
 30
0.0
 10
87.545318
 20
16.359069
 30
0.0
 10
87.485741
 20
16.355369
 30
0.0
 10
87.434525
 20
16.357836
 30
0.0
 10
87.394212
 20
16.365138
 30
0.0
 10
87.357260
 20
16.377030
 30
0.0
 10
87.325019
 20
16.393370
 30
0.0
 10
87.298181
 20
16.412642
 30
0.0
 10
87.276835
 20
16.435430
 30
0.0
 10
87.262197
 20
16.463501
 30
0.0
 10
87.250890
 20
16.495935
 30
0.0
 10
87.243330
 20
16.532254
 30
0.0
 10
87.238541
 20
16.576956
 30
0.0
 10
87.236492
 20
16.634809
 30
0.0
 10
87.236238
 20
16.679813
 30
0.0
 10
87.236092
 20
16.705546
 30
0.0
 11
87.670993
 21
16.393157
 31
0.0
 11
87.611295
 21
16.372738
 31
0.0
 11
87.546541
 21
16.360487
 31
0.0
 11
87.476731
 21
16.356403
 31
0.0
 11
87.433853
 21
16.358834
 31
0.0
 11
87.393892
 21
16.366124
 31
0.0
 11
87.356849
 21
16.378276
 31
0.0
 11
87.324374
 21
16.394803
 31
0.0
 11
87.298122
 21
16.414054
 31
0.0
 11
87.278092
 21
16.436030
 31
0.0
 11
87.263413
 21
16.462669
 31
0.0
 11
87.252037
 21
16.494754
 31
0.0
 11
87.243966
 21
16.532284
 31
0.0
 11
87.239591
 21
16.570592
 31
0.0
 11
87.236967
 21
16.628346
 31
0.0
 11
87.236092
 21
16.705546
 31
0.0
  0
LINE
  5
185
100
AcDbEntity
  8
Layer_1
 62
1
100
AcDbLine
 10
82.671049
 20
11.119138
 30
0.0
 11
82.397087
 21
11.119138
 31
0.0
  0
LINE
  5
186
100
AcDbEntity
  8
Layer_1
 62
1
100
AcDbLine
 10
82.397087
 20
11.119138
 30
0.0
 11
82.397087
 21
10.515922
 31
0.0
  0
LINE
  5
187
100
AcDbEntity
  8
Layer_1
 62
1
100
AcDbLine
 10
82.397087
 20
10.515922
 30
0.0
 11
82.562972
 21
10.515922
 31
0.0
  0
SPLINE
  5
188
100
AcDbEntity
  8
Layer_1
 62
1
100
AcDbSpline
 70
0
 71
3
 72
16
 73
12
 74
10
 40
0.000000
 40
0.000000
 40
0.000000
 40
0.000000
 40
0.075636
 40
0.134162
 40
0.175937
 40
0.209370
 40
0.241366
 40
0.272629
 40
0.308550
 40
0.354973
 40
0.413266
 40
0.413266
 40
0.413266
 40
0.413266
 10
82.947522
 20
10.866529
 30
0.0
 10
82.939026
 20
10.890270
 30
0.0
 10
82.923957
 20
10.932380
 30
0.0
 10
82.901046
 20
10.986421
 30
0.0
 10
82.879514
 20
11.025607
 30
0.0
 10
82.857522
 20
11.053954
 30
0.0
 10
82.834253
 20
11.076376
 30
0.0
 10
82.807347
 20
11.095904
 30
0.0
 10
82.771979
 20
11.110501
 30
0.0
 10
82.725384
 20
11.117892
 30
0.0
 10
82.690479
 20
11.118692
 30
0.0
 10
82.671049
 20
11.119138
 30
0.0
 11
82.947522
 21
10.866529
 31
0.0
 11
82.921272
 21
10.937464
 31
0.0
 11
82.897813
 21
10.991083
 31
0.0
 11
82.877147
 21
11.027387
 31
0.0
 11
82.856621
 21
11.053778
 31
0.0
 11
82.833581
 21
11.075980
 31
0.0
 11
82.808028
 21
11.093992
 31
0.0
 11
82.774935
 21
11.107962
 31
0.0
 11
82.729276
 21
11.116344
 31
0.0
 11
82.671049
 21
11.119138
 31
0.0
  0
LINE
  5
189
100
AcDbEntity
  8
Layer_1
 62
1
100
AcDbLine
 10
82.741424
 20
10.696877
 30
0.0
 11
82.883432
 21
10.696877
 31
0.0
  0
LINE
  5
18a
100
AcDbEntity
  8
Layer_1
 62
1
100
AcDbLine
 10
82.883432
 20
10.696877
 30
0.0
 11
82.883432
 21
10.186659
 31
0.0
  0
LINE
  5
18b
100
AcDbEntity
  8
Layer_1
 62
1
100
AcDbLine
 10
82.883432
 20
10.186659
 30
0.0
 11
82.741424
 21
10.186659
 31
0.0
  0
SPLINE
  5
18c
100
AcDbEntity
  8
Layer_1
 62
1
100
AcDbSpline
 70
0
 71
3
 72
16
 73
12
 74
10
 40
0.000000
 40
0.000000
 40
0.000000
 40
0.000000
 40
0.034252
 40
0.063589
 40
0.088628
 40
0.112292
 40
0.136879
 40
0.163369
 40
0.195343
 40
0.235355
 40
0.283729
 40
0.283729
 40
0.283729
 40
0.283729
 10
82.562972
 20
10.515922
 30
0.0
 10
82.574401
 20
10.516183
 30
0.0
 10
82.595620
 20
10.516669
 30
0.0
 10
82.624822
 20
10.521619
 30
0.0
 10
82.649789
 20
10.529729
 30
0.0
 10
82.670137
 20
10.543725
 30
0.0
 10
82.687620
 20
10.561678
 30
0.0
 10
82.702644
 20
10.585090
 30
0.0
 10
82.716830
 20
10.614757
 30
0.0
 10
82.729941
 20
10.652755
 30
0.0
 10
82.737362
 20
10.681270
 30
0.0
 10
82.741424
 20
10.696877
 30
0.0
 11
82.562972
 21
10.515922
 31
0.0
 11
82.597182
 21
10.517596
 31
0.0
 11
82.626087
 21
10.522620
 31
0.0
 11
82.649685
 21
10.530992
 31
0.0
 11
82.669373
 21
10.544120
 31
0.0
 11
82.686548
 21
10.561714
 31
0.0
 11
82.701210
 21
10.583776
 31
0.0
 11
82.715173
 21
10.612540
 31
0.0
 11
82.728578
 21
10.650240
 31
0.0
 11
82.741424
 21
10.696877
 31
0.0
  0
LINE
  5
18d
100
AcDbEntity
  8
Layer_1
 62
1
100
AcDbLine
 10
82.562972
 20
10.368884
 30
0.0
 11
82.397087
 21
10.368884
 31
0.0
  0
LINE
  5
18e
100
AcDbEntity
  8
Layer_1
 62
1
100
AcDbLine
 10
82.397087
 20
10.368884
 30
0.0
 11
82.397087
 21
9.697807
 31
0.0
  0
LINE
  5
18f
100
AcDbEntity
  8
Layer_1
 62
1
100
AcDbLine
 10
82.397087
 20
9.697807
 30
0.0
 11
82.669793
 21
9.697807
 31
0.0
  0
SPLINE
  5
190
100
AcDbEntity
  8
Layer_1
 62
1
100
AcDbSpline
 70
0
 71
3
 72
16
 73
12
 74
10
 40
0.000000
 40
0.000000
 40
0.000000
 40
0.000000
 40
0.046302
 40
0.085386
 40
0.117554
 40
0.145518
 40
0.170711
 40
0.194071
 40
0.218444
 40
0.248269
 40
0.284340
 40
0.284340
 40
0.284340
 40
0.284340
 10
82.741424
 20
10.186659
 30
0.0
 10
82.737593
 20
10.201614
 30
0.0
 10
82.730530
 20
10.229192
 30
0.0
 10
82.717752
 20
10.266304
 30
0.0
 10
82.703702
 20
10.296314
 30
0.0
 10
82.688442
 20
10.320444
 30
0.0
 10
82.671109
 20
10.339371
 30
0.0
 10
82.651112
 20
10.353580
 30
0.0
 10
82.626796
 20
10.362999
 30
0.0
 10
82.596977
 20
10.368070
 30
0.0
 10
82.575001
 20
10.368596
 30
0.0
 10
82.562972
 20
10.368884
 30
0.0
 11
82.741424
 21
10.186659
 31
0.0
 11
82.729281
 21
10.231340
 31
0.0
 11
82.716295
 21
10.268203
 31
0.0
 11
82.702466
 21
10.297247
 31
0.0
 11
82.687246
 21
10.320706
 31
0.0
 11
82.670070
 21
10.339138
 31
0.0
 11
82.650940
 21
10.352543
 31
0.0
 11
82.628321
 21
10.361621
 31
0.0
 11
82.598998
 21
10.367068
 31
0.0
 11
82.562972
 21
10.368884
 31
0.0
  0
LINE
  5
191
100
AcDbEntity
  8
Layer_1
 62
1
100
AcDbLine
 10
82.960090
 20
10.009480
 30
0.0
 11
83.132256
 21
10.009480
 31
0.0
  0
LINE
  5
192
100
AcDbEntity
  8
Layer_1
 62
1
100
AcDbLine
 10
83.132256
 20
10.009480
 30
0.0
 11
83.108380
 21
9.550784
 31
0.0
  0
LINE
  5
193
100
AcDbEntity
  8
Layer_1
 62
1
100
AcDbLine
 10
83.108380
 20
9.550784
 30
0.0
 11
81.873043
 21
9.550784
 31
0.0
  0
LINE
  5
194
100
AcDbEntity
  8
Layer_1
 62
1
100
AcDbLine
 10
81.873043
 20
9.550784
 30
0.0
 11
81.873043
 21
9.633726
 31
0.0
  0
SPLINE
  5
195
100
AcDbEntity
  8
Layer_1
 62
1
100
AcDbSpline
 70
0
 71
3
 72
25
 73
21
 74
19
 40
0.000000
 40
0.000000
 40
0.000000
 40
0.000000
 40
0.027793
 40
0.052564
 40
0.074387
 40
0.094438
 40
0.113659
 40
0.132269
 40
0.151014
 40
0.170643
 40
0.191376
 40
0.213146
 40
0.234678
 40
0.256094
 40
0.279686
 40
0.306850
 40
0.337671
 40
0.374002
 40
0.417716
 40
0.468872
 40
0.468872
 40
0.468872
 40
0.468872
 10
82.669793
 20
9.697807
 30
0.0
 10
82.679060
 20
9.697893
 30
0.0
 10
82.696587
 20
9.698053
 30
0.0
 10
82.721318
 20
9.699815
 30
0.0
 10
82.743457
 20
9.702180
 30
0.0
 10
82.763176
 20
9.707509
 30
0.0
 10
82.781313
 20
9.714157
 30
0.0
 10
82.798205
 20
9.722652
 30
0.0
 10
82.814056
 20
9.733187
 30
0.0
 10
82.829231
 20
9.745826
 30
0.0
 10
82.843532
 20
9.760835
 30
0.0
 10
82.857780
 20
9.776735
 30
0.0
 10
82.870827
 20
9.793959
 30
0.0
 10
82.882637
 20
9.812744
 30
0.0
 10
82.894897
 20
9.833457
 30
0.0
 10
82.906875
 20
9.857893
 30
0.0
 10
82.919600
 20
9.886649
 30
0.0
 10
82.932702
 20
9.921223
 30
0.0
 10
82.946433
 20
9.962756
 30
0.0
 10
82.955305
 20
9.993111
 30
0.0
 10
82.960090
 20
10.009480
 30
0.0
 11
82.669793
 21
9.697807
 31
0.0
 11
82.697580
 21
9.698366
 31
0.0
 11
82.722295
 21
9.700040
 31
0.0
 11
82.743938
 21
9.702831
 31
0.0
 11
82.763347
 21
9.707864
 31
0.0
 11
82.781360
 21
9.714571
 31
0.0
 11
82.797975
 21
9.722953
 31
0.0
 11
82.813614
 21
9.733288
 31
0.0
 11
82.828694
 21
9.745855
 31
0.0
 11
82.843216
 21
9.760653
 31
0.0
 11
82.857604
 21
9.776989
 31
0.0
 11
82.870590
 21
9.794164
 31
0.0
 11
82.882174
 21
9.812178
 31
0.0
 11
82.894038
 21
9.832569
 31
0.0
 11
82.906186
 21
9.856866
 31
0.0
 11
82.918620
 21
9.885068
 31
0.0
 11
82.931606
 21
9.918998
 31
0.0
 11
82.945430
 21
9.960469
 31
0.0
 11
82.960090
 21
10.009480
 31
0.0
  0
LINE
  5
196
100
AcDbEntity
  8
Layer_1
 62
1
100
AcDbLine
 10
82.007511
 20
9.866212
 30
0.0
 11
82.007511
 21
10.949488
 31
0.0
  0
SPLINE
  5
197
100
AcDbEntity
  8
Layer_1
 62
1
100
AcDbSpline
 70
0
 71
3
 72
19
 73
15
 74
13
 40
0.000000
 40
0.000000
 40
0.000000
 40
0.000000
 40
0.029999
 40
0.055838
 40
0.077646
 40
0.097785
 40
0.116742
 40
0.135335
 40
0.155979
 40
0.178536
 40
0.203379
 40
0.232499
 40
0.266035
 40
0.304016
 40
0.304016
 40
0.304016
 40
0.304016
 10
81.873043
 20
9.633726
 30
0.0
 10
81.882671
 20
9.636440
 30
0.0
 10
81.900593
 20
9.641492
 30
0.0
 10
81.924937
 20
9.650308
 30
0.0
 10
81.945721
 20
9.659310
 30
0.0
 10
81.962782
 20
9.670527
 30
0.0
 10
81.976604
 20
9.684129
 30
0.0
 10
81.986935
 20
9.700705
 30
0.0
 10
81.994929
 20
9.719759
 30
0.0
 10
82.000729
 20
9.741758
 30
0.0
 10
82.004203
 20
9.767069
 30
0.0
 10
82.006031
 20
9.796185
 30
0.0
 10
82.007322
 20
9.829711
 30
0.0
 10
82.007445
 20
9.853551
 30
0.0
 10
82.007511
 20
9.866212
 30
0.0
 11
81.873043
 21
9.633726
 31
0.0
 11
81.901808
 21
9.642240
 31
0.0
 11
81.926104
 21
9.651036
 31
0.0
 11
81.945932
 21
9.660114
 31
0.0
 11
81.962693
 21
9.671280
 31
0.0
 11
81.976098
 21
9.684685
 31
0.0
 11
81.986146
 21
9.700328
 31
0.0
 11
81.994246
 21
9.719317
 31
0.0
 11
82.000107
 21
9.741099
 31
0.0
 11
82.003729
 21
9.765676
 31
0.0
 11
82.005830
 21
9.794721
 31
0.0
 11
82.007090
 21
9.828233
 31
0.0
 11
82.007511
 21
9.866212
 31
0.0
  0
LINE
  5
198
100
AcDbEntity
  8
Layer_1
 62
1
100
AcDbLine
 10
81.873026
 20
11.183236
 30
0.0
 11
81.873026
 21
11.266178
 31
0.0
  0
LINE
  5
199
100
AcDbEntity
  8
Layer_1
 62
1
100
AcDbLine
 10
81.873026
 20
11.266178
 30
0.0
 11
83.119692
 21
11.266162
 31
0.0
  0
SPLINE
  5
19a
100
AcDbEntity
  8
Layer_1
 62
1
100
AcDbSpline
 70
0
 71
3
 72
19
 73
15
 74
13
 40
0.000000
 40
0.000000
 40
0.000000
 40
0.000000
 40
0.037285
 40
0.070403
 40
0.099383
 40
0.124688
 40
0.147142
 40
0.167215
 40
0.185809
 40
0.204767
 40
0.224906
 40
0.247453
 40
0.273980
 40
0.304729
 40
0.304729
 40
0.304729
 40
0.304729
 10
82.007511
 20
10.949488
 30
0.0
 10
82.007435
 20
10.961917
 30
0.0
 10
82.007294
 20
10.985384
 30
0.0
 10
82.006112
 20
11.018502
 30
0.0
 10
82.003918
 20
11.047549
 30
0.0
 10
82.001509
 20
11.073043
 30
0.0
 10
81.996167
 20
11.095130
 30
0.0
 10
81.988044
 20
11.113896
 30
0.0
 10
81.977844
 20
11.130301
 30
0.0
 10
81.964057
 20
11.143993
 30
0.0
 10
81.946594
 20
11.154956
 30
0.0
 10
81.926223
 20
11.165831
 30
0.0
 10
81.901273
 20
11.175286
 30
0.0
 10
81.882893
 20
11.180459
 30
0.0
 10
81.873026
 20
11.183236
 30
0.0
 11
82.007511
 21
10.949488
 31
0.0
 11
82.007090
 21
10.986771
 31
0.0
 11
82.005830
 21
11.019865
 31
0.0
 11
82.003729
 21
11.048769
 31
0.0
 11
82.000784
 21
11.073902
 31
0.0
 11
81.995337
 21
11.095685
 31
0.0
 11
81.987388
 21
11.114117
 31
0.0
 11
81.977338
 21
11.129761
 31
0.0
 11
81.963932
 21
11.143166
 31
0.0
 11
81.947171
 21
11.154331
 31
0.0
 11
81.927205
 21
11.164805
 31
0.0
 11
81.902490
 21
11.174440
 31
0.0
 11
81.873026
 21
11.183236
 31
0.0
  0
LINE
  5
19b
100
AcDbEntity
  8
Layer_1
 62
1
100
AcDbLine
 10
84.341209
 20
11.183219
 30
0.0
 11
84.341209
 21
11.266162
 31
0.0
  0
LINE
  5
19c
100
AcDbEntity
  8
Layer_1
 62
1
100
AcDbLine
 10
84.341209
 20
11.266162
 30
0.0
 11
84.882847
 21
11.266162
 31
0.0
  0
LINE
  5
19d
100
AcDbEntity
  8
Layer_1
 62
1
100
AcDbLine
 10
84.882847
 20
11.266162
 30
0.0
 11
84.882847
 21
11.183219
 31
0.0
  0
SPLINE
  5
19e
100
AcDbEntity
  8
Layer_1
 62
1
100
AcDbSpline
 70
0
 71
3
 72
19
 73
15
 74
13
 40
0.000000
 40
0.000000
 40
0.000000
 40
0.000000
 40
0.036385
 40
0.070852
 40
0.103466
 40
0.135644
 40
0.168535
 40
0.202348
 40
0.240364
 40
0.273616
 40
0.304507
 40
0.335617
 40
0.370625
 40
0.411624
 40
0.411624
 40
0.411624
 40
0.411624
 10
84.431687
 20
10.853962
 30
0.0
 10
84.435645
 20
10.865427
 30
0.0
 10
84.443354
 20
10.887753
 30
0.0
 10
84.453027
 20
10.920878
 30
0.0
 10
84.460684
 20
10.953067
 30
0.0
 10
84.467454
 20
10.984944
 30
0.0
 10
84.471024
 20
11.017759
 30
0.0
 10
84.472594
 20
11.052641
 30
0.0
 10
84.470044
 20
11.087788
 30
0.0
 10
84.459236
 20
11.120569
 30
0.0
 10
84.440303
 20
11.146695
 30
0.0
 10
84.413985
 20
11.166257
 30
0.0
 10
84.380047
 20
11.178765
 30
0.0
 10
84.354818
 20
11.181658
 30
0.0
 10
84.341209
 20
11.183219
 30
0.0
 11
84.431687
 21
10.853962
 31
0.0
 11
84.443277
 21
10.888451
 31
0.0
 11
84.452911
 21
10.921545
 31
0.0
 11
84.460589
 21
10.953242
 31
0.0
 11
84.466876
 21
10.984799
 31
0.0
 11
84.470649
 21
11.017473
 31
0.0
 11
84.471906
 21
11.051263
 31
0.0
 11
84.468275
 21
11.089105
 31
0.0
 11
84.457383
 21
11.120523
 31
0.0
 11
84.439230
 21
11.145517
 31
0.0
 11
84.414376
 21
11.164229
 31
0.0
 11
84.381702
 21
11.176796
 31
0.0
 11
84.341209
 21
11.183219
 31
0.0
  0
LINE
  5
19f
100
AcDbEntity
  8
Layer_1
 62
1
100
AcDbLine
 10
84.678004
 20
10.944445
 30
0.0
 11
84.151448
 21
9.541967
 31
0.0
  0
LINE
  5
1a0
100
AcDbEntity
  8
Layer_1
 62
1
100
AcDbLine
 10
84.151448
 20
9.541967
 30
0.0
 11
83.861149
 21
9.541967
 31
0.0
  0
LINE
  5
1a1
100
AcDbEntity
  8
Layer_1
 62
1
100
AcDbLine
 10
83.861149
 20
9.541967
 30
0.0
 11
83.446437
 21
10.949472
 31
0.0
  0
SPLINE
  5
1a2
100
AcDbEntity
  8
Layer_1
 62
1
100
AcDbSpline
 70
0
 71
3
 72
16
 73
12
 74
10
 40
0.000000
 40
0.000000
 40
0.000000
 40
0.000000
 40
0.031063
 40
0.060237
 40
0.088211
 40
0.115694
 40
0.145647
 40
0.178610
 40
0.217971
 40
0.269350
 40
0.332930
 40
0.332930
 40
0.332930
 40
0.332930
 10
84.882847
 20
11.183219
 30
0.0
 10
84.872666
 20
11.181245
 30
0.0
 10
84.852924
 20
11.177417
 30
0.0
 10
84.825345
 20
11.166756
 30
0.0
 10
84.800860
 20
11.152521
 30
0.0
 10
84.778830
 20
11.134287
 30
0.0
 10
84.758739
 20
11.111720
 30
0.0
 10
84.739029
 20
11.083797
 30
0.0
 10
84.719935
 20
11.047158
 30
0.0
 10
84.699178
 20
11.000076
 30
0.0
 10
84.685545
 20
10.964256
 30
0.0
 10
84.678004
 20
10.944445
 30
0.0
 11
84.882847
 21
11.183219
 31
0.0
 11
84.852546
 21
11.176379
 31
0.0
 11
84.825318
 21
11.165906
 31
0.0
 11
84.801161
 21
11.151799
 31
0.0
 11
84.779937
 21
11.134339
 31
0.0
 11
84.759829
 21
11.112138
 31
0.0
 11
84.740838
 21
11.085195
 31
0.0
 11
84.722129
 21
11.050566
 31
0.0
 11
84.701184
 21
11.003649
 31
0.0
 11
84.678004
 21
10.944445
 31
0.0
  0
LINE
  5
1a3
100
AcDbEntity
  8
Layer_1
 62
1
100
AcDbLine
 10
83.266730
 20
11.183219
 30
0.0
 11
83.266730
 21
11.266162
 31
0.0
  0
LINE
  5
1a4
100
AcDbEntity
  8
Layer_1
 62
1
100
AcDbLine
 10
83.266730
 20
11.266162
 30
0.0
 11
83.961685
 21
11.266162
 31
0.0
  0
LINE
  5
1a5
100
AcDbEntity
  8
Layer_1
 62
1
100
AcDbLine
 10
83.961685
 20
11.266162
 30
0.0
 11
83.961685
 21
11.183219
 31
0.0
  0
SPLINE
  5
1a6
100
AcDbEntity
  8
Layer_1
 62
1
100
AcDbSpline
 70
0
 71
3
 72
16
 73
12
 74
10
 40
0.000000
 40
0.000000
 40
0.000000
 40
0.000000
 40
0.059319
 40
0.106350
 40
0.141203
 40
0.169766
 40
0.196660
 40
0.222541
 40
0.249923
 40
0.280506
 40
0.315090
 40
0.315090
 40
0.315090
 40
0.315090
 10
83.446437
 20
10.949472
 30
0.0
 10
83.440756
 20
10.968412
 30
0.0
 10
83.430570
 20
11.002370
 30
0.0
 10
83.415277
 20
11.046900
 30
0.0
 10
83.401361
 20
11.081023
 30
0.0
 10
83.387025
 20
11.107590
 30
0.0
 10
83.370554
 20
11.129287
 30
0.0
 10
83.350987
 20
11.147646
 30
0.0
 10
83.327679
 20
11.163325
 30
0.0
 10
83.299089
 20
11.175426
 30
0.0
 10
83.277949
 20
11.180517
 30
0.0
 10
83.266730
 20
11.183219
 30
0.0
 11
83.446437
 21
10.949472
 31
0.0
 11
83.428979
 21
11.006163
 31
0.0
 11
83.413480
 21
11.050567
 31
0.0
 11
83.399941
 21
11.082683
 31
0.0
 11
83.386117
 21
11.107677
 31
0.0
 11
83.369779
 21
11.129040
 31
0.0
 11
83.350928
 21
11.146773
 31
0.0
 11
83.328169
 21
11.161999
 31
0.0
 11
83.300103
 21
11.174147
 31
0.0
 11
83.266730
 21
11.183219
 31
0.0
  0
LINE
  5
1a7
100
AcDbEntity
  8
Layer_1
 62
1
100
AcDbLine
 10
83.872455
 20
10.857732
 30
0.0
 11
84.121282
 21
9.955423
 31
0.0
  0
LINE
  5
1a8
100
AcDbEntity
  8
Layer_1
 62
1
100
AcDbLine
 10
84.121282
 20
9.955423
 30
0.0
 11
84.431687
 21
10.853962
 31
0.0
  0
SPLINE
  5
1a9
100
AcDbEntity
  8
Layer_1
 62
1
100
AcDbSpline
 70
0
 71
3
 72
19
 73
15
 74
13
 40
0.000000
 40
0.000000
 40
0.000000
 40
0.000000
 40
0.040477
 40
0.074945
 40
0.104884
 40
0.132906
 40
0.162078
 40
0.194799
 40
0.222320
 40
0.249665
 40
0.276937
 40
0.308954
 40
0.352134
 40
0.406498
 40
0.406498
 40
0.406498
 40
0.406498
 10
83.961685
 20
11.183219
 30
0.0
 10
83.948313
 20
11.181235
 30
0.0
 10
83.923554
 20
11.177560
 30
0.0
 10
83.890445
 20
11.165487
 30
0.0
 10
83.864368
 20
11.148364
 30
0.0
 10
83.845941
 20
11.125261
 30
0.0
 10
83.835317
 20
11.096742
 30
0.0
 10
83.832924
 20
11.066798
 30
0.0
 10
83.834115
 20
11.037629
 30
0.0
 10
83.836556
 20
11.010341
 30
0.0
 10
83.840988
 20
10.981781
 30
0.0
 10
83.848617
 20
10.948473
 30
0.0
 10
83.859133
 20
10.906587
 30
0.0
 10
83.867687
 20
10.875216
 30
0.0
 10
83.872455
 20
10.857732
 30
0.0
 11
83.961685
 21
11.183219
 31
0.0
 11
83.921889
 21
11.175821
 31
0.0
 11
83.889634
 21
11.163672
 31
0.0
 11
83.864919
 21
11.146773
 31
0.0
 11
83.847466
 21
11.124852
 31
0.0
 11
83.836993
 21
11.097624
 31
0.0
 11
83.833502
 21
11.065089
 31
0.0
 11
83.834340
 21
11.037581
 31
0.0
 11
83.836851
 21
11.010352
 31
0.0
 11
83.841038
 21
10.983403
 31
0.0
 11
83.847878
 21
10.952125
 31
0.0
 11
83.858350
 21
10.910235
 31
0.0
 11
83.872455
 21
10.857732
 31
0.0
  0
LINE
  5
1aa
100
AcDbEntity
  8
Layer_1
 62
1
100
AcDbLine
 10
86.026437
 20
11.232250
 30
0.0
 11
86.026437
 21
10.867808
 31
0.0
  0
LINE
  5
1ab
100
AcDbEntity
  8
Layer_1
 62
1
100
AcDbLine
 10
86.026437
 20
10.867808
 30
0.0
 11
85.854270
 21
10.867808
 31
0.0
  0
SPLINE
  5
1ac
100
AcDbEntity
  8
Layer_1
 62
1
100
AcDbSpline
 70
0
 71
3
 72
58
 73
54
 74
52
 40
0.000000
 40
0.000000
 40
0.000000
 40
0.000000
 40
0.094827
 40
0.177099
 40
0.249737
 40
0.319633
 40
0.395671
 40
0.483178
 40
0.531015
 40
0.576202
 40
0.619565
 40
0.661436
 40
0.702738
 40
0.745217
 40
0.790740
 40
0.839205
 40
0.892421
 40
0.942093
 40
0.987939
 40
1.031110
 40
1.075487
 40
1.123332
 40
1.175631
 40
1.235317
 40
1.305077
 40
1.385226
 40
1.456615
 40
1.524733
 40
1.589697
 40
1.651704
 40
1.711134
 40
1.768402
 40
1.824125
 40
1.878874
 40
1.933270
 40
1.988248
 40
2.045687
 40
2.106520
 40
2.204773
 40
2.295976
 40
2.384159
 40
2.472589
 40
2.564247
 40
2.662797
 40
2.769729
 40
2.883566
 40
3.006045
 40
3.079506
 40
3.150842
 40
3.220173
 40
3.291897
 40
3.370617
 40
3.456446
 40
3.456446
 40
3.456446
 40
3.456446
 10
85.091454
 20
9.974272
 30
0.0
 10
85.098930
 20
9.943490
 30
0.0
 10
85.112891
 20
9.886000
 30
0.0
 10
85.147955
 20
9.809990
 30
0.0
 10
85.192213
 20
9.748415
 30
0.0
 10
85.252987
 20
9.705769
 30
0.0
 10
85.328003
 20
9.681968
 30
0.0
 10
85.398700
 20
9.676273
 30
0.0
 10
85.458901
 20
9.679344
 30
0.0
 10
85.503730
 20
9.687741
 30
0.0
 10
85.545128
 20
9.701504
 30
0.0
 10
85.582534
 20
9.721597
 30
0.0
 10
85.614570
 20
9.749072
 30
0.0
 10
85.641145
 20
9.783341
 30
0.0
 10
85.661575
 20
9.824369
 30
0.0
 10
85.673507
 20
9.872315
 30
0.0
 10
85.676911
 20
9.922841
 30
0.0
 10
85.673919
 20
9.972456
 30
0.0
 10
85.664495
 20
10.017930
 30
0.0
 10
85.647856
 20
10.059412
 30
0.0
 10
85.624031
 20
10.097984
 30
0.0
 10
85.592471
 20
10.134603
 30
0.0
 10
85.552625
 20
10.170159
 30
0.0
 10
85.503231
 20
10.205375
 30
0.0
 10
85.443501
 20
10.241720
 30
0.0
 10
85.378123
 20
10.275928
 30
0.0
 10
85.312885
 20
10.309186
 30
0.0
 10
85.253837
 20
10.343282
 30
0.0
 10
85.198744
 20
10.377860
 30
0.0
 10
85.148142
 20
10.414031
 30
0.0
 10
85.102804
 20
10.452749
 30
0.0
 10
85.061956
 20
10.493340
 30
0.0
 10
85.027758
 20
10.537763
 30
0.0
 10
84.998712
 20
10.584487
 30
0.0
 10
84.974484
 20
10.633710
 30
0.0
 10
84.957670
 20
10.686923
 30
0.0
 10
84.947698
 20
10.743966
 30
0.0
 10
84.944030
 20
10.816169
 30
0.0
 10
84.950672
 20
10.899798
 30
0.0
 10
84.976206
 20
10.989490
 30
0.0
 10
85.019683
 20
11.068350
 30
0.0
 10
85.079639
 20
11.135642
 30
0.0
 10
85.155147
 20
11.190843
 30
0.0
 10
85.245271
 20
11.233041
 30
0.0
 10
85.347419
 20
11.264041
 30
0.0
 10
85.460634
 20
11.282611
 30
0.0
 10
85.563979
 20
11.287233
 30
0.0
 10
85.653062
 20
11.285335
 30
0.0
 10
85.724349
 20
11.281305
 30
0.0
 10
85.794780
 20
11.273956
 30
0.0
 10
85.867412
 20
11.264290
 30
0.0
 10
85.944956
 20
11.250334
 30
0.0
 10
85.998505
 20
11.238449
 30
0.0
 10
86.026437
 20
11.232250
 30
0.0
 11
85.091454
 21
9.974272
 31
0.0
 11
85.117007
 21
9.882952
 31
0.0
 11
85.151775
 21
9.808388
 31
0.0
 11
85.195758
 21
9.750580
 31
0.0
 11
85.252729
 21
9.710086
 31
0.0
 11
85.324780
 21
9.685790
 31
0.0
 11
85.411912
 21
9.677691
 31
0.0
 11
85.459667
 21
9.680485
 31
0.0
 11
85.504069
 21
9.688867
 31
0.0
 11
85.545121
 21
9.702837
 31
0.0
 11
85.581845
 21
9.722949
 31
0.0
 11
85.613263
 21
9.749758
 31
0.0
 11
85.639375
 21
9.783264
 31
0.0
 11
85.659621
 21
9.824038
 31
0.0
 11
85.671769
 21
9.870955
 31
0.0
 11
85.675818
 21
9.924017
 31
0.0
 11
85.672607
 21
9.973586
 31
0.0
 11
85.662973
 21
10.018407
 31
0.0
 11
85.646916
 21
10.058482
 31
0.0
 11
85.623736
 21
10.096323
 31
0.0
 11
85.592737
 21
10.132768
 31
0.0
 11
85.553918
 21
10.167815
 31
0.0
 11
85.505606
 21
10.202863
 31
0.0
 11
85.446123
 21
10.239307
 31
0.0
 11
85.375469
 21
10.277148
 31
0.0
 11
85.312214
 21
10.310242
 31
0.0
 11
85.253149
 21
10.344174
 31
0.0
 11
85.198273
 21
10.378942
 31
0.0
 11
85.148005
 21
10.415247
 31
0.0
 11
85.102764
 21
10.453785
 31
0.0
 11
85.062549
 21
10.494558
 31
0.0
 11
85.028338
 21
10.538542
 31
0.0
 11
84.999434
 21
10.585040
 31
0.0
 11
84.975836
 21
10.634051
 31
0.0
 11
84.959080
 21
10.686414
 31
0.0
 11
84.949027
 21
10.742965
 31
0.0
 11
84.945675
 21
10.803707
 31
0.0
 11
84.954193
 21
10.901589
 31
0.0
 11
84.979746
 21
10.989139
 31
0.0
 11
85.022335
 21
11.066357
 31
0.0
 11
85.080980
 21
11.132543
 31
0.0
 11
85.154706
 21
11.187000
 31
0.0
 11
85.243513
 21
11.229727
 31
0.0
 11
85.345725
 21
11.261144
 31
0.0
 11
85.457990
 21
11.279995
 31
0.0
 11
85.580308
 21
11.286278
 31
0.0
 11
85.653756
 21
11.284883
 31
0.0
 11
85.724969
 21
11.280697
 31
0.0
 11
85.793948
 21
11.273719
 31
0.0
 11
85.865022
 21
11.264082
 31
0.0
 11
85.942518
 21
11.250259
 31
0.0
 11
86.026437
 21
11.232250
 31
0.0
  0
LINE
  5
1ad
100
AcDbEntity
  8
Layer_1
 62
1
100
AcDbLine
 10
84.919296
 20
9.587219
 30
0.0
 11
84.919296
 21
9.974281
 31
0.0
  0
LINE
  5
1ae
100
AcDbEntity
  8
Layer_1
 62
1
100
AcDbLine
 10
84.919296
 20
9.974281
 30
0.0
 11
85.091454
 21
9.974272
 31
0.0
  0
LINE
  5
1af
100
AcDbEntity
  8
Layer_1
 62
1
100
AcDbLine
 10
87.503060
 20
11.266162
 30
0.0
 11
87.503060
 21
10.866529
 31
0.0
  0
LINE
  5
1b0
100
AcDbEntity
  8
Layer_1
 62
1
100
AcDbLine
 10
87.503060
 20
10.866529
 30
0.0
 11
87.330893
 21
10.866529
 31
0.0
  0
SPLINE
  5
1b1
100
AcDbEntity
  8
Layer_1
 62
1
100
AcDbSpline
 70
0
 71
3
 72
58
 73
54
 74
52
 40
0.000000
 40
0.000000
 40
0.000000
 40
0.000000
 40
0.064003
 40
0.120244
 40
0.169422
 40
0.213967
 40
0.256045
 40
0.297149
 40
0.340069
 40
0.387472
 40
0.440482
 40
0.486645
 40
0.530187
 40
0.571968
 40
0.612102
 40
0.651042
 40
0.690291
 40
0.729761
 40
0.771021
 40
0.815712
 40
0.862310
 40
0.905612
 40
0.946713
 40
0.988887
 40
1.036030
 40
1.089008
 40
1.151056
 40
1.226201
 40
1.314663
 40
1.424180
 40
1.520732
 40
1.604931
 40
1.680569
 40
1.751624
 40
1.819627
 40
1.887579
 40
1.959381
 40
2.036605
 40
2.135506
 40
2.228277
 40
2.318263
 40
2.407041
 40
2.497737
 40
2.593937
 40
2.695681
 40
2.803141
 40
2.918394
 40
3.005122
 40
3.094489
 40
3.186609
 40
3.277590
 40
3.365398
 40
3.450180
 40
3.450180
 40
3.450180
 40
3.450180
 10
85.854270
 20
10.867808
 30
0.0
 10
85.848854
 20
10.888453
 30
0.0
 10
85.838680
 20
10.927239
 30
0.0
 10
85.818343
 20
10.980110
 30
0.0
 10
85.794321
 20
11.024072
 30
0.0
 10
85.767899
 20
11.061054
 30
0.0
 10
85.736816
 20
11.090558
 30
0.0
 10
85.701050
 20
11.113172
 30
0.0
 10
85.659768
 20
11.128632
 30
0.0
 10
85.612645
 20
11.137524
 30
0.0
 10
85.563743
 20
11.140156
 30
0.0
 10
85.516130
 20
11.137602
 30
0.0
 10
85.472953
 20
11.129240
 30
0.0
 10
85.433327
 20
11.115386
 30
0.0
 10
85.397819
 20
11.095878
 30
0.0
 10
85.367467
 20
11.070263
 30
0.0
 10
85.342983
 20
11.039330
 30
0.0
 10
85.324270
 20
11.003665
 30
0.0
 10
85.313471
 20
10.962936
 30
0.0
 10
85.310354
 20
10.918690
 30
0.0
 10
85.313198
 20
10.873766
 30
0.0
 10
85.322374
 20
10.830933
 30
0.0
 10
85.337737
 20
10.791301
 30
0.0
 10
85.362742
 20
10.755374
 30
0.0
 10
85.395049
 20
10.720534
 30
0.0
 10
85.436287
 20
10.685366
 30
0.0
 10
85.489027
 20
10.650059
 30
0.0
 10
85.553651
 20
10.611513
 30
0.0
 10
85.634417
 20
10.569458
 30
0.0
 10
85.720648
 20
10.522460
 30
0.0
 10
85.802042
 20
10.469901
 30
0.0
 10
85.869295
 20
10.416986
 30
0.0
 10
85.925063
 20
10.363690
 30
0.0
 10
85.969360
 20
10.307092
 30
0.0
 10
86.002792
 20
10.246439
 30
0.0
 10
86.027281
 20
10.181365
 30
0.0
 10
86.041201
 20
10.110079
 30
0.0
 10
86.045937
 20
10.027400
 30
0.0
 10
86.039312
 20
9.937589
 30
0.0
 10
86.015384
 20
9.846217
 30
0.0
 10
85.975355
 20
9.764308
 30
0.0
 10
85.919181
 20
9.693334
 30
0.0
 10
85.847992
 20
9.634289
 30
0.0
 10
85.763255
 20
9.587587
 30
0.0
 10
85.666508
 20
9.554574
 30
0.0
 10
85.559870
 20
9.534532
 30
0.0
 10
85.456599
 20
9.529527
 30
0.0
 10
85.359505
 20
9.531946
 30
0.0
 10
85.270213
 20
9.536849
 30
0.0
 10
85.179777
 20
9.545389
 30
0.0
 10
85.090064
 20
9.555758
 30
0.0
 10
85.003224
 20
9.569381
 30
0.0
 10
84.946943
 20
9.581343
 30
0.0
 10
84.919296
 20
9.587219
 30
0.0
 11
85.854270
 21
10.867808
 31
0.0
 11
85.836816
 21
10.929385
 31
0.0
 11
85.816290
 21
10.981746
 31
0.0
 11
85.792692
 21
11.024893
 31
0.0
 11
85.766302
 21
11.060779
 31
0.0
 11
85.735722
 21
11.089683
 31
0.0
 11
85.700953
 21
11.111605
 31
0.0
 11
85.660877
 21
11.126971
 31
0.0
 11
85.614380
 21
11.136190
 31
0.0
 11
85.561459
 21
11.139263
 31
0.0
 11
85.515380
 21
11.136469
 31
0.0
 11
85.472653
 21
11.128087
 31
0.0
 11
85.433276
 21
11.114117
 31
0.0
 11
85.398228
 21
11.094563
 31
0.0
 11
85.368486
 21
11.069429
 31
0.0
 11
85.344049
 21
11.038716
 31
0.0
 11
85.325897
 21
11.003667
 31
0.0
 11
85.315006
 21
10.963870
 31
0.0
 11
85.311376
 21
10.919327
 31
0.0
 11
85.314449
 21
10.872830
 31
0.0
 11
85.323668
 21
10.830521
 31
0.0
 11
85.339034
 21
10.792401
 31
0.0
 11
85.362493
 21
10.757353
 31
0.0
 11
85.394329
 21
10.722584
 31
0.0
 11
85.434543
 21
10.688094
 31
0.0
 11
85.485649
 21
10.652907
 31
0.0
 11
85.550159
 21
10.614369
 31
0.0
 11
85.628074
 21
10.572479
 31
0.0
 11
85.723724
 21
10.519140
 31
0.0
 11
85.804573
 21
10.466358
 31
0.0
 11
85.870619
 21
10.414135
 31
0.0
 11
85.924796
 21
10.361353
 31
0.0
 11
85.968362
 21
10.305220
 31
0.0
 11
86.001316
 21
10.245736
 31
0.0
 11
86.025053
 21
10.182064
 31
0.0
 11
86.039295
 21
10.111690
 31
0.0
 11
86.044042
 21
10.034611
 31
0.0
 11
86.036083
 21
9.936031
 31
0.0
 11
86.012206
 21
9.846386
 31
0.0
 11
85.972411
 21
9.765676
 31
0.0
 11
85.917396
 21
9.696000
 31
0.0
 11
85.847858
 21
9.637773
 31
0.0
 11
85.763798
 21
9.590995
 31
0.0
 11
85.667731
 21
9.557484
 31
0.0
 11
85.562168
 21
9.537378
 31
0.0
 11
85.447111
 21
9.530675
 31
0.0
 11
85.360399
 21
9.532350
 31
0.0
 11
85.271173
 21
9.537374
 31
0.0
 11
85.179434
 21
9.545746
 31
0.0
 11
85.089091
 21
9.556500
 31
0.0
 11
85.002378
 21
9.570325
 31
0.0
 11
84.919296
 21
9.587219
 31
0.0
  0
LINE
  5
1b2
100
AcDbEntity
  8
Layer_1
 62
1
100
AcDbLine
 10
87.054420
 20
11.119138
 30
0.0
 11
86.780458
 21
11.119138
 31
0.0
  0
LINE
  5
1b3
100
AcDbEntity
  8
Layer_1
 62
1
100
AcDbLine
 10
86.780458
 20
11.119138
 30
0.0
 11
86.780458
 21
10.515922
 31
0.0
  0
LINE
  5
1b4
100
AcDbEntity
  8
Layer_1
 62
1
100
AcDbLine
 10
86.780458
 20
10.515922
 30
0.0
 11
86.946343
 21
10.515922
 31
0.0
  0
SPLINE
  5
1b5
100
AcDbEntity
  8
Layer_1
 62
1
100
AcDbSpline
 70
0
 71
3
 72
16
 73
12
 74
10
 40
0.000000
 40
0.000000
 40
0.000000
 40
0.000000
 40
0.075636
 40
0.134163
 40
0.175936
 40
0.209370
 40
0.241366
 40
0.272629
 40
0.308550
 40
0.354972
 40
0.413266
 40
0.413266
 40
0.413266
 40
0.413266
 10
87.330893
 20
10.866529
 30
0.0
 10
87.322397
 20
10.890270
 30
0.0
 10
87.307327
 20
10.932380
 30
0.0
 10
87.284416
 20
10.986420
 30
0.0
 10
87.262885
 20
11.025608
 30
0.0
 10
87.240893
 20
11.053954
 30
0.0
 10
87.217624
 20
11.076376
 30
0.0
 10
87.190718
 20
11.095904
 30
0.0
 10
87.155350
 20
11.110501
 30
0.0
 10
87.108755
 20
11.117892
 30
0.0
 10
87.073851
 20
11.118692
 30
0.0
 10
87.054420
 20
11.119138
 30
0.0
 11
87.330893
 21
10.866529
 31
0.0
 11
87.304642
 21
10.937464
 31
0.0
 11
87.281183
 21
10.991083
 31
0.0
 11
87.260518
 21
11.027387
 31
0.0
 11
87.239992
 21
11.053778
 31
0.0
 11
87.216952
 21
11.075980
 31
0.0
 11
87.191399
 21
11.093992
 31
0.0
 11
87.158307
 21
11.107962
 31
0.0
 11
87.112647
 21
11.116344
 31
0.0
 11
87.054420
 21
11.119138
 31
0.0
  0
LINE
  5
1b6
100
AcDbEntity
  8
Layer_1
 62
1
100
AcDbLine
 10
87.124795
 20
10.696877
 30
0.0
 11
87.266801
 21
10.696877
 31
0.0
  0
LINE
  5
1b7
100
AcDbEntity
  8
Layer_1
 62
1
100
AcDbLine
 10
87.266801
 20
10.696877
 30
0.0
 11
87.266801
 21
10.186659
 31
0.0
  0
LINE
  5
1b8
100
AcDbEntity
  8
Layer_1
 62
1
100
AcDbLine
 10
87.266801
 20
10.186659
 30
0.0
 11
87.124795
 21
10.186659
 31
0.0
  0
SPLINE
  5
1b9
100
AcDbEntity
  8
Layer_1
 62
1
100
AcDbSpline
 70
0
 71
3
 72
16
 73
12
 74
10
 40
0.000000
 40
0.000000
 40
0.000000
 40
0.000000
 40
0.034250
 40
0.063588
 40
0.088628
 40
0.112291
 40
0.136878
 40
0.163367
 40
0.195341
 40
0.235354
 40
0.283728
 40
0.283728
 40
0.283728
 40
0.283728
 10
86.946343
 20
10.515922
 30
0.0
 10
86.957772
 20
10.516183
 30
0.0
 10
86.978991
 20
10.516669
 30
0.0
 10
87.008192
 20
10.521619
 30
0.0
 10
87.033160
 20
10.529728
 30
0.0
 10
87.053507
 20
10.543725
 30
0.0
 10
87.070990
 20
10.561678
 30
0.0
 10
87.086012
 20
10.585091
 30
0.0
 10
87.100199
 20
10.614757
 30
0.0
 10
87.113310
 20
10.652755
 30
0.0
 10
87.120733
 20
10.681270
 30
0.0
 10
87.124795
 20
10.696877
 30
0.0
 11
86.946343
 21
10.515922
 31
0.0
 11
86.980552
 21
10.517596
 31
0.0
 11
87.009457
 21
10.522620
 31
0.0
 11
87.033056
 21
10.530992
 31
0.0
 11
87.052744
 21
10.544120
 31
0.0
 11
87.069918
 21
10.561714
 31
0.0
 11
87.084578
 21
10.583776
 31
0.0
 11
87.098542
 21
10.612540
 31
0.0
 11
87.111948
 21
10.650240
 31
0.0
 11
87.124795
 21
10.696877
 31
0.0
  0
LINE
  5
1ba
100
AcDbEntity
  8
Layer_1
 62
1
100
AcDbLine
 10
86.946343
 20
10.368884
 30
0.0
 11
86.780458
 21
10.368884
 31
0.0
  0
LINE
  5
1bb
100
AcDbEntity
  8
Layer_1
 62
1
100
AcDbLine
 10
86.780458
 20
10.368884
 30
0.0
 11
86.780458
 21
9.697807
 31
0.0
  0
LINE
  5
1bc
100
AcDbEntity
  8
Layer_1
 62
1
100
AcDbLine
 10
86.780458
 20
9.697807
 30
0.0
 11
87.053161
 21
9.697807
 31
0.0
  0
SPLINE
  5
1bd
100
AcDbEntity
  8
Layer_1
 62
1
100
AcDbSpline
 70
0
 71
3
 72
16
 73
12
 74
10
 40
0.000000
 40
0.000000
 40
0.000000
 40
0.000000
 40
0.046302
 40
0.085386
 40
0.117554
 40
0.145518
 40
0.170711
 40
0.194071
 40
0.218445
 40
0.248270
 40
0.284340
 40
0.284340
 40
0.284340
 40
0.284340
 10
87.124795
 20
10.186659
 30
0.0
 10
87.120965
 20
10.201614
 30
0.0
 10
87.113901
 20
10.229192
 30
0.0
 10
87.101123
 20
10.266304
 30
0.0
 10
87.087073
 20
10.296314
 30
0.0
 10
87.071814
 20
10.320444
 30
0.0
 10
87.054481
 20
10.339371
 30
0.0
 10
87.034482
 20
10.353580
 30
0.0
 10
87.010166
 20
10.362999
 30
0.0
 10
86.980347
 20
10.368070
 30
0.0
 10
86.958372
 20
10.368596
 30
0.0
 10
86.946343
 20
10.368884
 30
0.0
 11
87.124795
 21
10.186659
 31
0.0
 11
87.112652
 21
10.231340
 31
0.0
 11
87.099666
 21
10.268203
 31
0.0
 11
87.085837
 21
10.297247
 31
0.0
 11
87.070617
 21
10.320706
 31
0.0
 11
87.053442
 21
10.339138
 31
0.0
 11
87.034312
 21
10.352543
 31
0.0
 11
87.011691
 21
10.361621
 31
0.0
 11
86.982368
 21
10.367068
 31
0.0
 11
86.946343
 21
10.368884
 31
0.0
  0
LINE
  5
1be
100
AcDbEntity
  8
Layer_1
 62
1
100
AcDbLine
 10
87.343461
 20
10.009480
 30
0.0
 11
87.515628
 21
10.009480
 31
0.0
  0
LINE
  5
1bf
100
AcDbEntity
  8
Layer_1
 62
1
100
AcDbLine
 10
87.515628
 20
10.009480
 30
0.0
 11
87.491752
 21
9.550784
 31
0.0
  0
LINE
  5
1c0
100
AcDbEntity
  8
Layer_1
 62
1
100
AcDbLine
 10
87.491752
 20
9.550784
 30
0.0
 11
86.256414
 21
9.550784
 31
0.0
  0
LINE
  5
1c1
100
AcDbEntity
  8
Layer_1
 62
1
100
AcDbLine
 10
86.256414
 20
9.550784
 30
0.0
 11
86.256414
 21
9.633726
 31
0.0
  0
SPLINE
  5
1c2
100
AcDbEntity
  8
Layer_1
 62
1
100
AcDbSpline
 70
0
 71
3
 72
25
 73
21
 74
19
 40
0.000000
 40
0.000000
 40
0.000000
 40
0.000000
 40
0.027793
 40
0.052564
 40
0.074387
 40
0.094438
 40
0.113660
 40
0.132271
 40
0.151016
 40
0.170646
 40
0.191379
 40
0.213148
 40
0.234680
 40
0.256097
 40
0.279688
 40
0.306852
 40
0.337673
 40
0.374003
 40
0.417717
 40
0.468874
 40
0.468874
 40
0.468874
 40
0.468874
 10
87.053161
 20
9.697807
 30
0.0
 10
87.062428
 20
9.697893
 30
0.0
 10
87.079955
 20
9.698053
 30
0.0
 10
87.104686
 20
9.699815
 30
0.0
 10
87.126826
 20
9.702180
 30
0.0
 10
87.146545
 20
9.707509
 30
0.0
 10
87.164682
 20
9.714157
 30
0.0
 10
87.181576
 20
9.722651
 30
0.0
 10
87.197427
 20
9.733187
 30
0.0
 10
87.212602
 20
9.745826
 30
0.0
 10
87.226903
 20
9.760835
 30
0.0
 10
87.241151
 20
9.776735
 30
0.0
 10
87.254198
 20
9.793959
 30
0.0
 10
87.266008
 20
9.812744
 30
0.0
 10
87.278268
 20
9.833457
 30
0.0
 10
87.290245
 20
9.857893
 30
0.0
 10
87.302968
 20
9.886649
 30
0.0
 10
87.316071
 20
9.921223
 30
0.0
 10
87.329802
 20
9.962756
 30
0.0
 10
87.338676
 20
9.993111
 30
0.0
 10
87.343461
 20
10.009480
 30
0.0
 11
87.053161
 21
9.697807
 31
0.0
 11
87.080948
 21
9.698366
 31
0.0
 11
87.105663
 21
9.700040
 31
0.0
 11
87.127307
 21
9.702831
 31
0.0
 11
87.146716
 21
9.707864
 31
0.0
 11
87.164729
 21
9.714571
 31
0.0
 11
87.181347
 21
9.722953
 31
0.0
 11
87.196985
 21
9.733288
 31
0.0
 11
87.212065
 21
9.745855
 31
0.0
 11
87.226587
 21
9.760653
 31
0.0
 11
87.240975
 21
9.776989
 31
0.0
 11
87.253961
 21
9.794164
 31
0.0
 11
87.265545
 21
9.812178
 31
0.0
 11
87.277408
 21
9.832569
 31
0.0
 11
87.289556
 21
9.856866
 31
0.0
 11
87.301988
 21
9.885068
 31
0.0
 11
87.314975
 21
9.918998
 31
0.0
 11
87.328799
 21
9.960469
 31
0.0
 11
87.343461
 21
10.009480
 31
0.0
  0
LINE
  5
1c3
100
AcDbEntity
  8
Layer_1
 62
1
100
AcDbLine
 10
86.390882
 20
9.866212
 30
0.0
 11
86.390882
 21
10.949488
 31
0.0
  0
SPLINE
  5
1c4
100
AcDbEntity
  8
Layer_1
 62
1
100
AcDbSpline
 70
0
 71
3
 72
19
 73
15
 74
13
 40
0.000000
 40
0.000000
 40
0.000000
 40
0.000000
 40
0.029999
 40
0.055838
 40
0.077646
 40
0.097785
 40
0.116742
 40
0.135335
 40
0.155979
 40
0.178536
 40
0.203379
 40
0.232499
 40
0.266035
 40
0.304016
 40
0.304016
 40
0.304016
 40
0.304016
 10
86.256414
 20
9.633726
 30
0.0
 10
86.266042
 20
9.636440
 30
0.0
 10
86.283964
 20
9.641492
 30
0.0
 10
86.308308
 20
9.650308
 30
0.0
 10
86.329092
 20
9.659310
 30
0.0
 10
86.346153
 20
9.670527
 30
0.0
 10
86.359976
 20
9.684129
 30
0.0
 10
86.370306
 20
9.700705
 30
0.0
 10
86.378300
 20
9.719759
 30
0.0
 10
86.384101
 20
9.741758
 30
0.0
 10
86.387574
 20
9.767069
 30
0.0
 10
86.389402
 20
9.796185
 30
0.0
 10
86.390693
 20
9.829711
 30
0.0
 10
86.390816
 20
9.853551
 30
0.0
 10
86.390882
 20
9.866212
 30
0.0
 11
86.256414
 21
9.633726
 31
0.0
 11
86.285179
 21
9.642240
 31
0.0
 11
86.309476
 21
9.651036
 31
0.0
 11
86.329304
 21
9.660114
 31
0.0
 11
86.346064
 21
9.671280
 31
0.0
 11
86.359469
 21
9.684685
 31
0.0
 11
86.369517
 21
9.700328
 31
0.0
 11
86.377617
 21
9.719317
 31
0.0
 11
86.383478
 21
9.741099
 31
0.0
 11
86.387100
 21
9.765676
 31
0.0
 11
86.389201
 21
9.794721
 31
0.0
 11
86.390461
 21
9.828233
 31
0.0
 11
86.390882
 21
9.866212
 31
0.0
  0
LINE
  5
1c5
100
AcDbEntity
  8
Layer_1
 62
1
100
AcDbLine
 10
86.256400
 20
11.183236
 30
0.0
 11
86.256400
 21
11.266178
 31
0.0
  0
LINE
  5
1c6
100
AcDbEntity
  8
Layer_1
 62
1
100
AcDbLine
 10
86.256400
 20
11.266178
 30
0.0
 11
87.503060
 21
11.266162
 31
0.0
  0
SPLINE
  5
1c7
100
AcDbEntity
  8
Layer_1
 62
1
100
AcDbSpline
 70
0
 71
3
 72
19
 73
15
 74
13
 40
0.000000
 40
0.000000
 40
0.000000
 40
0.000000
 40
0.037285
 40
0.070403
 40
0.099383
 40
0.124688
 40
0.147142
 40
0.167215
 40
0.185809
 40
0.204766
 40
0.224904
 40
0.247451
 40
0.273978
 40
0.304727
 40
0.304727
 40
0.304727
 40
0.304727
 10
86.390882
 20
10.949488
 30
0.0
 10
86.390807
 20
10.961917
 30
0.0
 10
86.390665
 20
10.985384
 30
0.0
 10
86.389483
 20
11.018502
 30
0.0
 10
86.387290
 20
11.047549
 30
0.0
 10
86.384880
 20
11.073043
 30
0.0
 10
86.379538
 20
11.095130
 30
0.0
 10
86.371415
 20
11.113896
 30
0.0
 10
86.361215
 20
11.130300
 30
0.0
 10
86.347430
 20
11.143993
 30
0.0
 10
86.329968
 20
11.154956
 30
0.0
 10
86.309596
 20
11.165831
 30
0.0
 10
86.284647
 20
11.175286
 30
0.0
 10
86.266267
 20
11.180459
 30
0.0
 10
86.256400
 20
11.183236
 30
0.0
 11
86.390882
 21
10.949488
 31
0.0
 11
86.390461
 21
10.986771
 31
0.0
 11
86.389201
 21
11.019865
 31
0.0
 11
86.387100
 21
11.048769
 31
0.0
 11
86.384155
 21
11.073902
 31
0.0
 11
86.378708
 21
11.095685
 31
0.0
 11
86.370759
 21
11.114117
 31
0.0
 11
86.360709
 21
11.129761
 31
0.0
 11
86.347305
 21
11.143166
 31
0.0
 11
86.330545
 21
11.154331
 31
0.0
 11
86.310579
 21
11.164805
 31
0.0
 11
86.285864
 21
11.174440
 31
0.0
 11
86.256400
 21
11.183236
 31
0.0
  0
LINE
  5
1c8
100
AcDbEntity
  8
Layer_1
 62
5
100
AcDbLine
 10
76.247812
 20
9.566568
 30
0.0
 11
76.247812
 21
9.566568
 31
0.0
  0
SPLINE
  5
1c9
100
AcDbEntity
  8
Layer_1
 62
5
100
AcDbSpline
 70
0
 71
3
 72
40
 73
36
 74
34
 40
0.000000
 40
0.000000
 40
0.000000
 40
0.000000
 40
0.229438
 40
0.429939
 40
0.619369
 40
0.818403
 40
1.045090
 40
1.312067
 40
1.493528
 40
1.659021
 40
1.811809
 40
1.954389
 40
2.090272
 40
2.225386
 40
2.363515
 40
2.507916
 40
2.663375
 40
2.896662
 40
3.100047
 40
3.291156
 40
3.490221
 40
3.714968
 40
3.978387
 40
4.130923
 40
4.269523
 40
4.395709
 40
4.511783
 40
4.620088
 40
4.722972
 40
4.822879
 40
4.922114
 40
5.023203
 40
5.127916
 40
5.237416
 40
5.353152
 40
5.353152
 40
5.353152
 40
5.353152
 10
76.247812
 20
9.566568
 30
0.0
 10
76.171074
 20
9.570414
 30
0.0
 10
76.027276
 20
9.577621
 30
0.0
 10
75.830553
 20
9.652361
 30
0.0
 10
75.676617
 20
9.780072
 30
0.0
 10
75.570537
 20
9.959594
 30
0.0
 10
75.510710
 20
10.184663
 30
0.0
 10
75.495920
 20
10.410220
 30
0.0
 10
75.505831
 20
10.614955
 30
0.0
 10
75.535441
 20
10.779469
 30
0.0
 10
75.585466
 20
10.925429
 30
0.0
 10
75.655673
 20
11.051873
 30
0.0
 10
75.746404
 20
11.157062
 30
0.0
 10
75.856547
 20
11.239244
 30
0.0
 10
75.983668
 20
11.298206
 30
0.0
 10
76.126311
 20
11.333223
 30
0.0
 10
76.304178
 20
11.344940
 30
0.0
 10
76.502352
 20
11.327345
 30
0.0
 10
76.702127
 20
11.255136
 30
0.0
 10
76.858589
 20
11.127590
 30
0.0
 10
76.966673
 20
10.949485
 30
0.0
 10
77.027927
 20
10.726544
 30
0.0
 10
77.042010
 20
10.512418
 30
0.0
 10
77.035063
 20
10.327571
 30
0.0
 10
77.016907
 20
10.189379
 30
0.0
 10
76.985718
 20
10.065978
 30
0.0
 10
76.942657
 20
9.956997
 30
0.0
 10
76.889077
 20
9.861521
 30
0.0
 10
76.824305
 20
9.779942
 30
0.0
 10
76.749425
 20
9.712008
 30
0.0
 10
76.665226
 20
9.657118
 30
0.0
 10
76.571816
 20
9.615908
 30
0.0
 10
76.470407
 20
9.587395
 30
0.0
 10
76.361535
 20
9.569625
 30
0.0
 10
76.286413
 20
9.567606
 30
0.0
 10
76.247812
 20
9.566568
 30
0.0
 11
76.247812
 21
9.566568
 31
0.0
 11
76.019660
 21
9.590829
 31
0.0
 11
75.832836
 21
9.663612
 31
0.0
 11
75.687341
 21
9.784917
 31
0.0
 11
75.583315
 21
9.954602
 31
0.0
 11
75.520900
 21
10.172528
 31
0.0
 11
75.500095
 21
10.438693
 31
0.0
 11
75.510180
 21
10.619874
 31
0.0
 11
75.540435
 21
10.782577
 31
0.0
 11
75.590862
 21
10.926804
 31
0.0
 11
75.660894
 21
11.050999
 31
0.0
 11
75.749968
 21
11.153615
 31
0.0
 11
75.858085
 21
11.234650
 31
0.0
 11
75.983197
 21
11.293185
 31
0.0
 11
76.123262
 21
11.328307
 31
0.0
 11
76.278279
 21
11.340016
 31
0.0
 11
76.510309
 21
11.315824
 31
0.0
 11
76.700306
 21
11.243253
 31
0.0
 11
76.848270
 21
11.122302
 31
0.0
 11
76.954058
 21
10.953673
 31
0.0
 11
77.017532
 21
10.738075
 31
0.0
 11
77.038691
 21
10.475508
 31
0.0
 11
77.032413
 21
10.323100
 31
0.0
 11
77.013582
 21
10.185786
 31
0.0
 11
76.982199
 21
10.063565
 31
0.0
 11
76.939248
 21
9.955730
 31
0.0
 11
76.885719
 21
9.861578
 31
0.0
 11
76.821612
 21
9.781108
 31
0.0
 11
76.747629
 21
9.713967
 31
0.0
 11
76.664479
 21
9.659803
 31
0.0
 11
76.572161
 21
9.618616
 31
0.0
 11
76.471520
 21
9.589700
 31
0.0
 11
76.363403
 21
9.572351
 31
0.0
 11
76.247812
 21
9.566568
 31
0.0
  0
LINE
  5
1ca
100
AcDbEntity
  8
Layer_1
 62
5
100
AcDbLine
 10
75.903786
 20
10.472969
 30
0.0
 11
75.903786
 21
10.472969
 31
0.0
  0
SPLINE
  5
1cb
100
AcDbEntity
  8
Layer_1
 62
5
100
AcDbSpline
 70
0
 71
3
 72
40
 73
36
 74
34
 40
0.000000
 40
0.000000
 40
0.000000
 40
0.000000
 40
0.234018
 40
0.426685
 40
0.581968
 40
0.708565
 40
0.821174
 40
0.938346
 40
1.000544
 40
1.058692
 40
1.115721
 40
1.174157
 40
1.235642
 40
1.301870
 40
1.373554
 40
1.450953
 40
1.534744
 40
1.624472
 40
1.719458
 40
1.819908
 40
1.979288
 40
2.121039
 40
2.245957
 40
2.355026
 40
2.449867
 40
2.533235
 40
2.609296
 40
2.683919
 40
2.763286
 40
2.877181
 40
2.985581
 40
3.105852
 40
3.252953
 40
3.436296
 40
3.659872
 40
3.659872
 40
3.659872
 40
3.659872
 10
75.903786
 20
10.472969
 30
0.0
 10
75.905346
 20
10.394920
 30
0.0
 10
75.908191
 20
10.252613
 30
0.0
 10
75.937213
 20
10.060116
 30
0.0
 10
75.985847
 20
9.908556
 30
0.0
 10
76.058720
 20
9.796160
 30
0.0
 10
76.160009
 20
9.727290
 30
0.0
 10
76.258796
 20
9.711759
 30
0.0
 10
76.337958
 20
9.718554
 30
0.0
 10
76.394998
 20
9.736208
 30
0.0
 10
76.444952
 20
9.766446
 30
0.0
 10
76.488092
 20
9.807178
 30
0.0
 10
76.525431
 20
9.857083
 30
0.0
 10
76.556434
 20
9.916133
 30
0.0
 10
76.581806
 20
9.983411
 30
0.0
 10
76.601996
 20
10.058481
 30
0.0
 10
76.616515
 20
10.140936
 30
0.0
 10
76.626419
 20
10.229926
 30
0.0
 10
76.632507
 20
10.324822
 30
0.0
 10
76.634651
 20
10.443102
 30
0.0
 10
76.631234
 20
10.576995
 30
0.0
 10
76.618529
 20
10.718565
 30
0.0
 10
76.597002
 20
10.842130
 30
0.0
 10
76.566566
 20
10.947729
 30
0.0
 10
76.526775
 20
11.035298
 30
0.0
 10
76.477364
 20
11.105002
 30
0.0
 10
76.416839
 20
11.155869
 30
0.0
 10
76.344922
 20
11.185835
 30
0.0
 10
76.255436
 20
11.195598
 30
0.0
 10
76.153591
 20
11.180196
 30
0.0
 10
76.055024
 20
11.115955
 30
0.0
 10
75.983586
 20
11.010117
 30
0.0
 10
75.936192
 20
10.866452
 30
0.0
 10
75.908048
 20
10.683257
 30
0.0
 10
75.905297
 20
10.547538
 30
0.0
 10
75.903786
 20
10.472969
 30
0.0
 11
75.903786
 21
10.472969
 31
0.0
 11
75.914012
 21
10.239175
 31
0.0
 11
75.944690
 21
10.048966
 31
0.0
 11
75.995822
 21
9.902343
 31
0.0
 11
76.067970
 21
9.798316
 31
0.0
 11
76.161699
 21
9.735901
 31
0.0
 11
76.277009
 21
9.715096
 31
0.0
 11
76.338931
 21
9.720950
 31
0.0
 11
76.394364
 21
9.738511
 31
0.0
 11
76.443310
 21
9.767779
 31
0.0
 11
76.486118
 21
9.807556
 31
0.0
 11
76.523145
 21
9.856642
 31
0.0
 11
76.554388
 21
9.915037
 31
0.0
 11
76.580059
 21
9.981966
 31
0.0
 11
76.600371
 21
10.056653
 31
0.0
 11
76.615323
 21
10.139099
 31
0.0
 11
76.625548
 21
10.228243
 31
0.0
 11
76.631684
 21
10.323030
 31
0.0
 11
76.633730
 21
10.423460
 31
0.0
 11
76.629286
 21
10.582777
 31
0.0
 11
76.615957
 21
10.723900
 31
0.0
 11
76.593742
 21
10.846827
 31
0.0
 11
76.562569
 21
10.951346
 31
0.0
 11
76.522369
 21
11.037246
 31
0.0
 11
76.473142
 21
11.104529
 31
0.0
 11
76.414393
 21
11.152839
 31
0.0
 11
76.345631
 21
11.181825
 31
0.0
 11
76.266854
 21
11.191488
 31
0.0
 11
76.154646
 21
11.171951
 31
0.0
 11
76.063456
 21
11.113344
 31
0.0
 11
75.993283
 21
11.015667
 31
0.0
 11
75.943562
 21
10.877223
 31
0.0
 11
75.913729
 21
10.696324
 31
0.0
 11
75.903786
 21
10.472969
 31
0.0
  0
LINE
  5
1cc
100
AcDbEntity
  8
Layer_1
 62
5
100
AcDbLine
 10
77.895582
 20
9.124793
 30
0.0
 11
77.895582
 21
9.041008
 31
0.0
  0
LINE
  5
1cd
100
AcDbEntity
  8
Layer_1
 62
5
100
AcDbLine
 10
77.895582
 20
9.041008
 30
0.0
 11
77.263387
 21
9.041008
 31
0.0
  0
LINE
  5
1ce
100
AcDbEntity
  8
Layer_1
 62
5
100
AcDbLine
 10
77.263387
 20
9.041008
 30
0.0
 11
77.263387
 21
9.124793
 31
0.0
  0
SPLINE
  5
1cf
100
AcDbEntity
  8
Layer_1
 62
5
100
AcDbSpline
 70
0
 71
3
 72
16
 73
12
 74
10
 40
0.000000
 40
0.000000
 40
0.000000
 40
0.000000
 40
0.057278
 40
0.102260
 40
0.135189
 40
0.161040
 40
0.185027
 40
0.208140
 40
0.234253
 40
0.267455
 40
0.308522
 40
0.308522
 40
0.308522
 40
0.308522
 10
77.757210
 20
9.359645
 30
0.0
 10
77.757374
 20
9.340548
 30
0.0
 10
77.757665
 20
9.306454
 30
0.0
 10
77.760741
 20
9.261478
 30
0.0
 10
77.765936
 20
9.227177
 30
0.0
 10
77.774907
 20
9.200912
 30
0.0
 10
77.787111
 20
9.179713
 30
0.0
 10
77.803566
 20
9.161347
 30
0.0
 10
77.827060
 20
9.146576
 30
0.0
 10
77.858278
 20
9.134210
 30
0.0
 10
77.882299
 20
9.128146
 30
0.0
 10
77.895582
 20
9.124793
 30
0.0
 11
77.757210
 21
9.359645
 31
0.0
 11
77.758339
 21
9.302378
 31
0.0
 11
77.761724
 21
9.257523
 31
0.0
 11
77.767366
 21
9.225081
 31
0.0
 11
77.775899
 21
9.200679
 31
0.0
 11
77.787959
 21
9.179945
 31
0.0
 11
77.803546
 21
9.162877
 31
0.0
 11
77.825338
 21
9.148490
 31
0.0
 11
77.856017
 21
9.135795
 31
0.0
 11
77.895582
 21
9.124793
 31
0.0
  0
LINE
  5
1d0
100
AcDbEntity
  8
Layer_1
 62
5
100
AcDbLine
 10
77.390333
 20
9.359645
 30
0.0
 11
77.390333
 21
10.470430
 31
0.0
  0
SPLINE
  5
1d1
100
AcDbEntity
  8
Layer_1
 62
5
100
AcDbSpline
 70
0
 71
3
 72
16
 73
12
 74
10
 40
0.000000
 40
0.000000
 40
0.000000
 40
0.000000
 40
0.037804
 40
0.068468
 40
0.092596
 40
0.114192
 40
0.137208
 40
0.162500
 40
0.195221
 40
0.240414
 40
0.298327
 40
0.298327
 40
0.298327
 40
0.298327
 10
77.263387
 20
9.124793
 30
0.0
 10
77.275402
 20
9.128620
 30
0.0
 10
77.297165
 20
9.135552
 30
0.0
 10
77.325307
 20
9.148431
 30
0.0
 10
77.346595
 20
9.162806
 30
0.0
 10
77.361627
 20
9.180406
 30
0.0
 10
77.372875
 20
9.200951
 30
0.0
 10
77.381607
 20
9.226656
 30
0.0
 10
77.386843
 20
9.260769
 30
0.0
 10
77.389874
 20
9.305962
 30
0.0
 10
77.390168
 20
9.340337
 30
0.0
 10
77.390333
 20
9.359645
 30
0.0
 11
77.263387
 21
9.124793
 31
0.0
 11
77.299143
 21
9.137065
 31
0.0
 11
77.326860
 21
9.150183
 31
0.0
 11
77.346537
 21
9.164147
 31
0.0
 11
77.360712
 21
9.180438
 31
0.0
 11
77.371926
 21
9.200538
 31
0.0
 11
77.380178
 21
9.224446
 31
0.0
 11
77.385820
 21
9.256677
 31
0.0
 11
77.389205
 21
9.301743
 31
0.0
 11
77.390333
 21
9.359645
 31
0.0
  0
LINE
  5
1d2
100
AcDbEntity
  8
Layer_1
 62
5
100
AcDbLine
 10
77.249422
 20
10.759869
 30
0.0
 11
77.249422
 21
10.846192
 31
0.0
  0
LINE
  5
1d3
100
AcDbEntity
  8
Layer_1
 62
5
100
AcDbLine
 10
77.249422
 20
10.846192
 30
0.0
 11
77.601065
 21
10.856348
 31
0.0
  0
LINE
  5
1d4
100
AcDbEntity
  8
Layer_1
 62
5
100
AcDbLine
 10
77.601065
 20
10.856348
 30
0.0
 11
77.757210
 21
10.856348
 31
0.0
  0
LINE
  5
1d5
100
AcDbEntity
  8
Layer_1
 62
5
100
AcDbLine
 10
77.757210
 20
10.856348
 30
0.0
 11
77.738168
 21
10.672275
 31
0.0
  0
LINE
  5
1d6
100
AcDbEntity
  8
Layer_1
 62
5
100
AcDbLine
 10
77.738168
 20
10.672275
 30
0.0
 11
77.753401
 21
10.668466
 31
0.0
  0
SPLINE
  5
1d7
100
AcDbEntity
  8
Layer_1
 62
5
100
AcDbSpline
 70
0
 71
3
 72
22
 73
18
 74
16
 40
0.000000
 40
0.000000
 40
0.000000
 40
0.000000
 40
0.054305
 40
0.097049
 40
0.128239
 40
0.152428
 40
0.174212
 40
0.193689
 40
0.211219
 40
0.227224
 40
0.241960
 40
0.256643
 40
0.272602
 40
0.290214
 40
0.311003
 40
0.336499
 40
0.366880
 40
0.366880
 40
0.366880
 40
0.366880
 10
77.390333
 20
10.470430
 30
0.0
 10
77.390305
 20
10.488531
 30
0.0
 10
77.390253
 20
10.520881
 30
0.0
 10
77.389642
 20
10.563624
 30
0.0
 10
77.388751
 20
10.596323
 30
0.0
 10
77.386915
 20
10.621991
 30
0.0
 10
77.384013
 20
10.643630
 30
0.0
 10
77.379989
 20
10.662832
 30
0.0
 10
77.374739
 20
10.679740
 30
0.0
 10
77.368197
 20
10.694482
 30
0.0
 10
77.360239
 20
10.707438
 30
0.0
 10
77.350051
 20
10.718737
 30
0.0
 10
77.337330
 20
10.728679
 30
0.0
 10
77.321665
 20
10.737889
 30
0.0
 10
77.301950
 20
10.746088
 30
0.0
 10
77.277486
 20
10.753582
 30
0.0
 10
77.259306
 20
10.757654
 30
0.0
 10
77.249422
 20
10.759869
 30
0.0
 11
77.390333
 21
10.470430
 31
0.0
 11
77.390118
 21
10.524734
 31
0.0
 11
77.389480
 21
10.567473
 31
0.0
 11
77.388429
 21
10.598646
 31
0.0
 11
77.386596
 21
10.622765
 31
0.0
 11
77.383634
 21
10.644346
 31
0.0
 11
77.379542
 21
10.663389
 31
0.0
 11
77.374253
 21
10.680103
 31
0.0
 11
77.367694
 21
10.694702
 31
0.0
 11
77.359865
 21
10.707186
 31
0.0
 11
77.350062
 21
10.718117
 31
0.0
 11
77.337579
 21
10.728061
 31
0.0
 11
77.322416
 21
10.737018
 31
0.0
 11
77.303304
 21
10.745199
 31
0.0
 11
77.278972
 21
10.752815
 31
0.0
 11
77.249422
 21
10.759869
 31
0.0
  0
LINE
  5
1d8
100
AcDbEntity
  8
Layer_1
 62
5
100
AcDbLine
 10
77.757210
 20
9.599574
 30
0.0
 11
77.757210
 21
9.359645
 31
0.0
  0
SPLINE
  5
1d9
100
AcDbEntity
  8
Layer_1
 62
5
100
AcDbSpline
 70
0
 71
3
 72
31
 73
27
 74
25
 40
0.000000
 40
0.000000
 40
0.000000
 40
0.000000
 40
0.095496
 40
0.180170
 40
0.254904
 40
0.323593
 40
0.390359
 40
0.456783
 40
0.596002
 40
0.720844
 40
0.845568
 40
0.984347
 40
1.147645
 40
1.342067
 40
1.480708
 40
1.605210
 40
1.718023
 40
1.822174
 40
1.921518
 40
2.020760
 40
2.124138
 40
2.235258
 40
2.357405
 40
2.444089
 40
2.530272
 40
2.616591
 40
2.616591
 40
2.616591
 40
2.616591
 10
77.753401
 20
10.668466
 30
0.0
 10
77.776732
 20
10.690147
 30
0.0
 10
77.820752
 20
10.731050
 30
0.0
 10
77.888900
 20
10.782088
 30
0.0
 10
77.954550
 20
10.820858
 30
0.0
 10
78.019695
 20
10.847313
 30
0.0
 10
78.085416
 20
10.863178
 30
0.0
 10
78.176231
 20
10.869519
 30
0.0
 10
78.287191
 20
10.856861
 30
0.0
 10
78.407581
 20
10.802192
 30
0.0
 10
78.499657
 20
10.707280
 30
0.0
 10
78.562085
 20
10.577446
 30
0.0
 10
78.597571
 20
10.414780
 30
0.0
 10
78.606708
 20
10.249087
 30
0.0
 10
78.599852
 20
10.096478
 30
0.0
 10
78.578258
 20
9.972602
 30
0.0
 10
78.541583
 20
9.864283
 30
0.0
 10
78.489521
 20
9.771781
 30
0.0
 10
78.421924
 20
9.695731
 30
0.0
 10
78.339167
 20
9.636987
 30
0.0
 10
78.242375
 20
9.595570
 30
0.0
 10
78.132263
 20
9.571272
 30
0.0
 10
78.025437
 20
9.564807
 30
0.0
 10
77.927125
 20
9.569073
 30
0.0
 10
77.841217
 20
9.579702
 30
0.0
 10
77.785227
 20
9.592946
 30
0.0
 10
77.757210
 20
9.599574
 30
0.0
 11
77.753401
 21
10.668466
 31
0.0
 11
77.824561
 21
10.732150
 31
0.0
 11
77.892478
 21
10.782717
 31
0.0
 11
77.957151
 21
10.820168
 31
0.0
 11
78.020835
 21
10.845909
 31
0.0
 11
78.085789
 21
10.861354
 31
0.0
 11
78.152014
 21
10.866503
 31
0.0
 11
78.290103
 21
10.848800
 31
0.0
 11
78.403086
 21
10.795694
 31
0.0
 11
78.490962
 21
10.707185
 31
0.0
 11
78.553730
 21
10.583411
 31
0.0
 11
78.591391
 21
10.424516
 31
0.0
 11
78.603945
 21
10.230500
 31
0.0
 11
78.596539
 21
10.092057
 31
0.0
 11
78.574323
 21
9.969553
 31
0.0
 11
78.537298
 21
9.862988
 31
0.0
 11
78.485601
 21
9.772574
 31
0.0
 11
78.419377
 21
9.698521
 31
0.0
 11
78.338626
 21
9.640831
 31
0.0
 11
78.243838
 21
9.599573
 31
0.0
 11
78.135510
 21
9.574819
 31
0.0
 11
78.013642
 21
9.566567
 31
0.0
 11
77.927036
 21
9.570234
 31
0.0
 11
77.841558
 21
9.581237
 31
0.0
 11
77.757210
 21
9.599574
 31
0.0
  0
LINE
  5
1da
100
AcDbEntity
  8
Layer_1
 62
5
100
AcDbLine
 10
77.757210
 20
10.433615
 30
0.0
 11
77.757210
 21
10.003265
 31
0.0
  0
SPLINE
  5
1db
100
AcDbEntity
  8
Layer_1
 62
5
100
AcDbSpline
 70
0
 71
3
 72
34
 73
30
 74
28
 40
0.000000
 40
0.000000
 40
0.000000
 40
0.000000
 40
0.095187
 40
0.174068
 40
0.239895
 40
0.299146
 40
0.360049
 40
0.429306
 40
0.502311
 40
0.574437
 40
0.657250
 40
0.756627
 40
0.875000
 40
1.015020
 40
1.169030
 40
1.295211
 40
1.395779
 40
1.476338
 40
1.546608
 40
1.618906
 40
1.656778
 40
1.695062
 40
1.734840
 40
1.775273
 40
1.815685
 40
1.857280
 40
1.899293
 40
1.941288
 40
1.984828
 40
1.984828
 40
1.984828
 40
1.984828
 10
77.757210
 20
10.003265
 30
0.0
 10
77.758127
 20
9.971497
 30
0.0
 10
77.759803
 20
9.913404
 30
0.0
 10
77.777067
 20
9.834747
 30
0.0
 10
77.806839
 20
9.772600
 30
0.0
 10
77.852043
 20
9.728065
 30
0.0
 10
77.911353
 20
9.703052
 30
0.0
 10
77.979224
 20
9.695393
 30
0.0
 10
78.051644
 20
9.706756
 30
0.0
 10
78.115493
 20
9.752365
 30
0.0
 10
78.162308
 20
9.824550
 30
0.0
 10
78.195268
 20
9.919827
 30
0.0
 10
78.214599
 20
10.037943
 30
0.0
 10
78.219814
 20
10.175509
 30
0.0
 10
78.214982
 20
10.315634
 30
0.0
 10
78.198138
 20
10.441742
 30
0.0
 10
78.169130
 20
10.540583
 30
0.0
 10
78.125428
 20
10.613831
 30
0.0
 10
78.063356
 20
10.659157
 30
0.0
 10
78.002172
 20
10.669297
 30
0.0
 10
77.952755
 20
10.665017
 30
0.0
 10
77.915200
 20
10.655049
 30
0.0
 10
77.879027
 20
10.638817
 30
0.0
 10
77.845179
 20
10.616748
 30
0.0
 10
77.815410
 20
10.588527
 30
0.0
 10
77.790387
 20
10.555375
 30
0.0
 10
77.771201
 20
10.517932
 30
0.0
 10
77.759276
 20
10.476709
 30
0.0
 10
77.757907
 20
10.448152
 30
0.0
 10
77.757210
 20
10.433615
 30
0.0
 11
77.757210
 21
10.003265
 31
0.0
 11
77.763205
 21
9.908267
 31
0.0
 11
77.781188
 21
9.831464
 31
0.0
 11
77.811162
 21
9.772857
 31
0.0
 11
77.853689
 21
9.731599
 31
0.0
 11
77.909334
 21
9.706844
 31
0.0
 11
77.978097
 21
9.698593
 31
0.0
 11
78.049822
 21
9.712204
 31
0.0
 11
78.109275
 21
9.753039
 31
0.0
 11
78.156458
 21
9.821097
 31
0.0
 11
78.190662
 21
9.914402
 31
0.0
 11
78.211185
 21
10.030982
 31
0.0
 11
78.218027
 21
10.170835
 31
0.0
 11
78.211891
 21
10.324722
 31
0.0
 11
78.193483
 21
10.449553
 31
0.0
 11
78.162805
 21
10.545329
 31
0.0
 11
78.119149
 21
10.613033
 31
0.0
 11
78.061812
 21
10.653656
 31
0.0
 11
77.990793
 21
10.667198
 31
0.0
 11
77.953060
 21
10.663953
 31
0.0
 11
77.916034
 21
10.654220
 31
0.0
 11
77.879714
 21
10.638000
 31
0.0
 11
77.845931
 21
10.615783
 31
0.0
 11
77.816522
 21
10.588066
 31
0.0
 11
77.791486
 21
10.554849
 31
0.0
 11
77.772443
 21
10.517399
 31
0.0
 11
77.761018
 21
10.476988
 31
0.0
 11
77.757210
 21
10.433615
 31
0.0
  0
LINE
  5
1dc
100
AcDbEntity
  8
Layer_1
 62
5
100
AcDbLine
 10
80.018134
 20
10.212728
 30
0.0
 11
79.213291
 21
10.212728
 31
0.0
  0
SPLINE
  5
1dd
100
AcDbEntity
  8
Layer_1
 62
5
100
AcDbSpline
 70
0
 71
3
 72
43
 73
39
 74
37
 40
0.000000
 40
0.000000
 40
0.000000
 40
0.000000
 40
0.119215
 40
0.226444
 40
0.323481
 40
0.417842
 40
0.517014
 40
0.622992
 40
0.804783
 40
0.962608
 40
1.109168
 40
1.259412
 40
1.427117
 40
1.622825
 40
1.753928
 40
1.874939
 40
1.988944
 40
2.097369
 40
2.201963
 40
2.307068
 40
2.414888
 40
2.527024
 40
2.646659
 40
2.720559
 40
2.788634
 40
2.851549
 40
2.910315
 40
2.965857
 40
3.018964
 40
3.070707
 40
3.122101
 40
3.173963
 40
3.237122
 40
3.302656
 40
3.371282
 40
3.447801
 40
3.533318
 40
3.628311
 40
3.628311
 40
3.628311
 40
3.628311
 10
79.985128
 20
9.817923
 30
0.0
 10
79.957096
 20
9.789704
 30
0.0
 10
79.903850
 20
9.736103
 30
0.0
 10
79.817753
 20
9.670570
 30
0.0
 10
79.730667
 20
9.621526
 30
0.0
 10
79.638895
 20
9.589207
 30
0.0
 10
79.540506
 20
9.570315
 30
0.0
 10
79.411484
 20
9.563429
 30
0.0
 10
79.262380
 20
9.575934
 30
0.0
 10
79.106977
 20
9.629275
 30
0.0
 10
78.984576
 20
9.723564
 30
0.0
 10
78.899315
 20
9.856010
 30
0.0
 10
78.851194
 20
10.022137
 30
0.0
 10
78.839126
 20
10.187403
 30
0.0
 10
78.847516
 20
10.336779
 30
0.0
 10
78.872817
 20
10.456750
 30
0.0
 10
78.915507
 20
10.563617
 30
0.0
 10
78.974110
 20
10.656323
 30
0.0
 10
79.048048
 20
10.733408
 30
0.0
 10
79.136304
 20
10.793146
 30
0.0
 10
79.236513
 20
10.835920
 30
0.0
 10
79.347358
 20
10.861435
 30
0.0
 10
79.449413
 20
10.868050
 30
0.0
 10
79.536625
 20
10.864741
 30
0.0
 10
79.604497
 20
10.856148
 30
0.0
 10
79.666133
 20
10.841341
 30
0.0
 10
79.721764
 20
10.821128
 30
0.0
 10
79.771938
 20
10.796404
 30
0.0
 10
79.816617
 20
10.766759
 30
0.0
 10
79.856026
 20
10.732502
 30
0.0
 10
79.890615
 20
10.693931
 30
0.0
 10
79.922054
 20
10.648061
 30
0.0
 10
79.949953
 20
10.594580
 30
0.0
 10
79.974129
 20
10.533289
 30
0.0
 10
79.993123
 20
10.465568
 30
0.0
 10
80.007259
 20
10.389902
 30
0.0
 10
80.015989
 20
10.304562
 30
0.0
 10
80.017394
 20
10.244392
 30
0.0
 10
80.018134
 20
10.212728
 30
0.0
 11
79.985128
 21
9.817923
 31
0.0
 11
79.899085
 21
9.735407
 31
0.0
 11
79.813608
 21
9.670665
 31
0.0
 11
79.728695
 21
9.623694
 31
0.0
 11
79.639832
 21
9.591957
 31
0.0
 11
79.542506
 21
9.572915
 31
0.0
 11
79.436717
 21
9.566568
 31
0.0
 11
79.255818
 21
9.584552
 31
0.0
 11
79.107501
 21
9.638505
 31
0.0
 11
78.991769
 21
9.728425
 31
0.0
 11
78.908900
 21
9.853750
 31
0.0
 11
78.859179
 21
10.013915
 31
0.0
 11
78.842606
 21
10.208919
 31
0.0
 11
78.851139
 21
10.339745
 31
0.0
 11
78.876740
 21
10.458017
 31
0.0
 11
78.919408
 21
10.563736
 31
0.0
 11
78.977733
 21
10.655137
 31
0.0
 11
79.050305
 21
10.730458
 31
0.0
 11
79.137122
 21
10.789701
 31
0.0
 11
79.236141
 21
10.832368
 31
0.0
 11
79.345315
 21
10.857969
 31
0.0
 11
79.464646
 21
10.866504
 31
0.0
 11
79.538486
 21
10.863541
 31
0.0
 11
79.605979
 21
10.854655
 31
0.0
 11
79.667126
 21
10.839845
 31
0.0
 11
79.722347
 21
10.819744
 31
0.0
 11
79.772068
 21
10.794990
 31
0.0
 11
79.816288
 21
10.765581
 31
0.0
 11
79.855359
 21
10.731657
 31
0.0
 11
79.889635
 21
10.693362
 31
0.0
 11
79.919115
 21
10.650694
 31
0.0
 11
79.948594
 21
10.594837
 31
0.0
 11
79.972714
 21
10.533902
 31
0.0
 11
79.991475
 21
10.467891
 31
0.0
 11
80.005720
 21
10.392710
 31
0.0
 11
80.014607
 21
10.307655
 31
0.0
 11
80.018134
 21
10.212728
 31
0.0
  0
LINE
  5
1de
100
AcDbEntity
  8
Layer_1
 62
5
100
AcDbLine
 10
79.882301
 20
9.929636
 30
0.0
 11
79.985128
 21
9.817923
 31
0.0
  0
SPLINE
  5
1df
100
AcDbEntity
  8
Layer_1
 62
5
100
AcDbSpline
 70
0
 71
3
 72
19
 73
15
 74
13
 40
0.000000
 40
0.000000
 40
0.000000
 40
0.000000
 40
0.140046
 40
0.256073
 40
0.352950
 40
0.440244
 40
0.529762
 40
0.631123
 40
0.693456
 40
0.752669
 40
0.810047
 40
0.871105
 40
0.941308
 40
1.021596
 40
1.021596
 40
1.021596
 40
1.021596
 10
79.213291
 20
10.212728
 30
0.0
 10
79.214909
 20
10.165997
 30
0.0
 10
79.217869
 20
10.080549
 30
0.0
 10
79.244092
 20
9.964990
 30
0.0
 10
79.288854
 20
9.873937
 30
0.0
 10
79.355916
 20
9.809098
 30
0.0
 10
79.442929
 20
9.772175
 30
0.0
 10
79.527853
 20
9.763822
 30
0.0
 10
79.602154
 20
9.768330
 30
0.0
 10
79.660802
 20
9.780352
 30
0.0
 10
79.716583
 20
9.801026
 30
0.0
 10
79.771089
 20
9.832864
 30
0.0
 10
79.827145
 20
9.875939
 30
0.0
 10
79.863112
 20
9.910955
 30
0.0
 10
79.882301
 20
9.929636
 30
0.0
 11
79.213291
 21
10.212728
 31
0.0
 11
79.222952
 21
10.073015
 31
0.0
 11
79.250246
 21
9.960244
 31
0.0
 11
79.295171
 21
9.874414
 31
0.0
 11
79.358292
 21
9.814114
 31
0.0
 11
79.440172
 21
9.777935
 31
0.0
 11
79.540813
 21
9.765875
 31
0.0
 11
79.603017
 21
9.769895
 31
0.0
 11
79.660989
 21
9.781954
 31
0.0
 11
79.714731
 21
9.802054
 31
0.0
 11
79.767766
 21
9.832310
 31
0.0
 11
79.823622
 21
9.874837
 31
0.0
 11
79.882301
 21
9.929636
 31
0.0
  0
LINE
  5
1e0
100
AcDbEntity
  8
Layer_1
 62
5
100
AcDbLine
 10
79.219638
 20
10.349830
 30
0.0
 11
79.642371
 21
10.349830
 31
0.0
  0
LINE
  5
1e1
100
AcDbEntity
  8
Layer_1
 62
5
100
AcDbLine
 10
81.597353
 20
9.586879
 30
0.0
 11
80.981661
 21
9.586879
 31
0.0
  0
LINE
  5
1e2
100
AcDbEntity
  8
Layer_1
 62
5
100
AcDbLine
 10
80.981661
 20
9.586879
 30
0.0
 11
80.981661
 21
9.670665
 31
0.0
  0
SPLINE
  5
1e3
100
AcDbEntity
  8
Layer_1
 62
5
100
AcDbSpline
 70
0
 71
3
 72
19
 73
15
 74
13
 40
0.000000
 40
0.000000
 40
0.000000
 40
0.000000
 40
0.118746
 40
0.216700
 40
0.295568
 40
0.359932
 40
0.418384
 40
0.480786
 40
0.542498
 40
0.603951
 40
0.673741
 40
0.756508
 40
0.854471
 40
0.969855
 40
0.969855
 40
0.969855
 40
0.969855
 10
79.642371
 20
10.349830
 30
0.0
 10
79.640612
 20
10.389401
 30
0.0
 10
79.637403
 20
10.461613
 30
0.0
 10
79.621109
 20
10.559067
 30
0.0
 10
79.596649
 20
10.636071
 30
0.0
 10
79.559541
 20
10.693808
 30
0.0
 10
79.506052
 20
10.728505
 30
0.0
 10
79.444546
 20
10.737742
 30
0.0
 10
79.382148
 20
10.727624
 30
0.0
 10
79.326935
 20
10.691308
 30
0.0
 10
79.283942
 20
10.633128
 30
0.0
 10
79.251467
 20
10.555649
 30
0.0
 10
79.228922
 20
10.459116
 30
0.0
 10
79.222896
 20
10.388189
 30
0.0
 10
79.219638
 20
10.349830
 30
0.0
 11
79.642371
 21
10.349830
 31
0.0
 11
79.634471
 21
10.468313
 31
0.0
 11
79.617545
 21
10.564793
 31
0.0
 11
79.591592
 21
10.639269
 31
0.0
 11
79.554918
 21
10.692163
 31
0.0
 11
79.505832
 21
10.723900
 31
0.0
 11
79.444334
 21
10.734479
 31
0.0
 11
79.383611
 21
10.723476
 31
0.0
 11
79.331774
 21
10.690470
 31
0.0
 11
79.288824
 21
10.635461
 31
0.0
 11
79.255465
 21
10.559715
 31
0.0
 11
79.232403
 21
10.464505
 31
0.0
 11
79.219638
 21
10.349830
 31
0.0
  0
LINE
  5
1e4
100
AcDbEntity
  8
Layer_1
 62
5
100
AcDbLine
 10
81.102260
 20
9.952486
 30
0.0
 11
81.102260
 21
10.291435
 31
0.0
  0
SPLINE
  5
1e5
100
AcDbEntity
  8
Layer_1
 62
5
100
AcDbSpline
 70
0
 71
3
 72
16
 73
12
 74
10
 40
0.000000
 40
0.000000
 40
0.000000
 40
0.000000
 40
0.036607
 40
0.066980
 40
0.092424
 40
0.116875
 40
0.143518
 40
0.173161
 40
0.212570
 40
0.268283
 40
0.340437
 40
0.340437
 40
0.340437
 40
0.340437
 10
80.981661
 20
9.670665
 30
0.0
 10
80.993452
 20
9.673866
 30
0.0
 10
81.015027
 20
9.679722
 30
0.0
 10
81.042977
 20
9.693290
 30
0.0
 10
81.063632
 20
9.710870
 30
0.0
 10
81.077538
 20
9.732556
 30
0.0
 10
81.087912
 20
9.757493
 30
0.0
 10
81.095338
 20
9.788645
 30
0.0
 10
81.099415
 20
9.830097
 30
0.0
 10
81.101906
 20
9.885805
 30
0.0
 10
81.102132
 20
9.928432
 30
0.0
 10
81.102260
 20
9.952486
 30
0.0
 11
80.981661
 21
9.670665
 31
0.0
 11
81.016641
 21
9.681455
 31
0.0
 11
81.043723
 21
9.695207
 31
0.0
 11
81.062907
 21
9.711922
 31
0.0
 11
81.076518
 21
9.732234
 31
0.0
 11
81.086885
 21
9.756777
 31
0.0
 11
81.094009
 21
9.785551
 31
0.0
 11
81.098592
 21
9.824693
 31
0.0
 11
81.101342
 21
9.880338
 31
0.0
 11
81.102260
 21
9.952486
 31
0.0
  0
LINE
  5
1e6
100
AcDbEntity
  8
Layer_1
 62
5
100
AcDbLine
 10
80.708725
 20
10.442502
 30
0.0
 11
80.708725
 21
9.953756
 31
0.0
  0
SPLINE
  5
1e7
100
AcDbEntity
  8
Layer_1
 62
5
100
AcDbSpline
 70
0
 71
3
 72
34
 73
30
 74
28
 40
0.000000
 40
0.000000
 40
0.000000
 40
0.000000
 40
0.056492
 40
0.105806
 40
0.147964
 40
0.184270
 40
0.216051
 40
0.243384
 40
0.267403
 40
0.289293
 40
0.309290
 40
0.327795
 40
0.345110
 40
0.361417
 40
0.377147
 40
0.392788
 40
0.408635
 40
0.425809
 40
0.445439
 40
0.467741
 40
0.500492
 40
0.535370
 40
0.573441
 40
0.613230
 40
0.653343
 40
0.694736
 40
0.735708
 40
0.774986
 40
0.814186
 40
0.814186
 40
0.814186
 40
0.814186
 10
81.102260
 20
10.291435
 30
0.0
 10
81.102190
 20
10.310266
 30
0.0
 10
81.102058
 20
10.345535
 30
0.0
 10
81.100825
 20
10.394845
 30
0.0
 10
81.098799
 20
10.437395
 30
0.0
 10
81.095810
 20
10.474030
 30
0.0
 10
81.091892
 20
10.505606
 30
0.0
 10
81.086964
 20
10.532897
 30
0.0
 10
81.080731
 20
10.556530
 30
0.0
 10
81.073201
 20
10.577213
 30
0.0
 10
81.064097
 20
10.595222
 30
0.0
 10
81.053905
 20
10.610822
 30
0.0
 10
81.043120
 20
10.624479
 30
0.0
 10
81.031545
 20
10.636223
 30
0.0
 10
81.018988
 20
10.646046
 30
0.0
 10
81.005310
 20
10.653932
 30
0.0
 10
80.990252
 20
10.660102
 30
0.0
 10
80.973159
 20
10.664333
 30
0.0
 10
80.953569
 20
10.666690
 30
0.0
 10
80.928673
 20
10.667771
 30
0.0
 10
80.898642
 20
10.664870
 30
0.0
 10
80.864784
 20
10.654420
 30
0.0
 10
80.830911
 20
10.637878
 30
0.0
 10
80.798230
 20
10.615717
 30
0.0
 10
80.768777
 20
10.587784
 30
0.0
 10
80.743453
 20
10.555565
 30
0.0
 10
80.723590
 20
10.520029
 30
0.0
 10
80.710985
 20
10.481801
 30
0.0
 10
80.709478
 20
10.455593
 30
0.0
 10
80.708725
 20
10.442502
 30
0.0
 11
81.102260
 21
10.291435
 31
0.0
 11
81.101835
 21
10.347925
 31
0.0
 11
81.100565
 21
10.397223
 31
0.0
 11
81.098451
 21
10.439328
 31
0.0
 11
81.095418
 21
10.475507
 31
0.0
 11
81.091398
 21
10.507032
 31
0.0
 11
81.086392
 21
10.533903
 31
0.0
 11
81.080183
 21
10.557106
 31
0.0
 11
81.072567
 21
10.577629
 31
0.0
 11
81.063542
 21
10.595472
 31
0.0
 11
81.053456
 21
10.610987
 31
0.0
 11
81.042665
 21
10.624529
 31
0.0
 11
81.031170
 21
10.636095
 31
0.0
 11
81.018757
 21
10.645757
 31
0.0
 11
81.005216
 21
10.653585
 31
0.0
 11
80.990547
 21
10.659581
 31
0.0
 11
80.973902
 21
10.663811
 31
0.0
 11
80.954437
 21
10.666350
 31
0.0
 11
80.932151
 21
10.667198
 31
0.0
 11
80.899568
 21
10.663882
 31
0.0
 11
80.866138
 21
10.653938
 31
0.0
 11
80.831863
 21
10.637365
 31
0.0
 11
80.798998
 21
10.614937
 31
0.0
 11
80.769800
 21
10.587432
 31
0.0
 11
80.744270
 21
10.554849
 31
0.0
 11
80.724522
 21
10.518951
 31
0.0
 11
80.712674
 21
10.481502
 31
0.0
 11
80.708725
 21
10.442502
 31
0.0
  0
LINE
  5
1e8
100
AcDbEntity
  8
Layer_1
 62
5
100
AcDbLine
 10
80.830594
 20
9.670665
 30
0.0
 11
80.830594
 21
9.586879
 31
0.0
  0
LINE
  5
1e9
100
AcDbEntity
  8
Layer_1
 62
5
100
AcDbLine
 10
80.830594
 20
9.586879
 30
0.0
 11
80.217441
 21
9.586879
 31
0.0
  0
LINE
  5
1ea
100
AcDbEntity
  8
Layer_1
 62
5
100
AcDbLine
 10
80.217441
 20
9.586879
 30
0.0
 11
80.217441
 21
9.670665
 31
0.0
  0
SPLINE
  5
1eb
100
AcDbEntity
  8
Layer_1
 62
5
100
AcDbSpline
 70
0
 71
3
 72
16
 73
12
 74
10
 40
0.000000
 40
0.000000
 40
0.000000
 40
0.000000
 40
0.072224
 40
0.128138
 40
0.167858
 40
0.197778
 40
0.224616
 40
0.249283
 40
0.275101
 40
0.306042
 40
0.343391
 40
0.343391
 40
0.343391
 40
0.343391
 10
80.708725
 20
9.953756
 30
0.0
 10
80.708840
 20
9.929679
 30
0.0
 10
80.709044
 20
9.886962
 30
0.0
 10
80.711380
 20
9.831054
 30
0.0
 10
80.715070
 20
9.789314
 30
0.0
 10
80.722095
 20
9.757796
 30
0.0
 10
80.732476
 20
9.732588
 30
0.0
 10
80.746740
 20
9.710795
 30
0.0
 10
80.767948
 20
9.693268
 30
0.0
 10
80.796515
 20
9.679713
 30
0.0
 10
80.818545
 20
9.673864
 30
0.0
 10
80.830594
 20
9.670665
 30
0.0
 11
80.708725
 21
9.953756
 31
0.0
 11
80.709571
 21
9.881537
 31
0.0
 11
80.712111
 21
9.825681
 31
0.0
 11
80.716342
 21
9.786186
 31
0.0
 11
80.723182
 21
9.757059
 31
0.0
 11
80.733549
 21
9.732304
 31
0.0
 11
80.747443
 21
9.711922
 31
0.0
 11
80.767120
 21
9.695207
 31
0.0
 11
80.794837
 21
9.681455
 31
0.0
 11
80.830594
 21
9.670665
 31
0.0
  0
LINE
  5
1ec
100
AcDbEntity
  8
Layer_1
 62
5
100
AcDbLine
 10
80.341848
 20
9.952486
 30
0.0
 11
80.341848
 21
10.474238
 31
0.0
  0
SPLINE
  5
1ed
100
AcDbEntity
  8
Layer_1
 62
5
100
AcDbSpline
 70
0
 71
3
 72
16
 73
12
 74
10
 40
0.000000
 40
0.000000
 40
0.000000
 40
0.000000
 40
0.038427
 40
0.070031
 40
0.095911
 40
0.120212
 40
0.146550
 40
0.175800
 40
0.214859
 40
0.270361
 40
0.342444
 40
0.342444
 40
0.342444
 40
0.342444
 10
80.217441
 20
9.670665
 30
0.0
 10
80.229724
 20
9.674344
 30
0.0
 10
80.252111
 20
9.681049
 30
0.0
 10
80.281000
 20
9.695205
 30
0.0
 10
80.302424
 20
9.712608
 30
0.0
 10
80.316863
 20
9.733951
 30
0.0
 10
80.327454
 20
9.758507
 30
0.0
 10
80.334959
 20
9.789288
 30
0.0
 10
80.339002
 20
9.830427
 30
0.0
 10
80.341499
 20
9.885922
 30
0.0
 10
80.341722
 20
9.928456
 30
0.0
 10
80.341848
 20
9.952486
 30
0.0
 11
80.217441
 21
9.670665
 31
0.0
 11
80.253902
 21
9.682795
 31
0.0
 11
80.282042
 21
9.697182
 31
0.0
 11
80.301860
 21
9.713826
 31
0.0
 11
80.315824
 21
9.733715
 31
0.0
 11
80.326403
 21
9.757835
 31
0.0
 11
80.333597
 21
9.786186
 31
0.0
 11
80.338180
 21
9.824975
 31
0.0
 11
80.340931
 21
9.880409
 31
0.0
 11
80.341848
 21
9.952486
 31
0.0
  0
LINE
  5
1ee
100
AcDbEntity
  8
Layer_1
 62
5
100
AcDbLine
 10
80.200939
 20
10.759869
 30
0.0
 11
80.200939
 21
10.846192
 31
0.0
  0
LINE
  5
1ef
100
AcDbEntity
  8
Layer_1
 62
5
100
AcDbLine
 10
80.200939
 20
10.846192
 30
0.0
 11
80.548773
 21
10.856348
 31
0.0
  0
LINE
  5
1f0
100
AcDbEntity
  8
Layer_1
 62
5
100
AcDbLine
 10
80.548773
 20
10.856348
 30
0.0
 11
80.708727
 21
10.856348
 31
0.0
  0
LINE
  5
1f1
100
AcDbEntity
  8
Layer_1
 62
5
100
AcDbLine
 10
80.708727
 20
10.856348
 30
0.0
 11
80.689685
 21
10.673545
 31
0.0
  0
LINE
  5
1f2
100
AcDbEntity
  8
Layer_1
 62
5
100
AcDbLine
 10
80.689685
 20
10.673545
 30
0.0
 11
80.704918
 21
10.669736
 31
0.0
  0
SPLINE
  5
1f3
100
AcDbEntity
  8
Layer_1
 62
5
100
AcDbSpline
 70
0
 71
3
 72
19
 73
15
 74
13
 40
0.000000
 40
0.000000
 40
0.000000
 40
0.000000
 40
0.057197
 40
0.103544
 40
0.139064
 40
0.167303
 40
0.191952
 40
0.213320
 40
0.232829
 40
0.252063
 40
0.271694
 40
0.294947
 40
0.325191
 40
0.362875
 40
0.362875
 40
0.362875
 40
0.362875
 10
80.341848
 20
10.474238
 30
0.0
 10
80.341799
 20
10.493304
 30
0.0
 10
80.341711
 20
10.527820
 30
0.0
 10
80.340685
 20
10.574165
 30
0.0
 10
80.339171
 20
10.610842
 30
0.0
 10
80.336193
 20
10.640193
 30
0.0
 10
80.331244
 20
10.664495
 30
0.0
 10
80.324250
 20
10.685271
 30
0.0
 10
80.314560
 20
10.702951
 30
0.0
 10
80.302040
 20
10.717979
 30
0.0
 10
80.286079
 20
10.731395
 30
0.0
 10
80.264189
 20
10.742493
 30
0.0
 10
80.235300
 20
10.752136
 30
0.0
 10
80.213200
 20
10.757110
 30
0.0
 10
80.200939
 20
10.759869
 30
0.0
 11
80.341848
 21
10.474238
 31
0.0
 11
80.341495
 21
10.531434
 31
0.0
 11
80.340438
 21
10.577770
 31
0.0
 11
80.338676
 21
10.613245
 31
0.0
 11
80.335575
 21
10.641314
 31
0.0
 11
80.330496
 21
10.665434
 31
0.0
 11
80.323443
 21
10.685605
 31
0.0
 11
80.313992
 21
10.702671
 31
0.0
 11
80.301721
 21
10.717482
 31
0.0
 11
80.286628
 21
10.730036
 31
0.0
 11
80.266105
 21
10.740967
 31
0.0
 11
80.237542
 21
10.750911
 31
0.0
 11
80.200939
 21
10.759869
 31
0.0
  0
LINE
  5
1f4
100
AcDbEntity
  8
Layer_1
 62
5
100
AcDbLine
 10
81.469139
 20
10.418381
 30
0.0
 11
81.469139
 21
9.953755
 31
0.0
  0
SPLINE
  5
1f5
100
AcDbEntity
  8
Layer_1
 62
5
100
AcDbSpline
 70
0
 71
3
 72
28
 73
24
 74
22
 40
0.000000
 40
0.000000
 40
0.000000
 40
0.000000
 40
0.066367
 40
0.125250
 40
0.176762
 40
0.224189
 40
0.270932
 40
0.317308
 40
0.363547
 40
0.410122
 40
0.457658
 40
0.523190
 40
0.581592
 40
0.633936
 40
0.682495
 40
0.729518
 40
0.776472
 40
0.824766
 40
0.875551
 40
0.929840
 40
0.988708
 40
1.052898
 40
1.122748
 40
1.122748
 40
1.122748
 40
1.122748
 10
80.704918
 20
10.669736
 30
0.0
 10
80.721588
 20
10.684284
 30
0.0
 10
80.753046
 20
10.711739
 30
0.0
 10
80.799189
 20
10.748413
 30
0.0
 10
80.841816
 20
10.779289
 30
0.0
 10
80.883179
 20
10.804837
 30
0.0
 10
80.925017
 20
10.826027
 30
0.0
 10
80.968022
 20
10.843741
 30
0.0
 10
81.012586
 20
10.857000
 30
0.0
 10
81.058830
 20
10.864865
 30
0.0
 10
81.112071
 20
10.867453
 30
0.0
 10
81.169265
 20
10.864587
 30
0.0
 10
81.227427
 20
10.855126
 30
0.0
 10
81.278134
 20
10.838520
 30
0.0
 10
81.321839
 20
10.815177
 30
0.0
 10
81.359525
 20
10.785834
 30
0.0
 10
81.391153
 20
10.750153
 30
0.0
 10
81.416940
 20
10.708631
 30
0.0
 10
81.437295
 20
10.661549
 30
0.0
 10
81.452032
 20
10.608783
 30
0.0
 10
81.461922
 20
10.550435
 30
0.0
 10
81.468102
 20
10.486360
 30
0.0
 10
81.468784
 20
10.441669
 30
0.0
 10
81.469139
 20
10.418381
 30
0.0
 11
80.704918
 21
10.669736
 31
0.0
 11
80.755273
 21
10.712967
 31
0.0
 11
80.801397
 21
10.749570
 31
0.0
 11
80.843290
 21
10.779545
 31
0.0
 11
80.883701
 21
10.804369
 31
0.0
 11
80.925382
 21
10.825527
 31
0.0
 11
80.968333
 21
10.843018
 31
0.0
 11
81.012693
 21
10.856065
 31
0.0
 11
81.058606
 21
10.863893
 31
0.0
 11
81.106070
 21
10.866503
 31
0.0
 11
81.171518
 21
10.863188
 31
0.0
 11
81.229067
 21
10.853244
 31
0.0
 11
81.278718
 21
10.836671
 31
0.0
 11
81.321527
 21
10.813749
 31
0.0
 11
81.358553
 21
10.784763
 31
0.0
 11
81.389797
 21
10.749712
 31
0.0
 11
81.415467
 21
10.708806
 31
0.0
 11
81.435779
 21
10.662259
 31
0.0
 11
81.450731
 21
10.610071
 31
0.0
 11
81.460957
 21
10.552098
 31
0.0
 11
81.467092
 21
10.488201
 31
0.0
 11
81.469139
 21
10.418381
 31
0.0
  0
LINE
  5
1f6
100
AcDbEntity
  8
Layer_1
 62
5
100
AcDbLine
 10
81.597355
 20
9.670664
 30
0.0
 11
81.597353
 21
9.586879
 31
0.0
  0
LINE
  5
1f7
100
AcDbEntity
  8
Layer_1
 62
5
100
AcDbLine
 10
75.085377
 20
10.909249
 30
0.0
 11
74.603732
 21
10.998816
 31
0.0
  0
SPLINE
  5
1f8
100
AcDbEntity
  8
Layer_1
 62
5
100
AcDbSpline
 70
0
 71
3
 72
22
 73
18
 74
16
 40
0.000000
 40
0.000000
 40
0.000000
 40
0.000000
 40
0.036463
 40
0.071379
 40
0.104754
 40
0.135210
 40
0.161427
 40
0.183530
 40
0.202669
 40
0.220005
 40
0.235803
 40
0.251201
 40
0.267428
 40
0.284870
 40
0.303863
 40
0.324615
 40
0.347247
 40
0.347247
 40
0.347247
 40
0.347247
 10
81.469139
 20
9.953755
 30
0.0
 10
81.469176
 20
9.941601
 30
0.0
 10
81.469249
 20
9.917807
 30
0.0
 10
81.469931
 20
9.882895
 30
0.0
 10
81.470851
 20
9.849992
 30
0.0
 10
81.472541
 20
9.820013
 30
0.0
 10
81.475584
 20
9.793910
 30
0.0
 10
81.479971
 20
9.771823
 30
0.0
 10
81.485757
 20
9.753135
 30
0.0
 10
81.492692
 20
9.737110
 30
0.0
 10
81.501063
 20
9.723189
 30
0.0
 10
81.511486
 20
9.711198
 30
0.0
 10
81.524173
 20
9.700768
 30
0.0
 10
81.539263
 20
9.691702
 30
0.0
 10
81.556613
 20
9.683749
 30
0.0
 10
81.576136
 20
9.676525
 30
0.0
 10
81.590081
 20
9.672673
 30
0.0
 10
81.597355
 20
9.670664
 30
0.0
 11
81.469139
 21
9.953755
 31
0.0
 11
81.469353
 21
9.917293
 31
0.0
 11
81.469991
 21
9.882383
 31
0.0
 11
81.471043
 21
9.849024
 31
0.0
 11
81.472945
 21
9.818627
 31
0.0
 11
81.476119
 21
9.792603
 31
0.0
 11
81.480564
 21
9.770952
 31
0.0
 11
81.486275
 21
9.752685
 31
0.0
 11
81.493258
 21
9.736817
 31
0.0
 11
81.501510
 21
9.723347
 31
0.0
 11
81.511594
 21
9.711710
 31
0.0
 11
81.524077
 21
9.701343
 31
0.0
 11
81.538959
 21
9.692245
 31
0.0
 11
81.556167
 21
9.684205
 31
0.0
 11
81.575632
 21
9.677011
 31
0.0
 11
81.597355
 21
9.670664
 31
0.0
  0
LINE
  5
1f9
100
AcDbEntity
  8
Layer_1
 62
5
100
AcDbLine
 10
74.575224
 20
11.023340
 30
0.0
 11
74.427587
 21
11.367778
 31
0.0
  0
SPLINE
  5
1fa
100
AcDbEntity
  8
Layer_1
 62
5
100
AcDbSpline
 70
0
 71
3
 72
10
 73
6
 74
4
 40
0.000000
 40
0.000000
 40
0.000000
 40
0.000000
 40
0.012685
 40
0.026188
 40
0.038895
 40
0.038895
 40
0.038895
 40
0.038895
 10
74.603732
 20
10.998816
 30
0.0
 10
74.599707
 20
11.000183
 30
0.0
 10
74.591396
 20
11.003004
 30
0.0
 10
74.581224
 20
11.011761
 30
0.0
 10
74.577183
 20
11.019559
 30
0.0
 10
74.575224
 20
11.023340
 30
0.0
 11
74.603732
 21
10.998816
 31
0.0
 11
74.591999
 21
11.003637
 31
0.0
 11
74.581762
 21
11.012443
 31
0.0
 11
74.575224
 21
11.023340
 31
0.0
  0
LINE
  5
1fb
100
AcDbEntity
  8
Layer_1
 62
5
100
AcDbLine
 10
74.429926
 20
11.405017
 30
0.0
 11
74.710552
 21
11.814031
 31
0.0
  0
SPLINE
  5
1fc
100
AcDbEntity
  8
Layer_1
 62
5
100
AcDbSpline
 70
0
 71
3
 72
10
 73
6
 74
4
 40
0.000000
 40
0.000000
 40
0.000000
 40
0.000000
 40
0.012634
 40
0.026026
 40
0.038688
 40
0.038688
 40
0.038688
 40
0.038688
 10
74.427587
 20
11.367778
 30
0.0
 10
74.426201
 20
11.371780
 30
0.0
 10
74.423345
 20
11.380024
 30
0.0
 10
74.424176
 20
11.393380
 30
0.0
 10
74.428046
 20
11.401211
 30
0.0
 10
74.429926
 20
11.405017
 30
0.0
 11
74.427587
 21
11.367778
 31
0.0
 11
74.424233
 21
11.379959
 31
0.0
 11
74.425066
 21
11.393325
 31
0.0
 11
74.429926
 21
11.405017
 31
0.0
  0
LINE
  5
1fd
100
AcDbEntity
  8
Layer_1
 62
5
100
AcDbLine
 10
74.707478
 20
11.847314
 30
0.0
 11
74.356975
 21
12.197818
 31
0.0
  0
SPLINE
  5
1fe
100
AcDbEntity
  8
Layer_1
 62
5
100
AcDbSpline
 70
0
 71
3
 72
10
 73
6
 74
4
 40
0.000000
 40
0.000000
 40
0.000000
 40
0.000000
 40
0.011842
 40
0.023848
 40
0.035711
 40
0.035711
 40
0.035711
 40
0.035711
 10
74.710552
 20
11.814031
 30
0.0
 10
74.712251
 20
11.817643
 30
0.0
 10
74.715672
 20
11.824919
 30
0.0
 10
74.714530
 20
11.837542
 30
0.0
 10
74.709820
 20
11.844070
 30
0.0
 10
74.707478
 20
11.847314
 30
0.0
 11
74.710552
 21
11.814031
 31
0.0
 11
74.714617
 21
11.825154
 31
0.0
 11
74.713527
 21
11.837110
 31
0.0
 11
74.707478
 21
11.847314
 31
0.0
  0
LINE
  5
1ff
100
AcDbEntity
  8
Layer_1
 62
5
100
AcDbLine
 10
74.323721
 20
12.200894
 30
0.0
 11
73.907529
 21
11.915288
 31
0.0
  0
SPLINE
  5
200
100
AcDbEntity
  8
Layer_1
 62
5
100
AcDbSpline
 70
0
 71
3
 72
10
 73
6
 74
4
 40
0.000000
 40
0.000000
 40
0.000000
 40
0.000000
 40
0.011862
 40
0.023856
 40
0.035702
 40
0.035702
 40
0.035702
 40
0.035702
 10
74.356975
 20
12.197818
 30
0.0
 10
74.353735
 20
12.200164
 30
0.0
 10
74.347219
 20
12.204882
 30
0.0
 10
74.334595
 20
12.206051
 30
0.0
 10
74.327330
 20
12.202606
 30
0.0
 10
74.323721
 20
12.200894
 30
0.0
 11
74.356975
 21
12.197818
 31
0.0
 11
74.346780
 21
12.203883
 31
0.0
 11
74.334837
 21
12.204987
 31
0.0
 11
74.323721
 21
12.200894
 31
0.0
  0
LINE
  5
201
100
AcDbEntity
  8
Layer_1
 62
5
100
AcDbLine
 10
73.870085
 20
11.912592
 30
0.0
 11
73.536194
 21
12.049272
 31
0.0
  0
SPLINE
  5
202
100
AcDbEntity
  8
Layer_1
 62
5
100
AcDbSpline
 70
0
 71
3
 72
10
 73
6
 74
4
 40
0.000000
 40
0.000000
 40
0.000000
 40
0.000000
 40
0.012676
 40
0.026169
 40
0.038853
 40
0.038853
 40
0.038853
 40
0.038853
 10
73.907529
 20
11.915288
 30
0.0
 10
73.903719
 20
11.913409
 30
0.0
 10
73.895853
 20
11.909528
 30
0.0
 10
73.882471
 20
11.908572
 30
0.0
 10
73.874127
 20
11.911280
 30
0.0
 10
73.870085
 20
11.912592
 30
0.0
 11
73.907529
 21
11.915288
 31
0.0
 11
73.895829
 21
11.910409
 31
0.0
 11
73.882371
 21
11.909443
 31
0.0
 11
73.870085
 21
11.912592
 31
0.0
  0
LINE
  5
203
100
AcDbEntity
  8
Layer_1
 62
5
100
AcDbLine
 10
73.511582
 20
12.077458
 30
0.0
 11
73.418881
 21
12.575628
 31
0.0
  0
SPLINE
  5
204
100
AcDbEntity
  8
Layer_1
 62
5
100
AcDbSpline
 70
0
 71
3
 72
10
 73
6
 74
4
 40
0.000000
 40
0.000000
 40
0.000000
 40
0.000000
 40
0.012642
 40
0.026082
 40
0.038744
 40
0.038744
 40
0.038744
 40
0.038744
 10
73.536194
 20
12.049272
 30
0.0
 10
73.532403
 20
12.051167
 30
0.0
 10
73.524584
 20
12.055077
 30
0.0
 10
73.515791
 20
12.065168
 30
0.0
 10
73.512957
 20
12.073443
 30
0.0
 10
73.511582
 20
12.077458
 30
0.0
 11
73.536194
 21
12.049272
 31
0.0
 11
73.525269
 21
12.055635
 31
0.0
 11
73.516433
 21
12.065762
 31
0.0
 11
73.511582
 21
12.077458
 31
0.0
  0
LINE
  5
205
100
AcDbEntity
  8
Layer_1
 62
5
100
AcDbLine
 10
73.393186
 20
12.596987
 30
0.0
 11
72.897447
 21
12.596987
 31
0.0
  0
SPLINE
  5
206
100
AcDbEntity
  8
Layer_1
 62
5
100
AcDbSpline
 70
0
 71
3
 72
10
 73
6
 74
4
 40
0.000000
 40
0.000000
 40
0.000000
 40
0.000000
 40
0.011851
 40
0.023857
 40
0.035717
 40
0.035717
 40
0.035717
 40
0.035717
 10
73.418881
 20
12.575628
 30
0.0
 10
73.417539
 20
12.579393
 30
0.0
 10
73.414838
 20
12.586971
 30
0.0
 10
73.405080
 20
12.595074
 30
0.0
 10
73.397134
 20
12.596352
 30
0.0
 10
73.393186
 20
12.596987
 30
0.0
 11
73.418881
 21
12.575628
 31
0.0
 11
73.413914
 21
12.586387
 31
0.0
 11
73.404679
 21
12.594060
 31
0.0
 11
73.393186
 21
12.596987
 31
0.0
  0
LINE
  5
207
100
AcDbEntity
  8
Layer_1
 62
5
100
AcDbLine
 10
72.871752
 20
12.575628
 30
0.0
 11
72.779080
 21
12.077458
 31
0.0
  0
SPLINE
  5
208
100
AcDbEntity
  8
Layer_1
 62
5
100
AcDbSpline
 70
0
 71
3
 72
10
 73
6
 74
4
 40
0.000000
 40
0.000000
 40
0.000000
 40
0.000000
 40
0.011846
 40
0.023857
 40
0.035711
 40
0.035711
 40
0.035711
 40
0.035711
 10
72.897447
 20
12.596987
 30
0.0
 10
72.893504
 20
12.596351
 30
0.0
 10
72.885563
 20
12.595069
 30
0.0
 10
72.875805
 20
12.586972
 30
0.0
 10
72.873097
 20
12.579393
 30
0.0
 10
72.871752
 20
12.575628
 30
0.0
 11
72.897447
 21
12.596987
 31
0.0
 11
72.885969
 21
12.594060
 31
0.0
 11
72.876728
 21
12.586387
 31
0.0
 11
72.871752
 21
12.575628
 31
0.0
  0
LINE
  5
209
100
AcDbEntity
  8
Layer_1
 62
5
100
AcDbLine
 10
72.754439
 20
12.049272
 30
0.0
 11
72.420519
 21
11.912592
 31
0.0
  0
SPLINE
  5
20a
100
AcDbEntity
  8
Layer_1
 62
5
100
AcDbSpline
 70
0
 71
3
 72
10
 73
6
 74
4
 40
0.000000
 40
0.000000
 40
0.000000
 40
0.000000
 40
0.012660
 40
0.026099
 40
0.038771
 40
0.038771
 40
0.038771
 40
0.038771
 10
72.779080
 20
12.077458
 30
0.0
 10
72.777707
 20
12.073443
 30
0.0
 10
72.774877
 20
12.065167
 30
0.0
 10
72.766078
 20
12.055067
 30
0.0
 10
72.758242
 20
12.051165
 30
0.0
 10
72.754439
 20
12.049272
 30
0.0
 11
72.779080
 21
12.077458
 31
0.0
 11
72.774234
 21
12.065762
 31
0.0
 11
72.765398
 21
12.055635
 31
0.0
 11
72.754439
 21
12.049272
 31
0.0
  0
LINE
  5
20b
100
AcDbEntity
  8
Layer_1
 62
5
100
AcDbLine
 10
72.383133
 20
11.915288
 30
0.0
 11
71.966941
 21
12.200894
 31
0.0
  0
SPLINE
  5
20c
100
AcDbEntity
  8
Layer_1
 62
5
100
AcDbSpline
 70
0
 71
3
 72
10
 73
6
 74
4
 40
0.000000
 40
0.000000
 40
0.000000
 40
0.000000
 40
0.012667
 40
0.026152
 40
0.038797
 40
0.038797
 40
0.038797
 40
0.038797
 10
72.420519
 20
11.912592
 30
0.0
 10
72.416482
 20
11.911281
 30
0.0
 10
72.408147
 20
11.908573
 30
0.0
 10
72.394782
 20
11.909526
 30
0.0
 10
72.386932
 20
11.913409
 30
0.0
 10
72.383133
 20
11.915288
 30
0.0
 11
72.420519
 21
11.912592
 31
0.0
 11
72.408250
 21
11.909443
 31
0.0
 11
72.394799
 21
11.910409
 31
0.0
 11
72.383133
 21
11.915288
 31
0.0
  0
LINE
  5
20d
100
AcDbEntity
  8
Layer_1
 62
5
100
AcDbLine
 10
71.933687
 20
12.197818
 30
0.0
 11
71.583155
 21
11.847314
 31
0.0
  0
SPLINE
  5
20e
100
AcDbEntity
  8
Layer_1
 62
5
100
AcDbSpline
 70
0
 71
3
 72
10
 73
6
 74
4
 40
0.000000
 40
0.000000
 40
0.000000
 40
0.000000
 40
0.011856
 40
0.023863
 40
0.035705
 40
0.035705
 40
0.035705
 40
0.035705
 10
71.966941
 20
12.200894
 30
0.0
 10
71.963328
 20
12.202606
 30
0.0
 10
71.956056
 20
12.206050
 30
0.0
 10
71.943428
 20
12.204889
 30
0.0
 10
71.936919
 20
12.200164
 30
0.0
 10
71.933687
 20
12.197818
 30
0.0
 11
71.966941
 21
12.200894
 31
0.0
 11
71.955813
 21
12.204987
 31
0.0
 11
71.943858
 21
12.203883
 31
0.0
 11
71.933687
 21
12.197818
 31
0.0
  0
LINE
  5
20f
100
AcDbEntity
  8
Layer_1
 62
5
100
AcDbLine
 10
71.580081
 20
11.814031
 30
0.0
 11
71.860735
 21
11.405017
 31
0.0
  0
SPLINE
  5
210
100
AcDbEntity
  8
Layer_1
 62
5
100
AcDbSpline
 70
0
 71
3
 72
10
 73
6
 74
4
 40
0.000000
 40
0.000000
 40
0.000000
 40
0.000000
 40
0.011858
 40
0.023866
 40
0.035714
 40
0.035714
 40
0.035714
 40
0.035714
 10
71.583155
 20
11.847314
 30
0.0
 10
71.580820
 20
11.844070
 30
0.0
 10
71.576121
 20
11.837539
 30
0.0
 10
71.574932
 20
11.824917
 30
0.0
 10
71.578372
 20
11.817643
 30
0.0
 10
71.580081
 20
11.814031
 30
0.0
 11
71.583155
 21
11.847314
 31
0.0
 11
71.577114
 21
11.837110
 31
0.0
 11
71.576000
 21
11.825154
 31
0.0
 11
71.580081
 21
11.814031
 31
0.0
  0
LINE
  5
211
100
AcDbEntity
  8
Layer_1
 62
5
100
AcDbLine
 10
71.863075
 20
11.367778
 30
0.0
 11
71.715378
 21
11.023340
 31
0.0
  0
SPLINE
  5
212
100
AcDbEntity
  8
Layer_1
 62
5
100
AcDbSpline
 70
0
 71
3
 72
10
 73
6
 74
4
 40
0.000000
 40
0.000000
 40
0.000000
 40
0.000000
 40
0.012646
 40
0.026039
 40
0.038666
 40
0.038666
 40
0.038666
 40
0.038666
 10
71.860735
 20
11.405017
 30
0.0
 10
71.862597
 20
11.401209
 30
0.0
 10
71.866431
 20
11.393370
 30
0.0
 10
71.867292
 20
11.380030
 30
0.0
 10
71.864453
 20
11.371781
 30
0.0
 10
71.863075
 20
11.367778
 30
0.0
 11
71.860735
 21
11.405017
 31
0.0
 11
71.865554
 21
11.393325
 31
0.0
 11
71.866404
 21
11.379959
 31
0.0
 11
71.863075
 21
11.367778
 31
0.0
  0
LINE
  5
213
100
AcDbEntity
  8
Layer_1
 62
5
100
AcDbLine
 10
71.686870
 20
10.998816
 30
0.0
 11
71.205254
 21
10.909249
 31
0.0
  0
SPLINE
  5
214
100
AcDbEntity
  8
Layer_1
 62
5
100
AcDbSpline
 70
0
 71
3
 72
10
 73
6
 74
4
 40
0.000000
 40
0.000000
 40
0.000000
 40
0.000000
 40
0.012687
 40
0.026190
 40
0.038912
 40
0.038912
 40
0.038912
 40
0.038912
 10
71.715378
 20
11.023340
 30
0.0
 10
71.713434
 20
11.019558
 30
0.0
 10
71.709422
 20
11.011751
 30
0.0
 10
71.699235
 20
11.002995
 30
0.0
 10
71.690909
 20
11.000181
 30
0.0
 10
71.686870
 20
10.998816
 30
0.0
 11
71.715378
 21
11.023340
 31
0.0
 11
71.708880
 21
11.012444
 31
0.0
 11
71.698643
 21
11.003638
 31
0.0
 11
71.686870
 21
10.998816
 31
0.0
  0
LINE
  5
215
100
AcDbEntity
  8
Layer_1
 62
5
100
AcDbLine
 10
71.183895
 20
10.883525
 30
0.0
 11
71.183925
 21
10.387816
 31
0.0
  0
SPLINE
  5
216
100
AcDbEntity
  8
Layer_1
 62
5
100
AcDbSpline
 70
0
 71
3
 72
10
 73
6
 74
4
 40
0.000000
 40
0.000000
 40
0.000000
 40
0.000000
 40
0.011865
 40
0.023871
 40
0.035726
 40
0.035726
 40
0.035726
 40
0.035726
 10
71.205254
 20
10.909249
 30
0.0
 10
71.201490
 20
10.907894
 30
0.0
 10
71.193918
 20
10.905166
 30
0.0
 10
71.185809
 20
10.895417
 30
0.0
 10
71.184530
 20
10.887472
 30
0.0
 10
71.183895
 20
10.883525
 30
0.0
 11
71.205254
 21
10.909249
 31
0.0
 11
71.194495
 21
10.904247
 31
0.0
 11
71.186822
 21
10.895012
 31
0.0
 11
71.183895
 21
10.883525
 31
0.0
  0
LINE
  5
217
100
AcDbEntity
  8
Layer_1
 62
5
100
AcDbLine
 10
71.205283
 20
10.362091
 30
0.0
 11
71.675091
 21
10.274663
 31
0.0
  0
SPLINE
  5
218
100
AcDbEntity
  8
Layer_1
 62
5
100
AcDbSpline
 70
0
 71
3
 72
10
 73
6
 74
4
 40
0.000000
 40
0.000000
 40
0.000000
 40
0.000000
 40
0.011873
 40
0.023894
 40
0.035744
 40
0.035744
 40
0.035744
 40
0.035744
 10
71.183925
 20
10.387816
 30
0.0
 10
71.184560
 20
10.383863
 30
0.0
 10
71.185839
 20
10.375910
 30
0.0
 10
71.193931
 20
10.366129
 30
0.0
 10
71.201517
 20
10.363431
 30
0.0
 10
71.205283
 20
10.362091
 30
0.0
 11
71.183925
 21
10.387816
 31
0.0
 11
71.186851
 21
10.376309
 31
0.0
 11
71.194523
 21
10.367055
 31
0.0
 11
71.205283
 21
10.362091
 31
0.0
  0
LINE
  5
219
100
AcDbEntity
  8
Layer_1
 62
5
100
AcDbLine
 10
71.703014
 20
10.249964
 30
0.0
 11
71.849656
 21
9.883580
 31
0.0
  0
SPLINE
  5
21a
100
AcDbEntity
  8
Layer_1
 62
5
100
AcDbSpline
 70
0
 71
3
 72
10
 73
6
 74
4
 40
0.000000
 40
0.000000
 40
0.000000
 40
0.000000
 40
0.012623
 40
0.026029
 40
0.038659
 40
0.038659
 40
0.038659
 40
0.038659
 10
71.675091
 20
10.274663
 30
0.0
 10
71.679099
 20
10.273304
 30
0.0
 10
71.687364
 20
10.270502
 30
0.0
 10
71.697377
 20
10.261636
 30
0.0
 10
71.701173
 20
10.253777
 30
0.0
 10
71.703014
 20
10.249964
 30
0.0
 11
71.675091
 21
10.274663
 31
0.0
 11
71.686757
 21
10.269842
 31
0.0
 11
71.696797
 21
10.260958
 31
0.0
 11
71.703014
 21
10.249964
 31
0.0
  0
LINE
  5
21b
100
AcDbEntity
  8
Layer_1
 62
5
100
AcDbLine
 10
71.846868
 20
9.846166
 30
0.0
 11
71.580014
 21
9.457251
 31
0.0
  0
SPLINE
  5
21c
100
AcDbEntity
  8
Layer_1
 62
5
100
AcDbSpline
 70
0
 71
3
 72
10
 73
6
 74
4
 40
0.000000
 40
0.000000
 40
0.000000
 40
0.000000
 40
0.012686
 40
0.026160
 40
0.038845
 40
0.038845
 40
0.038845
 40
0.038845
 10
71.849656
 20
9.883580
 30
0.0
 10
71.850967
 20
9.879536
 30
0.0
 10
71.853670
 20
9.871196
 30
0.0
 10
71.852683
 20
9.857814
 30
0.0
 10
71.848767
 20
9.849970
 30
0.0
 10
71.846868
 20
9.846166
 30
0.0
 11
71.849656
 21
9.883580
 31
0.0
 11
71.852797
 21
9.871289
 31
0.0
 11
71.851800
 21
9.857852
 31
0.0
 11
71.846868
 21
9.846166
 31
0.0
  0
LINE
  5
21d
100
AcDbEntity
  8
Layer_1
 62
5
100
AcDbLine
 10
71.583088
 20
9.423967
 30
0.0
 11
71.933679
 21
9.073464
 31
0.0
  0
SPLINE
  5
21e
100
AcDbEntity
  8
Layer_1
 62
5
100
AcDbSpline
 70
0
 71
3
 72
10
 73
6
 74
4
 40
0.000000
 40
0.000000
 40
0.000000
 40
0.000000
 40
0.011844
 40
0.023851
 40
0.035711
 40
0.035711
 40
0.035711
 40
0.035711
 10
71.580014
 20
9.457251
 30
0.0
 10
71.578311
 20
9.453638
 30
0.0
 10
71.574883
 20
9.446364
 30
0.0
 10
71.576046
 20
9.433742
 30
0.0
 10
71.580750
 20
9.427212
 30
0.0
 10
71.583088
 20
9.423967
 30
0.0
 11
71.580014
 21
9.457251
 31
0.0
 11
71.575943
 21
9.446128
 31
0.0
 11
71.577045
 21
9.434172
 31
0.0
 11
71.583088
 21
9.423967
 31
0.0
  0
LINE
  5
21f
100
AcDbEntity
  8
Layer_1
 62
5
100
AcDbLine
 10
71.966933
 20
9.070358
 30
0.0
 11
72.348962
 21
9.332584
 31
0.0
  0
SPLINE
  5
220
100
AcDbEntity
  8
Layer_1
 62
5
100
AcDbSpline
 70
0
 71
3
 72
10
 73
6
 74
4
 40
0.000000
 40
0.000000
 40
0.000000
 40
0.000000
 40
0.011824
 40
0.023830
 40
0.035665
 40
0.035665
 40
0.035665
 40
0.035665
 10
71.933679
 20
9.073464
 30
0.0
 10
71.936914
 20
9.071133
 30
0.0
 10
71.943434
 20
9.066436
 30
0.0
 10
71.956035
 20
9.065272
 30
0.0
 10
71.963318
 20
9.068671
 30
0.0
 10
71.966933
 20
9.070358
 30
0.0
 11
71.933679
 21
9.073464
 31
0.0
 11
71.943852
 21
9.067437
 31
0.0
 11
71.955806
 21
9.066326
 31
0.0
 11
71.966933
 21
9.070358
 31
0.0
  0
LINE
  5
221
100
AcDbEntity
  8
Layer_1
 62
5
100
AcDbLine
 10
72.385587
 20
9.333816
 30
0.0
 11
72.554056
 21
9.243868
 31
0.0
  0
SPLINE
  5
222
100
AcDbEntity
  8
Layer_1
 62
5
100
AcDbSpline
 70
0
 71
3
 72
10
 73
6
 74
4
 40
0.000000
 40
0.000000
 40
0.000000
 40
0.000000
 40
0.012469
 40
0.025636
 40
0.038144
 40
0.038144
 40
0.038144
 40
0.038144
 10
72.348962
 20
9.332584
 30
0.0
 10
72.352727
 20
9.334409
 30
0.0
 10
72.360468
 20
9.338161
 30
0.0
 10
72.373702
 20
9.338588
 30
0.0
 10
72.381694
 20
9.335379
 30
0.0
 10
72.385587
 20
9.333816
 30
0.0
 11
72.348962
 21
9.332584
 31
0.0
 11
72.360530
 21
9.337239
 31
0.0
 11
72.373690
 21
9.337676
 31
0.0
 11
72.385587
 21
9.333816
 31
0.0
  0
LINE
  5
223
100
AcDbEntity
  8
Layer_1
 62
5
100
AcDbLine
 10
72.581714
 20
9.254064
 30
0.0
 11
72.929083
 21
10.093420
 31
0.0
  0
SPLINE
  5
224
100
AcDbEntity
  8
Layer_1
 62
5
100
AcDbSpline
 70
0
 71
3
 72
10
 73
6
 74
4
 40
0.000000
 40
0.000000
 40
0.000000
 40
0.000000
 40
0.011114
 40
0.021709
 40
0.032811
 40
0.032811
 40
0.032811
 40
0.032811
 10
72.554056
 20
9.243868
 30
0.0
 10
72.557648
 20
9.242687
 30
0.0
 10
72.564665
 20
9.240381
 30
0.0
 10
72.575925
 20
9.244518
 30
0.0
 10
72.579755
 20
9.250833
 30
0.0
 10
72.581714
 20
9.254064
 30
0.0
 11
72.554056
 21
9.243868
 31
0.0
 11
72.564946
 21
9.241648
 31
0.0
 11
72.574889
 21
9.245308
 31
0.0
 11
72.581714
 21
9.254064
 31
0.0
  0
LINE
  5
225
100
AcDbEntity
  8
Layer_1
 62
5
100
AcDbLine
 10
72.918915
 20
10.124829
 30
0.0
 11
72.876754
 21
10.150612
 31
0.0
  0
SPLINE
  5
226
100
AcDbEntity
  8
Layer_1
 62
5
100
AcDbSpline
 70
0
 71
3
 72
10
 73
6
 74
4
 40
0.000000
 40
0.000000
 40
0.000000
 40
0.000000
 40
0.011786
 40
0.023647
 40
0.035419
 40
0.035419
 40
0.035419
 40
0.035419
 10
72.929083
 20
10.093420
 30
0.0
 10
72.930013
 20
10.097288
 30
0.0
 10
72.931881
 20
10.105049
 30
0.0
 10
72.927976
 20
10.117043
 30
0.0
 10
72.921928
 20
10.122240
 30
0.0
 10
72.918915
 20
10.124829
 30
0.0
 11
72.929083
 21
10.093420
 31
0.0
 11
72.930763
 21
10.105086
 31
0.0
 11
72.927099
 21
10.116367
 31
0.0
 11
72.918915
 21
10.124829
 31
0.0
  0
LINE
  5
227
100
AcDbEntity
  8
Layer_1
 62
5
100
AcDbLine
 10
73.413892
 20
10.150612
 30
0.0
 11
73.371731
 21
10.124829
 31
0.0
  0
SPLINE
  5
228
100
AcDbEntity
  8
Layer_1
 62
5
100
AcDbSpline
 70
0
 71
3
 72
25
 73
21
 74
19
 40
0.000000
 40
0.000000
 40
0.000000
 40
0.000000
 40
0.010293
 40
0.021976
 40
0.033637
 40
0.212843
 40
0.393346
 40
0.580378
 40
0.867022
 40
1.145172
 40
1.431807
 40
1.718428
 40
1.996557
 40
2.283197
 40
2.470227
 40
2.650720
 40
2.829929
 40
2.841560
 40
2.853230
 40
2.863521
 40
2.863521
 40
2.863521
 40
2.863521
 10
72.876754
 20
10.150612
 30
0.0
 10
72.873887
 20
10.152497
 30
0.0
 10
72.867764
 20
10.156522
 30
0.0
 10
72.858888
 20
10.163396
 30
0.0
 10
72.808089
 20
10.207841
 30
0.0
 10
72.706367
 20
10.281898
 30
0.0
 10
72.618915
 20
10.447964
 30
0.0
 10
72.580013
 20
10.665513
 30
0.0
 10
72.648600
 20
10.920187
 30
0.0
 10
72.858254
 20
11.129446
 30
0.0
 10
73.145303
 20
11.207249
 30
0.0
 10
73.432350
 20
11.129449
 30
0.0
 10
73.641975
 20
10.920180
 30
0.0
 10
73.710542
 20
10.665506
 30
0.0
 10
73.671645
 20
10.447983
 30
0.0
 10
73.584272
 20
10.281840
 30
0.0
 10
73.482412
 20
10.207959
 30
0.0
 10
73.431738
 20
10.163390
 30
0.0
 10
73.422878
 20
10.156519
 30
0.0
 10
73.416760
 20
10.152497
 30
0.0
 10
73.413892
 20
10.150612
 30
0.0
 11
72.876754
 21
10.150612
 31
0.0
 11
72.868222
 21
10.156369
 31
0.0
 11
72.858959
 21
10.163488
 31
0.0
 11
72.850092
 21
10.171063
 31
0.0
 11
72.716897
 21
10.290953
 31
0.0
 11
72.628867
 21
10.448535
 31
0.0
 11
72.597066
 21
10.632844
 31
0.0
 11
72.671926
 21
10.909540
 31
0.0
 11
72.868618
 21
11.106211
 31
0.0
 11
73.145309
 21
11.181057
 31
0.0
 11
73.421985
 21
11.106211
 31
0.0
 11
73.618648
 21
10.909540
 31
0.0
 11
73.693493
 21
10.632844
 31
0.0
 11
73.661705
 21
10.448535
 31
0.0
 11
73.573697
 21
10.290953
 31
0.0
 11
73.440496
 21
10.171063
 31
0.0
 11
73.431669
 21
10.163488
 31
0.0
 11
73.422423
 21
10.156370
 31
0.0
 11
73.413892
 21
10.150612
 31
0.0
  0
LINE
  5
229
100
AcDbEntity
  8
Layer_1
 62
5
100
AcDbLine
 10
73.361539
 20
10.093420
 30
0.0
 11
73.708908
 21
9.254064
 31
0.0
  0
SPLINE
  5
22a
100
AcDbEntity
  8
Layer_1
 62
5
100
AcDbSpline
 70
0
 71
3
 72
10
 73
6
 74
4
 40
0.000000
 40
0.000000
 40
0.000000
 40
0.000000
 40
0.011760
 40
0.023623
 40
0.035404
 40
0.035404
 40
0.035404
 40
0.035404
 10
73.371731
 20
10.124829
 30
0.0
 10
73.368725
 20
10.122239
 30
0.0
 10
73.362687
 20
10.117036
 30
0.0
 10
73.358785
 20
10.105054
 30
0.0
 10
73.360623
 20
10.097289
 30
0.0
 10
73.361539
 20
10.093420
 30
0.0
 11
73.371731
 21
10.124829
 31
0.0
 11
73.363565
 21
10.116367
 31
0.0
 11
73.359895
 21
10.105086
 31
0.0
 11
73.361539
 21
10.093420
 31
0.0
  0
LINE
  5
22b
100
AcDbEntity
  8
Layer_1
 62
5
100
AcDbLine
 10
73.736594
 20
9.243868
 30
0.0
 11
73.905064
 21
9.333816
 31
0.0
  0
SPLINE
  5
22c
100
AcDbEntity
  8
Layer_1
 62
5
100
AcDbSpline
 70
0
 71
3
 72
10
 73
6
 74
4
 40
0.000000
 40
0.000000
 40
0.000000
 40
0.000000
 40
0.011107
 40
0.021698
 40
0.032837
 40
0.032837
 40
0.032837
 40
0.032837
 10
73.708908
 20
9.254064
 30
0.0
 10
73.710869
 20
9.250832
 30
0.0
 10
73.714702
 20
9.244519
 30
0.0
 10
73.725969
 20
9.240380
 30
0.0
 10
73.732994
 20
9.242686
 30
0.0
 10
73.736594
 20
9.243868
 30
0.0
 11
73.708908
 21
9.254064
 31
0.0
 11
73.715739
 21
9.245306
 31
0.0
 11
73.725679
 21
9.241647
 31
0.0
 11
73.736594
 21
9.243868
 31
0.0
  0
LINE
  5
22d
100
AcDbEntity
  8
Layer_1
 62
5
100
AcDbLine
 10
73.941687
 20
9.332584
 30
0.0
 11
74.323717
 21
9.070358
 31
0.0
  0
SPLINE
  5
22e
100
AcDbEntity
  8
Layer_1
 62
5
100
AcDbSpline
 70
0
 71
3
 72
10
 73
6
 74
4
 40
0.000000
 40
0.000000
 40
0.000000
 40
0.000000
 40
0.012488
 40
0.025657
 40
0.038143
 40
0.038143
 40
0.038143
 40
0.038143
 10
73.905064
 20
9.333816
 30
0.0
 10
73.908950
 20
9.335379
 30
0.0
 10
73.916934
 20
9.338592
 30
0.0
 10
73.930168
 20
9.338159
 30
0.0
 10
73.937916
 20
9.334409
 30
0.0
 10
73.941687
 20
9.332584
 30
0.0
 11
73.905064
 21
9.333816
 31
0.0
 11
73.916940
 21
9.337677
 31
0.0
 11
73.930101
 21
9.337240
 31
0.0
 11
73.941687
 21
9.332584
 31
0.0
  0
LINE
  5
22f
100
AcDbEntity
  8
Layer_1
 62
5
100
AcDbLine
 10
74.356971
 20
9.073464
 30
0.0
 11
74.707533
 21
9.423967
 31
0.0
  0
SPLINE
  5
230
100
AcDbEntity
  8
Layer_1
 62
5
100
AcDbSpline
 70
0
 71
3
 72
10
 73
6
 74
4
 40
0.000000
 40
0.000000
 40
0.000000
 40
0.000000
 40
0.011836
 40
0.023843
 40
0.035666
 40
0.035666
 40
0.035666
 40
0.035666
 10
74.323717
 20
9.070358
 30
0.0
 10
74.327333
 20
9.068671
 30
0.0
 10
74.334616
 20
9.065272
 30
0.0
 10
74.347218
 20
9.066436
 30
0.0
 10
74.353737
 20
9.071133
 30
0.0
 10
74.356971
 20
9.073464
 30
0.0
 11
74.323717
 21
9.070358
 31
0.0
 11
74.334845
 21
9.066326
 31
0.0
 11
74.346800
 21
9.067437
 31
0.0
 11
74.356971
 21
9.073464
 31
0.0
  0
LINE
  5
231
100
AcDbEntity
  8
Layer_1
 62
5
100
AcDbLine
 10
74.710607
 20
9.457251
 30
0.0
 11
74.443724
 21
9.846166
 31
0.0
  0
SPLINE
  5
232
100
AcDbEntity
  8
Layer_1
 62
5
100
AcDbSpline
 70
0
 71
3
 72
10
 73
6
 74
4
 40
0.000000
 40
0.000000
 40
0.000000
 40
0.000000
 40
0.011867
 40
0.023873
 40
0.035721
 40
0.035721
 40
0.035721
 40
0.035721
 10
74.707533
 20
9.423967
 30
0.0
 10
74.709877
 20
9.427211
 30
0.0
 10
74.714591
 20
9.433737
 30
0.0
 10
74.715750
 20
9.446366
 30
0.0
 10
74.712313
 20
9.453639
 30
0.0
 10
74.710607
 20
9.457251
 30
0.0
 11
74.707533
 21
9.423967
 31
0.0
 11
74.713590
 21
9.434172
 31
0.0
 11
74.714688
 21
9.446128
 31
0.0
 11
74.710607
 21
9.457251
 31
0.0
  0
LINE
  5
233
100
AcDbEntity
  8
Layer_1
 62
5
100
AcDbLine
 10
74.440973
 20
9.883580
 30
0.0
 11
74.587644
 21
10.249964
 31
0.0
  0
SPLINE
  5
234
100
AcDbEntity
  8
Layer_1
 62
5
100
AcDbSpline
 70
0
 71
3
 72
10
 73
6
 74
4
 40
0.000000
 40
0.000000
 40
0.000000
 40
0.000000
 40
0.012670
 40
0.026144
 40
0.038829
 40
0.038829
 40
0.038829
 40
0.038829
 10
74.443724
 20
9.846166
 30
0.0
 10
74.441840
 20
9.849971
 30
0.0
 10
74.437953
 20
9.857823
 30
0.0
 10
74.436964
 20
9.871194
 30
0.0
 10
74.439664
 20
9.879536
 30
0.0
 10
74.440973
 20
9.883580
 30
0.0
 11
74.443724
 21
9.846166
 31
0.0
 11
74.438829
 21
9.857852
 31
0.0
 11
74.437837
 21
9.871289
 31
0.0
 11
74.440973
 21
9.883580
 31
0.0
  0
LINE
  5
235
100
AcDbEntity
  8
Layer_1
 62
5
100
AcDbLine
 10
74.615507
 20
10.274663
 30
0.0
 11
75.085316
 21
10.362091
 31
0.0
  0
SPLINE
  5
236
100
AcDbEntity
  8
Layer_1
 62
5
100
AcDbSpline
 70
0
 71
3
 72
10
 73
6
 74
4
 40
0.000000
 40
0.000000
 40
0.000000
 40
0.000000
 40
0.012626
 40
0.026000
 40
0.038614
 40
0.038614
 40
0.038614
 40
0.038614
 10
74.587644
 20
10.249964
 30
0.0
 10
74.589484
 20
10.253775
 30
0.0
 10
74.593273
 20
10.261622
 30
0.0
 10
74.603246
 20
10.270511
 30
0.0
 10
74.611500
 20
10.273306
 30
0.0
 10
74.615507
 20
10.274663
 30
0.0
 11
74.587644
 21
10.249964
 31
0.0
 11
74.593854
 21
10.260957
 31
0.0
 11
74.603851
 21
10.269842
 31
0.0
 11
74.615507
 21
10.274663
 31
0.0
  0
LINE
  5
237
100
AcDbEntity
  8
Layer_1
 62
5
100
AcDbLine
 10
75.106675
 20
10.387816
 30
0.0
 11
75.106733
 21
10.883525
 31
0.0
  0
SPLINE
  5
238
100
AcDbEntity
  8
Layer_1
 62
5
100
AcDbSpline
 70
0
 71
3
 72
10
 73
6
 74
4
 40
0.000000
 40
0.000000
 40
0.000000
 40
0.000000
 40
0.011838
 40
0.023863
 40
0.035738
 40
0.035738
 40
0.035738
 40
0.035738
 10
75.085316
 20
10.362091
 30
0.0
 10
75.089077
 20
10.363432
 30
0.0
 10
75.096658
 20
10.366135
 30
0.0
 10
75.104754
 20
10.375908
 30
0.0
 10
75.106037
 20
10.383863
 30
0.0
 10
75.106675
 20
10.387816
 30
0.0
 11
75.085316
 21
10.362091
 31
0.0
 11
75.096064
 21
10.367055
 31
0.0
 11
75.103742
 21
10.376309
 31
0.0
 11
75.106675
 21
10.387816
 31
0.0
  0
SPLINE
  5
239
100
AcDbEntity
  8
Layer_1
 62
5
100
AcDbSpline
 70
0
 71
3
 72
10
 73
6
 74
4
 40
0.000000
 40
0.000000
 40
0.000000
 40
0.000000
 40
0.011856
 40
0.023865
 40
0.035721
 40
0.035721
 40
0.035721
 40
0.035721
 10
75.106733
 20
10.883525
 30
0.0
 10
75.106096
 20
10.887472
 30
0.0
 10
75.104814
 20
10.895418
 30
0.0
 10
75.096703
 20
10.905162
 30
0.0
 10
75.089134
 20
10.907893
 30
0.0
 10
75.085374
 20
10.909249
 30
0.0
 11
75.106733
 21
10.883525
 31
0.0
 11
75.103802
 21
10.895012
 31
0.0
 11
75.096124
 21
10.904247
 31
0.0
 11
75.085374
 21
10.909249
 31
0.0
  0
ENDSEC
  0
SECTION
  2
OBJECTS
  0
DICTIONARY
  5
C
330
0
100
AcDbDictionary
  3
ACAD_GROUP
350
D
  3
ACAD_MLINESTYLE
350
17
  0
DICTIONARY
  5
D
330
C
100
AcDbDictionary
  0
DICTIONARY
  5
1A
330
C
100
AcDbDictionary
  0
DICTIONARY
  5
17
330
C
100
AcDbDictionary
  3
STANDARD
350
18
  0
DICTIONARY
  5
19
330
C
100
AcDbDictionary
  0
ENDSEC
  0
EOF
