<?xml version="1.0" encoding="UTF-8" standalone="no"?>
<!-- Created with Inkscape (http://www.inkscape.org/) -->
<svg id="svg2985" xmlns:rdf="http://www.w3.org/1999/02/22-rdf-syntax-ns#" xmlns="http://www.w3.org/2000/svg" height="662.6" width="425.2" version="1.1" xmlns:cc="http://creativecommons.org/ns#" xmlns:dc="http://purl.org/dc/elements/1.1/">
 <defs id="defs2987"></defs>
 <metadata id="metadata2991">
  <rdf:RDF>
   <cc:Work rdf:about="">
    <dc:format>image/svg+xml</dc:format>
    <dc:type rdf:resource="http://purl.org/dc/dcmitype/StillImage"/>
    <dc:title/>
   </cc:Work>
  </rdf:RDF>
 </metadata>
 <g id="layer1" transform="translate(0,-327.40159)">
  <g id="g3016" transform="matrix(2.0851986,0,0,-2.0851986,284.19846,618.75626)">
   <text id="text3002" style="letter-spacing:0px;word-spacing:0px;" font-weight="bold" xml:space="preserve" transform="scale(1,-1)" font-stretch="normal" line-height="125%" font-size="16.52952957000000100px" font-variant="normal" y="143.19263" x="18.779507" font-family="Cambria" font-style="normal" fill="#000000"><tspan id="tspan3004" y="143.19263" x="18.779507" font-weight="bold">EVSE</tspan></text>
   <g id="g3028" fill="#000" transform="matrix(0.83471676,0,0,0.89892069,-33.140647,-203.8559)">
    <path id="path3030" fill-rule="evenodd" fill="#000" d="m34.528,46.688c0-1.0602-0.389-1.1806-1.5291-1.1806-0.92571,0-1.2882,0.40225-1.2882,0.85791,0,0.49657,0.37574,0.81928,1.181,0.81928h1.6363v-0.49657zm0-2.3881,1.3685,0,0,4.6414c0,1.6764-1.1537,2.24-2.8305,2.24-1.0196,0-1.7707-0.26779-2.2938-0.99275l1.0731-0.81814c0.24128,0.389,0.57686,0.52384,1.2878,0.52384,0.97912,0,1.395-0.22878,1.395-0.8723v-0.71095h-1.8916c-1.462,0-2.2131-0.92609-2.2131-2.012,0-1.181,0.88518-2.0798,2.401-2.0798,0.92571,0,1.3954,0.21476,1.6768,0.68444h0.0269v-0.60376z"/>
   </g>
   <g id="g3032" fill="#000" transform="matrix(0.83471676,0,0,0.89892069,-26.812659,-209.52332)">
    <path id="path3034" fill-rule="evenodd" fill="#000" d="m29.819,50.605,1.3681,0,0,4.0918c0,0.992,0.65754,1.4219,1.3283,1.4219,0.34885,0,0.57687-0.09394,0.89882-0.33597l0.99238,1.1806c-0.41589,0.32195-0.87155,0.52308-1.4219,0.52308-0.72421,0-1.3416-0.26855-1.7707-0.80488h-0.02689v0.72421h-1.3681v-6.8008z"/>
   </g>
   <g id="g3036" fill="#000" transform="matrix(0.83471676,0,0,0.89892069,-10.640441,-196.43809)">
    <path id="path3038" fill-rule="evenodd" fill="#000" d="m17.783,41.562c1.2746,0,1.3416-1.1276,1.3416-2.1071,0-0.99275-0.06704-2.1185-1.3416-2.1185-1.2878,0-1.3549,1.0594-1.3549,2.1185,0,1.0469,0.06704,2.1071,1.3549,2.1071m1.3416-5.5137,1.3681,0,0,9.5514-1.3681,0,0-3.4748c-0.50982,0.48331-1.0598,0.80488-1.7575,0.80488-0.83178,0-1.4352-0.37498-1.8242-0.88556-0.37574-0.48217-0.48293-0.92458-0.48293-2.5893,0-1.6761,0.10719-2.1185,0.48293-2.6018,0.389-0.50944,0.99238-0.88556,1.8242-0.88556,0.69769,0,1.3283,0.32271,1.7575,0.79163v-0.71095z"/>
   </g>
   <g id="g3040" fill="#000" transform="matrix(0.83471676,0,0,0.89892069,10.719879,-209.52332)">
    <path id="path3042" fill-rule="evenodd" fill="#000" d="m1.8853,50.605,1.2079,0,2.173,6.8008-1.4492,0-1.3007-4.7619-0.02727,0-1.5427,4.7619-0.99276,0-1.5423-4.7619-0.02651,0-1.3015,4.7619-1.4484,0,2.1726-6.8008,1.2075,0,1.4219,4.7619,0.02651,0,1.4219-4.7619z"/>
   </g>
   <g id="g3044" fill="#000" transform="matrix(0.83471676,0,0,0.89892069,27.450022,-203.8559)">
    <path id="path3046" fill-rule="evenodd" fill="#000" d="m-10.566,46.688c0-1.0602-0.389-1.1806-1.5291-1.1806-0.92533,0-1.2882,0.40225-1.2882,0.85791,0,0.49657,0.37612,0.81928,1.181,0.81928h1.6363v-0.49657zm0-2.3881,1.3685,0,0,4.6414c0,1.6764-1.1541,2.24-2.8302,2.24-1.0196,0-1.7711-0.26779-2.2942-0.99275l1.0734-0.81814c0.24128,0.389,0.57611,0.52384,1.2871,0.52384,0.9795,0,1.3954-0.22878,1.3954-0.8723v-0.71095h-1.8916c-1.462,0-2.2135-0.92609-2.2135-2.012,0-1.181,0.88556-2.0798,2.4014-2.0798,0.92533,0,1.3954,0.21476,1.6772,0.68444h0.02651v-0.60376z"/>
   </g>
   <g id="g3048" fill="#000" transform="matrix(0.83471676,0,0,0.89892069,33.778929,-209.52332)">
    <path id="path3050" fill-rule="evenodd" fill="#000" d="m-15.276,50.605,1.3677,0,0,4.0918c0,0.992,0.65716,1.4219,1.328,1.4219,0.34922,0,0.57724-0.09394,0.89882-0.33597l0.99275,1.1806c-0.41551,0.32195-0.87193,0.52308-1.4219,0.52308-0.72421,0-1.3412-0.26855-1.77-0.80488h-0.02765v0.72421h-1.3677v-6.8008z"/>
   </g>
   <g id="g3052" fill="#000" transform="matrix(0.83471676,0,0,0.89892069,46.959941,-200.00394)">
    <path id="path3054" fill-rule="evenodd" fill="#000" d="m-25.086,44.026c0.02651,1.0329,0.63027,1.5833,1.4352,1.5833,0.80488,0,1.3954-0.55035,1.4352-1.5833h-2.8703zm4.238-1.1276,0,1.1276c0,1.7571-1.3003,2.8703-2.8029,2.8703-1.3147,0-2.8036-0.85791-2.8036-3.5006,0-2.7904,1.623-3.4616,3.018-3.4616,0.91246,0,1.7836,0.32195,2.4548,1.1003l-0.99275,0.84541c-0.40263-0.41665-0.96624-0.65754-1.4886-0.65754-0.93935,0-1.623,0.56361-1.623,1.6761h4.238z"/>
   </g>
   <g id="g3056" fill="#000" transform="matrix(0.83471676,0,0,0.89892069,-61.860162,-175.97533)">
    <path id="path3058" fill-rule="evenodd" fill="#000" d="m55.902,27.42c0-0.9795-0.0803-1.2473-0.33521-1.6098-0.20151-0.2818-0.63065-0.49657-1.0999-0.49657-0.46967,0-0.89882,0.21476-1.0999,0.49657-0.25491,0.36248-0.33559,0.63027-0.33559,1.623,0,0.9795,0.08068,1.248,0.33559,1.6098,0.20113,0.2818,0.63027,0.49657,1.0999,0.49657,0.4693,0,0.89844-0.21476,1.0999-0.49657,0.25491-0.36172,0.33521-0.63027,0.33521-1.623m-4.2388,0.01326c0-1.4749,0.21438-2.0389,0.73746-2.6158,0.37574-0.41589,1.0064-0.87155,2.0662-0.87155,1.0594,0,1.6901,0.45566,2.0658,0.87155,0.52308,0.57687,0.73784,1.1409,0.73784,2.6158,0,1.4624-0.21476,2.0257-0.73784,2.6025-0.37574,0.41589-1.0064,0.87231-2.0658,0.87231-1.0598,0-1.6904-0.45642-2.0662-0.87231-0.52308-0.57686-0.73746-1.1401-0.73746-2.6025"/>
   </g>
   <g id="g3060" fill="#000" transform="matrix(0.83471676,0,0,0.89892069,-39.250273,-174.51108)">
    <path id="path3062" fill-rule="evenodd" fill="#000" d="m39.075,26.408c0.02689,1.0337,0.63065,1.5833,1.4355,1.5833,0.80488,0,1.395-0.54959,1.4352-1.5833h-2.8707zm4.2388-1.1268,0,1.1268c0,1.7579-1.3011,2.8711-2.8033,2.8711-1.3151,0-2.8036-0.85867-2.8036-3.5013,0-2.7896,1.623-3.4608,3.018-3.4608,0.91246,0,1.784,0.32195,2.4548,1.1003l-0.99275,0.84466c-0.40225-0.41589-0.96548-0.65754-1.4886-0.65754-0.93935,0-1.6234,0.56361-1.6234,1.6768h4.2388z"/>
   </g>
   <g id="g3064" fill="#000" transform="matrix(0.83471676,0,0,0.89892069,-27.335192,-184.02876)">
    <path id="path3066" fill-rule="evenodd" fill="#000" d="m30.207,32.986,1.3681,0,0,4.0502c0,0.92647,0.57686,1.4628,1.3549,1.4628,0.76474,0,1.3416-0.53634,1.3416-1.4628v-4.0502h1.3681v4.5202c0,1.5431-1.2071,2.3612-2.2669,2.3612-0.72421,0-1.3416-0.26855-1.7704-0.80488h-0.02727v0.72421h-1.3681v-6.8008z"/>
   </g>
   <g id="g3068" fill="#000" transform="matrix(0.83471676,0,0,0.89892069,-7.2106738,-181.3232)">
    <path id="path3070" fill-rule="evenodd" fill="#000" d="m15.23,31.116c0.87193-0.81814,1.8916-1.2208,2.9915-1.2208,1.5829,0,2.8165,0.76436,2.8165,2.0931,0,1.0859-0.56285,1.945-1.9715,2.0389l-1.1268,0.07954c-0.68406,0.05416-0.89844,0.34923-0.89844,0.64467,0,0.46892,0.29506,0.81814,1.1666,0.81814,0.73822,0,1.2886-0.25529,1.8249-0.63027l0.84504,0.992c-0.67118,0.56361-1.4753,0.92609-2.6699,0.92609-1.4352,0-2.5351-0.71095-2.5351-2.0927,0-1.1666,0.83178-1.8378,1.9582-1.9317l1.2075-0.10719c0.47005-0.03977,0.83178-0.18787,0.83178-0.6708,0-0.57724-0.56399-0.87155-1.3416-0.87155-0.91208,0-1.556,0.2943-2.1461,0.87155l-0.9526-0.93897z"/>
   </g>
   <g id="g3072" fill="#000" transform="matrix(0.83471676,0,0,0.89892069,16.646034,-175.97533)">
    <path id="path3074" fill-rule="evenodd" fill="#000" d="m-2.5252,27.42c0-0.9795-0.07992-1.2473-0.33521-1.6098-0.20113-0.2818-0.63027-0.49657-1.0999-0.49657-0.46892,0-0.89882,0.21476-1.0992,0.49657-0.25529,0.36248-0.33597,0.63027-0.33597,1.623,0,0.9795,0.08068,1.248,0.33597,1.6098,0.20037,0.2818,0.63027,0.49657,1.0992,0.49657,0.46967,0,0.89882-0.21476,1.0999-0.49657,0.25529-0.36172,0.33521-0.63027,0.33521-1.623m-4.2388,0.01326c0-1.4749,0.21514-2.0389,0.73822-2.6158,0.37574-0.41589,1.006-0.87155,2.0654-0.87155,1.0602,0,1.6904,0.45566,2.0662,0.87155,0.52308,0.57686,0.73746,1.1409,0.73746,2.6158,0,1.4624-0.21438,2.0257-0.73746,2.6025-0.37574,0.41589-1.006,0.8723-2.0662,0.8723-1.0594,0-1.6897-0.45642-2.0654-0.8723-0.52308-0.57687-0.73822-1.1401-0.73822-2.6025"/>
   </g>
   <g id="g3076" fill="#000" transform="matrix(0.83471676,0,0,0.89892069,22.236382,-178.61762)">
    <path id="path3078" fill-rule="evenodd" fill="#000" d="m-6.6858,29.246c0-1.5423,1.2075-2.3605,2.2806-2.3605,0.71019,0,1.328,0.26855,1.7571,0.80488h0.02651v-0.72496h1.3681v6.8016h-1.3681v-4.0513c0-0.92533-0.57686-1.4624-1.3416-1.4624-0.77761,0-1.3549,0.5371-1.3549,1.4624v4.0513h-1.3677v-4.521z"/>
   </g>
   <g id="g3080" fill="#000" transform="matrix(0.83471676,0,0,0.89892069,37.513953,-184.02876)">
    <path id="path3082" fill-rule="evenodd" fill="#000" d="m-18.056,32.986,1.3685,0,0,4.0911c0,0.99276,0.65716,1.4219,1.328,1.4219,0.34923,0,0.57724-0.09393,0.89882-0.33521l0.99275,1.1806c-0.41627,0.32195-0.87117,0.52308-1.4219,0.52308-0.72421,0-1.342-0.26855-1.7707-0.80488h-0.02689v0.72421h-1.3685v-6.8008z"/>
   </g>
   <g id="g3084" fill="#000" transform="matrix(0.83471676,0,0,0.89892069,57.227625,-179.28659)">
    <path id="path3086" fill-rule="evenodd" fill="#000" d="m-32.728,29.709c-0.33521-0.41589-0.81814-0.71095-1.381-0.71095-1.1136,0-1.7711,0.63103-1.7711,2.1071,0,1.4882,0.65754,2.1185,1.7711,2.1185,0.56285,0,1.0458-0.29506,1.381-0.71095l1.006,0.89882c-0.58936,0.68444-1.4086,1.181-2.4412,1.181-1.5692,0-3.0851-0.99313-3.0851-3.4873,0-2.4828,1.5158-3.4748,3.0851-3.4748,1.0325,0,1.8518,0.49619,2.4412,1.1799l-1.006,0.89882z"/>
   </g>
   <g id="g3088" fill="#000" transform="matrix(0.83471676,0,0,0.89892069,63.227152,-174.51108)">
    <path id="path3090" fill-rule="evenodd" fill="#000" d="m-37.193,26.408c0.02651,1.0337,0.63027,1.5833,1.4352,1.5833,0.80488,0,1.3946-0.54959,1.4352-1.5833h-2.8703zm4.2388-1.1268,0,1.1268c0,1.7579-1.3018,2.8711-2.8036,2.8711-1.3155,0-2.8036-0.85867-2.8036-3.5013,0-2.7896,1.623-3.4608,3.018-3.4608,0.91246,0,1.7844,0.32195,2.4548,1.1003l-0.99275,0.84466c-0.40263-0.41589-0.96548-0.65754-1.4886-0.65754-0.93935,0-1.623,0.56361-1.623,1.6768h4.2388z"/>
   </g>
   <g id="g3092" fill="#000" transform="matrix(0.83471676,0,0,0.89892069,-56.282836,-209.52332)">
    <path id="path3094" fill-rule="nonzero" fill="#000" d="m51.751,50.605,0,17.543,1.3734,0,0-0.71095c0.42952,0.47005,1.0598,0.79163,1.7575,0.79163,0.8314,0,1.4355-0.37574,1.8245-0.88556,0.37536-0.48293,0.48255-0.92533,0.48255-2.6025,0-1.6628-0.10719-2.106-0.48255-2.5885-0.389-0.50944-0.99313-0.88556-1.8245-0.88556-0.69769,0-1.2477,0.32195-1.7575,0.80488l-0.0049-5.3899c0.45604,0.53634,1.0731,0.80488,1.7973,0.80488,1.0598,0,2.2669-0.81814,2.2669-2.3605v-4.521h-1.3681v4.0509c0,0.92647-0.57687,1.4628-1.3416,1.4628-0.77799,0-1.3545-0.53634-1.3545-1.4628v-4.0509h-1.3685zm2.715,12.03c1.2878,0,1.3549,1.0602,1.3549,2.106,0,1.0602-0.06704,2.1196-1.3549,2.1196-1.2742,0-1.3416-1.1268-1.3416-2.1196,0-0.9795,0.06742-2.106,1.3416-2.106"/>
   </g>
   <text id="text3629" style="letter-spacing:0px;word-spacing:0px;" font-weight="normal" xml:space="preserve" transform="scale(1,-1)" font-stretch="normal" line-height="125%" font-size="10.32350922px" font-variant="normal" y="2.3509784" x="-65.481461" font-family="Cambria" font-style="normal" fill="#000000"><tspan id="tspan3631" font-weight="bold" font-size="11.50969505px" font-style="normal" font-stretch="normal" font-variant="normal" y="2.3509784" x="-65.481461" font-family="Arial">Menu/Select</tspan></text>
   <path id="path3111" d="m-51.189-114.3-16.937-3.1517c-1.283-0.25366-2.1162-0.79038-2.8355-1.4104-0.65068-0.59676-1.2303-1.2903-1.6383-2.3699l-6.0902-15.213c-0.38967-0.90188-0.47055-1.6616-0.4779-2.3576,0.02451-1.098,0.20586-2.153,1.0293-3.4078l9.5996-13.989-10.761-10.76-13.705,9.406c-1.1996,0.79405-2.2731,0.98521-3.3147,1.0024-0.8786-0.01-1.7805-0.15562-2.789-0.69602h-0.0012l-3.5585-1.9006-11.94,28.854c0.28674,0.20832,0.55142,0.42031,0.81856,0.64823,7.4099,4.8709,12.32,13.292,12.32,22.836-0.002,15.103-12.239,27.338-27.338,27.341-15.099-0.0025-27.335-12.238-27.341-27.341,0.002-9.5445,4.9113-17.965,12.322-22.836,0.26469-0.22547,0.52814-0.43746,0.81856-0.647l-11.939-28.855-3.5573,1.9006c-1.0232,0.54775-1.9398,0.68622-2.7939,0.69602-1.0551-0.0171-2.1199-0.21076-3.3183-1.0073l-13.696-9.4011-10.764,10.76,9.6009,13.994c0.8161,1.2523,1.0011,2.3013,1.0269,3.4029-0.01,0.71317-0.10048,1.4754-0.47545,2.3527l-6.1012,15.246c-0.41173,1.0747-0.99134,1.756-1.6347,2.3466-0.72175,0.61759-1.5477,1.1519-2.8441,1.408l-16.924,3.1492-0.001,15.218,17.431,3.2436c1.2634,0.25366,2.0734,0.76464,2.7902,1.3626,0.63719,0.56735,1.218,1.2217,1.6494,2.2621l0.002-0.0012,6.1379,14.325c0.41418,0.90556,0.53059,1.7106,0.53795,2.4949-0.0221,1.0722-0.19974,2.1211-1.0036,3.3612l-10.19,14.848,10.761,10.761,15.131-10.385c1.2634-0.82346,2.3013-0.99624,3.3992-1.0207,0.71929,0.0061,1.4778,0.09681,2.3613,0.47545l13.913,5.6956c1.0771,0.42398,1.756,1.0122,2.3368,1.6567,0.60534,0.71807,1.12,1.5293,1.3798,2.789l3.3747,18.141h15.217l3.3722-18.122c0.26468-1.2842,0.78057-2.0917,1.3847-2.8074,0.58574-0.64945,1.2646-1.2389,2.3515-1.6628l13.915-5.6968c0.87247-0.37129,1.6163-0.46197,2.3393-0.47177,1.0869,0.02818,2.1371,0.19851,3.3992,1.022l15.136,10.389,10.76-10.763-10.177-14.831c-0.81856-1.2217-0.99746-2.2988-1.022-3.3784,0.0074-0.76586,0.12009-1.5477,0.50608-2.414l6.1735-14.406h0.0012c0.43378-1.0404,1.0134-1.6935,1.653-2.2608,0.7144-0.59554,1.517-1.1053,2.7841-1.3626l17.435-3.2424-0.0012-15.219zm3.5218,19.541-20.144,3.746c-0.49138,0.0919-1.0269,0.55265-1.1923,1.0256l-6.1747,14.406c-0.23037,0.44481-0.18626,1.1433,0.09803,1.5575l11.737,17.106c0.28061,0.41173,0.22547,1.0379-0.12866,1.392l-14.659,14.659c-0.35414,0.35414-0.97908,0.41173-1.3908,0.12866l-17.407-11.945c-0.41173-0.28306-1.1175-0.3333-1.5648-0.11274l-13.966,5.7164c-0.47422,0.15685-0.93619,0.68744-1.0293,1.1788l-3.8771,20.835c-0.0907,0.49138-0.5747,0.8933-1.0747,0.8933h-20.733c-0.49873,0-0.98275-0.40192-1.0747-0.8933l-3.8759-20.835c-0.0931-0.49138-0.55388-1.022-1.0306-1.1788l-13.966-5.7164c-0.44726-0.22057-1.1531-0.17033-1.5636,0.11274l-17.407,11.945c-0.41173,0.28306-1.0391,0.22547-1.3908-0.12866l-14.66-14.659c-0.35168-0.35414-0.41173-0.98031-0.12866-1.392l11.738-17.106c0.28184-0.41418,0.32718-1.1126,0.098-1.5575l-6.1759-14.406c-0.1642-0.473-0.69969-0.93374-1.1935-1.0256l-20.143-3.746c-0.49137-0.09313-0.8933-0.57593-0.8933-1.0759l0.001-20.732c0-0.49995,0.40192-0.98643,0.8933-1.0759l19.65-3.6566c0.49015-0.0907,1.0171-0.55755,1.1666-1.033l6.1343-15.323c0.21934-0.44971,0.16788-1.1531-0.11764-1.5648l-11.161-16.266c-0.28184-0.41173-0.22425-1.0379,0.12866-1.3933l14.663-14.658c0.35169-0.35291,0.97908-0.40928,1.3908-0.12989l15.978,10.966c0.4105,0.28306,1.1004,0.30389,1.5317,0.0527l7.046-3.7619c0.44481-0.22793,0.96682-0.0355,1.1568,0.42643l14.528,35.105c0.19361,0.46196,0,1.0514-0.42521,1.3124l-1.7633,1.0796c-0.32595,0.19851-0.76831,0.54162-1.1151,0.85409-6.361,4.0744-10.582,11.2-10.582,19.314,0,12.663,10.267,22.928,22.929,22.928s22.927-10.265,22.927-22.928c0-8.1145-4.219-15.24-10.581-19.314-0.34433-0.31247-0.78669-0.65558-1.1126-0.85409l-1.7633-1.0796c-0.42398-0.26101-0.61759-0.85042-0.42643-1.3124l14.528-35.105c0.19115-0.46197,0.71072-0.65436,1.158-0.42643l7.046,3.7619c0.43011,0.2512,1.12,0.23037,1.5317-0.0527l15.978-10.966c0.41173-0.27939,1.0391-0.22302,1.3908,0.12989l14.662,14.658c0.35414,0.35536,0.4105,0.98153,0.12866,1.3933l-11.162,16.266c-0.28306,0.41173-0.33576,1.1151-0.11519,1.5648l6.1343,15.323c0.15072,0.47544,0.67274,0.94232,1.1653,1.033l19.649,3.6566c0.49015,0.0894,0.8933,0.57593,0.8933,1.0759l0.0025,20.732c0,0.49996-0.40315,0.98276-0.8933,1.0759" fill-rule="nonzero" fill="#000"/>
  </g>
 </g>
</svg>
