<?xml version="1.0" encoding="UTF-8" standalone="no"?>
<!-- Created with Inkscape (http://www.inkscape.org/) -->

<svg
   xmlns:dc="http://purl.org/dc/elements/1.1/"
   xmlns:cc="http://creativecommons.org/ns#"
   xmlns:rdf="http://www.w3.org/1999/02/22-rdf-syntax-ns#"
   xmlns:svg="http://www.w3.org/2000/svg"
   xmlns="http://www.w3.org/2000/svg"
   xmlns:sodipodi="http://sodipodi.sourceforge.net/DTD/sodipodi-0.dtd"
   xmlns:inkscape="http://www.inkscape.org/namespaces/inkscape"
   width="425.19684"
   height="662.59839"
   id="svg2985"
   version="1.1"
   inkscape:version="0.48.4 r9939"
   sodipodi:docname="Enclosure Silk_blue.svg">
  <defs
     id="defs2987">
    <clipPath
       clipPathUnits="userSpaceOnUse"
       id="clipPath3020">
      <path
         inkscape:connector-curvature="0"
         d="m 0,180.994 172.238,0 L 172.238,0 0,0 0,180.994 z"
         id="path3022" />
    </clipPath>
  </defs>
  <sodipodi:namedview
     inkscape:document-units="in"
     pagecolor="#ffffff"
     bordercolor="#666666"
     borderopacity="1.0"
     inkscape:pageopacity="0.0"
     inkscape:pageshadow="2"
     inkscape:zoom="0.85"
     inkscape:cx="340"
     inkscape:cy="273.77062"
     inkscape:current-layer="g3016"
     id="namedview2989"
     showgrid="false"
     inkscape:window-width="1366"
     inkscape:window-height="706"
     inkscape:window-x="-8"
     inkscape:window-y="-8"
     inkscape:window-maximized="1"
     units="mm" />
  <metadata
     id="metadata2991">
    <rdf:RDF>
      <cc:Work
         rdf:about="">
        <dc:format>image/svg+xml</dc:format>
        <dc:type
           rdf:resource="http://purl.org/dc/dcmitype/StillImage" />
        <dc:title />
      </cc:Work>
    </rdf:RDF>
  </metadata>
  <g
     inkscape:label="Layer 1"
     inkscape:groupmode="layer"
     id="layer1"
     transform="translate(0,-327.40159)">
    <g
       transform="matrix(2.0851986,0,0,-2.0851986,284.19846,618.75626)"
       id="g3016"
       style="fill:#000000">
      <flowRoot
         xml:space="preserve"
         id="flowRoot2994"
         style="font-size:40px;font-style:normal;font-variant:normal;font-weight:normal;font-stretch:normal;line-height:125%;letter-spacing:0px;word-spacing:0px;fill:#000000;fill-opacity:1;stroke:none;font-family:Cambria;-inkscape-font-specification:Cambria"
         transform="matrix(0.41743692,0,0,-0.41743692,-50.882702,-85.370678)"><flowRegion
           id="flowRegion2996"><rect
             id="rect2998"
             width="494.44446"
             height="225"
             x="69.444443"
             y="103.88889"
             style="fill:#000000" /></flowRegion><flowPara
           id="flowPara3000"
           style="font-weight:bold;-inkscape-font-specification:Cambria Bold">Open</flowPara></flowRoot>      <g
         style="fill:#000000"
         transform="matrix(0.79924157,0,0,0.79924157,57.316645,-103.42093)"
         id="g3024">
        <path
           id="path3026"
           style="fill:#000000;fill-opacity:1;fill-rule:nonzero;stroke:none"
           d="m -101.36214,-38.365354 -3.87033,0.719728 c -0.0944,0.01765 -0.19729,0.106181 -0.22908,0.19706 l -1.18636,2.767787 c -0.0442,0.08546 -0.036,0.219662 0.0188,0.299239 l 2.25501,3.286689 c 0.0539,0.07911 0.0433,0.199415 -0.0247,0.267456 l -2.81652,2.816522 c -0.068,0.06804 -0.18811,0.07911 -0.26722,0.02472 l -3.34437,-2.295031 c -0.0791,-0.05439 -0.21472,-0.06404 -0.30089,-0.02166 l -2.68303,1.098309 c -0.0911,0.03013 -0.17987,0.132079 -0.19777,0.226489 l -0.74491,4.003121 c -0.0174,0.09441 -0.11042,0.171633 -0.20648,0.171633 l -3.98358,0 c -0.0958,0 -0.18906,-0.07722 -0.20648,-0.171633 l -0.74468,-4.003121 c -0.0179,-0.09441 -0.10642,-0.196354 -0.198,-0.226489 l -2.68327,-1.098309 c -0.0859,-0.04238 -0.22178,-0.03272 -0.30042,0.02166 l -3.34437,2.295031 c -0.0791,0.05439 -0.19965,0.04332 -0.26722,-0.02472 l -2.81675,-2.816522 c -0.0676,-0.06804 -0.0791,-0.188349 -0.0247,-0.267456 l 2.25524,-3.286689 c 0.0541,-0.07958 0.0629,-0.213776 0.0188,-0.299239 l -1.18684,-2.767787 c -0.0313,-0.09088 -0.1342,-0.179403 -0.22908,-0.19706 l -3.8701,-0.719728 c -0.0944,-0.01789 -0.17163,-0.110656 -0.17163,-0.206714 l 2.4e-4,-3.983344 c 0,-0.09606 0.0772,-0.189526 0.17163,-0.206713 l 3.77521,-0.702541 c 0.0944,-0.01719 0.19565,-0.106888 0.22438,-0.198473 l 1.17836,-2.944129 c 0.0424,-0.0864 0.0325,-0.221545 -0.0224,-0.300652 l -2.14435,-3.125179 c -0.0541,-0.07911 -0.0431,-0.199415 0.0247,-0.267456 l 2.81723,-2.816522 c 0.0676,-0.06757 0.18812,-0.07864 0.26722,-0.02496 l 3.06985,2.107154 c 0.0789,0.05415 0.21143,0.05839 0.2943,0.0099 l 1.35376,-0.722789 c 0.0855,-0.04356 0.18575,-0.0068 0.22225,0.08193 l 2.79133,6.744774 c 0.0372,0.08876 0,0.20224 -0.0817,0.252388 l -0.33879,0.207184 c -0.0626,0.03837 -0.14762,0.104063 -0.21425,0.164334 -1.22215,0.78259 -2.03323,2.151651 -2.03323,3.710709 0,2.432998 1.97273,4.405246 4.40549,4.405246 2.43276,0 4.40501,-1.972248 4.40501,-4.405246 0,-1.559058 -0.81061,-2.928119 -2.03299,-3.710709 -0.0662,-0.06027 -0.15115,-0.125958 -0.21378,-0.164334 l -0.33879,-0.207184 c -0.0815,-0.05015 -0.11866,-0.163628 -0.0819,-0.252388 l 2.79133,-6.744774 c 0.0367,-0.08876 0.13655,-0.125488 0.22248,-0.08193 l 1.35376,0.722789 c 0.0826,0.0485 0.21519,0.04426 0.29429,-0.0099 l 3.06986,-2.107154 c 0.0791,-0.05368 0.19965,-0.04261 0.26722,0.02496 l 2.81699,2.816522 c 0.068,0.06804 0.0789,0.188349 0.0247,0.267456 l -2.14458,3.125179 c -0.0544,0.07911 -0.0645,0.214247 -0.0221,0.300652 l 1.17859,2.944129 c 0.029,0.09158 0.12926,0.181286 0.2239,0.198473 l 3.77522,0.702541 c 0.0942,0.01719 0.17163,0.110655 0.17163,0.206713 l 4.7e-4,3.983344 c 0,0.09606 -0.0774,0.18882 -0.17163,0.206714"
           inkscape:connector-curvature="0" />
      </g>
    </g>
  </g>
</svg>
