<?xml version="1.0" encoding="UTF-8" standalone="no"?>
<!-- Created with Inkscape (http://www.inkscape.org/) -->

<svg
   xmlns:dc="http://purl.org/dc/elements/1.1/"
   xmlns:cc="http://creativecommons.org/ns#"
   xmlns:rdf="http://www.w3.org/1999/02/22-rdf-syntax-ns#"
   xmlns:svg="http://www.w3.org/2000/svg"
   xmlns="http://www.w3.org/2000/svg"
   xmlns:sodipodi="http://sodipodi.sourceforge.net/DTD/sodipodi-0.dtd"
   xmlns:inkscape="http://www.inkscape.org/namespaces/inkscape"
   id="svg2985"
   height="662.6"
   width="425.2"
   version="1.1"
   inkscape:version="0.48.4 r9939"
   sodipodi:docname="Enclosure Silk.svg">
  <sodipodi:namedview
     pagecolor="#ffffff"
     bordercolor="#666666"
     borderopacity="1"
     objecttolerance="10"
     gridtolerance="10"
     guidetolerance="10"
     inkscape:pageopacity="0"
     inkscape:pageshadow="2"
     inkscape:window-width="1366"
     inkscape:window-height="706"
     id="namedview46"
     showgrid="false"
     inkscape:zoom="0.97409621"
     inkscape:cx="252.3298"
     inkscape:cy="63.287138"
     inkscape:window-x="-8"
     inkscape:window-y="-8"
     inkscape:window-maximized="1"
     inkscape:current-layer="svg2985" />
  <defs
     id="defs2987" />
  <metadata
     id="metadata2991">
    <rdf:RDF>
      <cc:Work
         rdf:about="">
        <dc:format>image/svg+xml</dc:format>
        <dc:type
           rdf:resource="http://purl.org/dc/dcmitype/StillImage" />
        <dc:title />
      </cc:Work>
    </rdf:RDF>
  </metadata>
  <g
     id="layer1"
     transform="translate(0,-327.40159)">
    <g
       id="g3016"
       transform="matrix(2.0851986,0,0,-2.0851986,284.19846,618.75626)">
      <text
         id="text3002"
         style="letter-spacing:0px;word-spacing:0px;"
         font-weight="bold"
         xml:space="preserve"
         transform="scale(1,-1)"
         font-stretch="normal"
         line-height="125%"
         font-size="16.52952957000000100px"
         font-variant="normal"
         y="143.19263"
         x="18.779507"
         font-family="Cambria"
         font-style="normal"
         fill="#000000"><tspan
           id="tspan3004"
           y="143.19263"
           x="18.779507"
           font-weight="bold">EVSE</tspan></text>
      <g
         id="g3028"
         fill="#000"
         transform="matrix(0.83471676,0,0,0.89892069,-33.140647,-203.8559)">
        <path
           id="path3030"
           fill-rule="evenodd"
           fill="#000"
           d="m34.528,46.688c0-1.0602-0.389-1.1806-1.5291-1.1806-0.92571,0-1.2882,0.40225-1.2882,0.85791,0,0.49657,0.37574,0.81928,1.181,0.81928h1.6363v-0.49657zm0-2.3881,1.3685,0,0,4.6414c0,1.6764-1.1537,2.24-2.8305,2.24-1.0196,0-1.7707-0.26779-2.2938-0.99275l1.0731-0.81814c0.24128,0.389,0.57686,0.52384,1.2878,0.52384,0.97912,0,1.395-0.22878,1.395-0.8723v-0.71095h-1.8916c-1.462,0-2.2131-0.92609-2.2131-2.012,0-1.181,0.88518-2.0798,2.401-2.0798,0.92571,0,1.3954,0.21476,1.6768,0.68444h0.0269v-0.60376z" />
      </g>
      <g
         id="g3032"
         fill="#000"
         transform="matrix(0.83471676,0,0,0.89892069,-26.812659,-209.52332)">
        <path
           id="path3034"
           fill-rule="evenodd"
           fill="#000"
           d="m29.819,50.605,1.3681,0,0,4.0918c0,0.992,0.65754,1.4219,1.3283,1.4219,0.34885,0,0.57687-0.09394,0.89882-0.33597l0.99238,1.1806c-0.41589,0.32195-0.87155,0.52308-1.4219,0.52308-0.72421,0-1.3416-0.26855-1.7707-0.80488h-0.02689v0.72421h-1.3681v-6.8008z" />
      </g>
      <g
         id="g3036"
         fill="#000"
         transform="matrix(0.83471676,0,0,0.89892069,-10.640441,-196.43809)">
        <path
           id="path3038"
           fill-rule="evenodd"
           fill="#000"
           d="m17.783,41.562c1.2746,0,1.3416-1.1276,1.3416-2.1071,0-0.99275-0.06704-2.1185-1.3416-2.1185-1.2878,0-1.3549,1.0594-1.3549,2.1185,0,1.0469,0.06704,2.1071,1.3549,2.1071m1.3416-5.5137,1.3681,0,0,9.5514-1.3681,0,0-3.4748c-0.50982,0.48331-1.0598,0.80488-1.7575,0.80488-0.83178,0-1.4352-0.37498-1.8242-0.88556-0.37574-0.48217-0.48293-0.92458-0.48293-2.5893,0-1.6761,0.10719-2.1185,0.48293-2.6018,0.389-0.50944,0.99238-0.88556,1.8242-0.88556,0.69769,0,1.3283,0.32271,1.7575,0.79163v-0.71095z" />
      </g>
      <g
         id="g3040"
         fill="#000"
         transform="matrix(0.83471676,0,0,0.89892069,10.719879,-209.52332)">
        <path
           id="path3042"
           fill-rule="evenodd"
           fill="#000"
           d="m1.8853,50.605,1.2079,0,2.173,6.8008-1.4492,0-1.3007-4.7619-0.02727,0-1.5427,4.7619-0.99276,0-1.5423-4.7619-0.02651,0-1.3015,4.7619-1.4484,0,2.1726-6.8008,1.2075,0,1.4219,4.7619,0.02651,0,1.4219-4.7619z" />
      </g>
      <g
         id="g3044"
         fill="#000"
         transform="matrix(0.83471676,0,0,0.89892069,27.450022,-203.8559)">
        <path
           id="path3046"
           fill-rule="evenodd"
           fill="#000"
           d="m-10.566,46.688c0-1.0602-0.389-1.1806-1.5291-1.1806-0.92533,0-1.2882,0.40225-1.2882,0.85791,0,0.49657,0.37612,0.81928,1.181,0.81928h1.6363v-0.49657zm0-2.3881,1.3685,0,0,4.6414c0,1.6764-1.1541,2.24-2.8302,2.24-1.0196,0-1.7711-0.26779-2.2942-0.99275l1.0734-0.81814c0.24128,0.389,0.57611,0.52384,1.2871,0.52384,0.9795,0,1.3954-0.22878,1.3954-0.8723v-0.71095h-1.8916c-1.462,0-2.2135-0.92609-2.2135-2.012,0-1.181,0.88556-2.0798,2.4014-2.0798,0.92533,0,1.3954,0.21476,1.6772,0.68444h0.02651v-0.60376z" />
      </g>
      <g
         id="g3048"
         fill="#000"
         transform="matrix(0.83471676,0,0,0.89892069,33.778929,-209.52332)">
        <path
           id="path3050"
           fill-rule="evenodd"
           fill="#000"
           d="m-15.276,50.605,1.3677,0,0,4.0918c0,0.992,0.65716,1.4219,1.328,1.4219,0.34922,0,0.57724-0.09394,0.89882-0.33597l0.99275,1.1806c-0.41551,0.32195-0.87193,0.52308-1.4219,0.52308-0.72421,0-1.3412-0.26855-1.77-0.80488h-0.02765v0.72421h-1.3677v-6.8008z" />
      </g>
      <g
         id="g3052"
         fill="#000"
         transform="matrix(0.83471676,0,0,0.89892069,46.959941,-200.00394)">
        <path
           id="path3054"
           fill-rule="evenodd"
           fill="#000"
           d="m-25.086,44.026c0.02651,1.0329,0.63027,1.5833,1.4352,1.5833,0.80488,0,1.3954-0.55035,1.4352-1.5833h-2.8703zm4.238-1.1276,0,1.1276c0,1.7571-1.3003,2.8703-2.8029,2.8703-1.3147,0-2.8036-0.85791-2.8036-3.5006,0-2.7904,1.623-3.4616,3.018-3.4616,0.91246,0,1.7836,0.32195,2.4548,1.1003l-0.99275,0.84541c-0.40263-0.41665-0.96624-0.65754-1.4886-0.65754-0.93935,0-1.623,0.56361-1.623,1.6761h4.238z" />
      </g>
      <g
         id="g3056"
         fill="#000"
         transform="matrix(0.83471676,0,0,0.89892069,-61.860162,-175.97533)">
        <path
           id="path3058"
           fill-rule="evenodd"
           fill="#000"
           d="m55.902,27.42c0-0.9795-0.0803-1.2473-0.33521-1.6098-0.20151-0.2818-0.63065-0.49657-1.0999-0.49657-0.46967,0-0.89882,0.21476-1.0999,0.49657-0.25491,0.36248-0.33559,0.63027-0.33559,1.623,0,0.9795,0.08068,1.248,0.33559,1.6098,0.20113,0.2818,0.63027,0.49657,1.0999,0.49657,0.4693,0,0.89844-0.21476,1.0999-0.49657,0.25491-0.36172,0.33521-0.63027,0.33521-1.623m-4.2388,0.01326c0-1.4749,0.21438-2.0389,0.73746-2.6158,0.37574-0.41589,1.0064-0.87155,2.0662-0.87155,1.0594,0,1.6901,0.45566,2.0658,0.87155,0.52308,0.57687,0.73784,1.1409,0.73784,2.6158,0,1.4624-0.21476,2.0257-0.73784,2.6025-0.37574,0.41589-1.0064,0.87231-2.0658,0.87231-1.0598,0-1.6904-0.45642-2.0662-0.87231-0.52308-0.57686-0.73746-1.1401-0.73746-2.6025" />
      </g>
      <g
         id="g3060"
         fill="#000"
         transform="matrix(0.83471676,0,0,0.89892069,-39.250273,-174.51108)">
        <path
           id="path3062"
           fill-rule="evenodd"
           fill="#000"
           d="m39.075,26.408c0.02689,1.0337,0.63065,1.5833,1.4355,1.5833,0.80488,0,1.395-0.54959,1.4352-1.5833h-2.8707zm4.2388-1.1268,0,1.1268c0,1.7579-1.3011,2.8711-2.8033,2.8711-1.3151,0-2.8036-0.85867-2.8036-3.5013,0-2.7896,1.623-3.4608,3.018-3.4608,0.91246,0,1.784,0.32195,2.4548,1.1003l-0.99275,0.84466c-0.40225-0.41589-0.96548-0.65754-1.4886-0.65754-0.93935,0-1.6234,0.56361-1.6234,1.6768h4.2388z" />
      </g>
      <g
         id="g3064"
         fill="#000"
         transform="matrix(0.83471676,0,0,0.89892069,-27.335192,-184.02876)">
        <path
           id="path3066"
           fill-rule="evenodd"
           fill="#000"
           d="m30.207,32.986,1.3681,0,0,4.0502c0,0.92647,0.57686,1.4628,1.3549,1.4628,0.76474,0,1.3416-0.53634,1.3416-1.4628v-4.0502h1.3681v4.5202c0,1.5431-1.2071,2.3612-2.2669,2.3612-0.72421,0-1.3416-0.26855-1.7704-0.80488h-0.02727v0.72421h-1.3681v-6.8008z" />
      </g>
      <g
         id="g3068"
         fill="#000"
         transform="matrix(0.83471676,0,0,0.89892069,-7.2106738,-181.3232)">
        <path
           id="path3070"
           fill-rule="evenodd"
           fill="#000"
           d="m15.23,31.116c0.87193-0.81814,1.8916-1.2208,2.9915-1.2208,1.5829,0,2.8165,0.76436,2.8165,2.0931,0,1.0859-0.56285,1.945-1.9715,2.0389l-1.1268,0.07954c-0.68406,0.05416-0.89844,0.34923-0.89844,0.64467,0,0.46892,0.29506,0.81814,1.1666,0.81814,0.73822,0,1.2886-0.25529,1.8249-0.63027l0.84504,0.992c-0.67118,0.56361-1.4753,0.92609-2.6699,0.92609-1.4352,0-2.5351-0.71095-2.5351-2.0927,0-1.1666,0.83178-1.8378,1.9582-1.9317l1.2075-0.10719c0.47005-0.03977,0.83178-0.18787,0.83178-0.6708,0-0.57724-0.56399-0.87155-1.3416-0.87155-0.91208,0-1.556,0.2943-2.1461,0.87155l-0.9526-0.93897z" />
      </g>
      <g
         id="g3072"
         fill="#000"
         transform="matrix(0.83471676,0,0,0.89892069,16.646034,-175.97533)">
        <path
           id="path3074"
           fill-rule="evenodd"
           fill="#000"
           d="m-2.5252,27.42c0-0.9795-0.07992-1.2473-0.33521-1.6098-0.20113-0.2818-0.63027-0.49657-1.0999-0.49657-0.46892,0-0.89882,0.21476-1.0992,0.49657-0.25529,0.36248-0.33597,0.63027-0.33597,1.623,0,0.9795,0.08068,1.248,0.33597,1.6098,0.20037,0.2818,0.63027,0.49657,1.0992,0.49657,0.46967,0,0.89882-0.21476,1.0999-0.49657,0.25529-0.36172,0.33521-0.63027,0.33521-1.623m-4.2388,0.01326c0-1.4749,0.21514-2.0389,0.73822-2.6158,0.37574-0.41589,1.006-0.87155,2.0654-0.87155,1.0602,0,1.6904,0.45566,2.0662,0.87155,0.52308,0.57686,0.73746,1.1409,0.73746,2.6158,0,1.4624-0.21438,2.0257-0.73746,2.6025-0.37574,0.41589-1.006,0.8723-2.0662,0.8723-1.0594,0-1.6897-0.45642-2.0654-0.8723-0.52308-0.57687-0.73822-1.1401-0.73822-2.6025" />
      </g>
      <g
         id="g3076"
         fill="#000"
         transform="matrix(0.83471676,0,0,0.89892069,22.236382,-178.61762)">
        <path
           id="path3078"
           fill-rule="evenodd"
           fill="#000"
           d="m-6.6858,29.246c0-1.5423,1.2075-2.3605,2.2806-2.3605,0.71019,0,1.328,0.26855,1.7571,0.80488h0.02651v-0.72496h1.3681v6.8016h-1.3681v-4.0513c0-0.92533-0.57686-1.4624-1.3416-1.4624-0.77761,0-1.3549,0.5371-1.3549,1.4624v4.0513h-1.3677v-4.521z" />
      </g>
      <g
         id="g3080"
         fill="#000"
         transform="matrix(0.83471676,0,0,0.89892069,37.513953,-184.02876)">
        <path
           id="path3082"
           fill-rule="evenodd"
           fill="#000"
           d="m-18.056,32.986,1.3685,0,0,4.0911c0,0.99276,0.65716,1.4219,1.328,1.4219,0.34923,0,0.57724-0.09393,0.89882-0.33521l0.99275,1.1806c-0.41627,0.32195-0.87117,0.52308-1.4219,0.52308-0.72421,0-1.342-0.26855-1.7707-0.80488h-0.02689v0.72421h-1.3685v-6.8008z" />
      </g>
      <g
         id="g3084"
         fill="#000"
         transform="matrix(0.83471676,0,0,0.89892069,57.227625,-179.28659)">
        <path
           id="path3086"
           fill-rule="evenodd"
           fill="#000"
           d="m-32.728,29.709c-0.33521-0.41589-0.81814-0.71095-1.381-0.71095-1.1136,0-1.7711,0.63103-1.7711,2.1071,0,1.4882,0.65754,2.1185,1.7711,2.1185,0.56285,0,1.0458-0.29506,1.381-0.71095l1.006,0.89882c-0.58936,0.68444-1.4086,1.181-2.4412,1.181-1.5692,0-3.0851-0.99313-3.0851-3.4873,0-2.4828,1.5158-3.4748,3.0851-3.4748,1.0325,0,1.8518,0.49619,2.4412,1.1799l-1.006,0.89882z" />
      </g>
      <g
         id="g3088"
         fill="#000"
         transform="matrix(0.83471676,0,0,0.89892069,63.227152,-174.51108)">
        <path
           id="path3090"
           fill-rule="evenodd"
           fill="#000"
           d="m-37.193,26.408c0.02651,1.0337,0.63027,1.5833,1.4352,1.5833,0.80488,0,1.3946-0.54959,1.4352-1.5833h-2.8703zm4.2388-1.1268,0,1.1268c0,1.7579-1.3018,2.8711-2.8036,2.8711-1.3155,0-2.8036-0.85867-2.8036-3.5013,0-2.7896,1.623-3.4608,3.018-3.4608,0.91246,0,1.7844,0.32195,2.4548,1.1003l-0.99275,0.84466c-0.40263-0.41589-0.96548-0.65754-1.4886-0.65754-0.93935,0-1.623,0.56361-1.623,1.6768h4.2388z" />
      </g>
      <g
         id="g3092"
         fill="#000"
         transform="matrix(0.83471676,0,0,0.89892069,-56.282836,-209.52332)">
        <path
           id="path3094"
           fill-rule="nonzero"
           fill="#000"
           d="m51.751,50.605,0,17.543,1.3734,0,0-0.71095c0.42952,0.47005,1.0598,0.79163,1.7575,0.79163,0.8314,0,1.4355-0.37574,1.8245-0.88556,0.37536-0.48293,0.48255-0.92533,0.48255-2.6025,0-1.6628-0.10719-2.106-0.48255-2.5885-0.389-0.50944-0.99313-0.88556-1.8245-0.88556-0.69769,0-1.2477,0.32195-1.7575,0.80488l-0.0049-5.3899c0.45604,0.53634,1.0731,0.80488,1.7973,0.80488,1.0598,0,2.2669-0.81814,2.2669-2.3605v-4.521h-1.3681v4.0509c0,0.92647-0.57687,1.4628-1.3416,1.4628-0.77799,0-1.3545-0.53634-1.3545-1.4628v-4.0509h-1.3685zm2.715,12.03c1.2878,0,1.3549,1.0602,1.3549,2.106,0,1.0602-0.06704,2.1196-1.3549,2.1196-1.2742,0-1.3416-1.1268-1.3416-2.1196,0-0.9795,0.06742-2.106,1.3416-2.106" />
      </g>
      <text
         id="text3629"
         style="letter-spacing:0px;word-spacing:0px;"
         font-weight="normal"
         xml:space="preserve"
         transform="scale(1,-1)"
         font-stretch="normal"
         line-height="125%"
         font-size="10.32350922px"
         font-variant="normal"
         y="2.3509784"
         x="-65.481461"
         font-family="Cambria"
         font-style="normal"
         fill="#000000"><tspan
           id="tspan3631"
           font-weight="bold"
           font-size="11.50969505px"
           font-style="normal"
           font-stretch="normal"
           font-variant="normal"
           y="2.3509784"
           x="-65.481461"
           font-family="Arial">Menu/Select</tspan></text>
      <path
         id="path3111"
         d="m-51.189-114.3-16.937-3.1517c-1.283-0.25366-2.1162-0.79038-2.8355-1.4104-0.65068-0.59676-1.2303-1.2903-1.6383-2.3699l-6.0902-15.213c-0.38967-0.90188-0.47055-1.6616-0.4779-2.3576,0.02451-1.098,0.20586-2.153,1.0293-3.4078l9.5996-13.989-10.761-10.76-13.705,9.406c-1.1996,0.79405-2.2731,0.98521-3.3147,1.0024-0.8786-0.01-1.7805-0.15562-2.789-0.69602h-0.0012l-3.5585-1.9006-11.94,28.854c0.28674,0.20832,0.55142,0.42031,0.81856,0.64823,7.4099,4.8709,12.32,13.292,12.32,22.836-0.002,15.103-12.239,27.338-27.338,27.341-15.099-0.0025-27.335-12.238-27.341-27.341,0.002-9.5445,4.9113-17.965,12.322-22.836,0.26469-0.22547,0.52814-0.43746,0.81856-0.647l-11.939-28.855-3.5573,1.9006c-1.0232,0.54775-1.9398,0.68622-2.7939,0.69602-1.0551-0.0171-2.1199-0.21076-3.3183-1.0073l-13.696-9.4011-10.764,10.76,9.6009,13.994c0.8161,1.2523,1.0011,2.3013,1.0269,3.4029-0.01,0.71317-0.10048,1.4754-0.47545,2.3527l-6.1012,15.246c-0.41173,1.0747-0.99134,1.756-1.6347,2.3466-0.72175,0.61759-1.5477,1.1519-2.8441,1.408l-16.924,3.1492-0.001,15.218,17.431,3.2436c1.2634,0.25366,2.0734,0.76464,2.7902,1.3626,0.63719,0.56735,1.218,1.2217,1.6494,2.2621l0.002-0.0012,6.1379,14.325c0.41418,0.90556,0.53059,1.7106,0.53795,2.4949-0.0221,1.0722-0.19974,2.1211-1.0036,3.3612l-10.19,14.848,10.761,10.761,15.131-10.385c1.2634-0.82346,2.3013-0.99624,3.3992-1.0207,0.71929,0.0061,1.4778,0.09681,2.3613,0.47545l13.913,5.6956c1.0771,0.42398,1.756,1.0122,2.3368,1.6567,0.60534,0.71807,1.12,1.5293,1.3798,2.789l3.3747,18.141h15.217l3.3722-18.122c0.26468-1.2842,0.78057-2.0917,1.3847-2.8074,0.58574-0.64945,1.2646-1.2389,2.3515-1.6628l13.915-5.6968c0.87247-0.37129,1.6163-0.46197,2.3393-0.47177,1.0869,0.02818,2.1371,0.19851,3.3992,1.022l15.136,10.389,10.76-10.763-10.177-14.831c-0.81856-1.2217-0.99746-2.2988-1.022-3.3784,0.0074-0.76586,0.12009-1.5477,0.50608-2.414l6.1735-14.406h0.0012c0.43378-1.0404,1.0134-1.6935,1.653-2.2608,0.7144-0.59554,1.517-1.1053,2.7841-1.3626l17.435-3.2424-0.0012-15.219zm3.5218,19.541-20.144,3.746c-0.49138,0.0919-1.0269,0.55265-1.1923,1.0256l-6.1747,14.406c-0.23037,0.44481-0.18626,1.1433,0.09803,1.5575l11.737,17.106c0.28061,0.41173,0.22547,1.0379-0.12866,1.392l-14.659,14.659c-0.35414,0.35414-0.97908,0.41173-1.3908,0.12866l-17.407-11.945c-0.41173-0.28306-1.1175-0.3333-1.5648-0.11274l-13.966,5.7164c-0.47422,0.15685-0.93619,0.68744-1.0293,1.1788l-3.8771,20.835c-0.0907,0.49138-0.5747,0.8933-1.0747,0.8933h-20.733c-0.49873,0-0.98275-0.40192-1.0747-0.8933l-3.8759-20.835c-0.0931-0.49138-0.55388-1.022-1.0306-1.1788l-13.966-5.7164c-0.44726-0.22057-1.1531-0.17033-1.5636,0.11274l-17.407,11.945c-0.41173,0.28306-1.0391,0.22547-1.3908-0.12866l-14.66-14.659c-0.35168-0.35414-0.41173-0.98031-0.12866-1.392l11.738-17.106c0.28184-0.41418,0.32718-1.1126,0.098-1.5575l-6.1759-14.406c-0.1642-0.473-0.69969-0.93374-1.1935-1.0256l-20.143-3.746c-0.49137-0.09313-0.8933-0.57593-0.8933-1.0759l0.001-20.732c0-0.49995,0.40192-0.98643,0.8933-1.0759l19.65-3.6566c0.49015-0.0907,1.0171-0.55755,1.1666-1.033l6.1343-15.323c0.21934-0.44971,0.16788-1.1531-0.11764-1.5648l-11.161-16.266c-0.28184-0.41173-0.22425-1.0379,0.12866-1.3933l14.663-14.658c0.35169-0.35291,0.97908-0.40928,1.3908-0.12989l15.978,10.966c0.4105,0.28306,1.1004,0.30389,1.5317,0.0527l7.046-3.7619c0.44481-0.22793,0.96682-0.0355,1.1568,0.42643l14.528,35.105c0.19361,0.46196,0,1.0514-0.42521,1.3124l-1.7633,1.0796c-0.32595,0.19851-0.76831,0.54162-1.1151,0.85409-6.361,4.0744-10.582,11.2-10.582,19.314,0,12.663,10.267,22.928,22.929,22.928s22.927-10.265,22.927-22.928c0-8.1145-4.219-15.24-10.581-19.314-0.34433-0.31247-0.78669-0.65558-1.1126-0.85409l-1.7633-1.0796c-0.42398-0.26101-0.61759-0.85042-0.42643-1.3124l14.528-35.105c0.19115-0.46197,0.71072-0.65436,1.158-0.42643l7.046,3.7619c0.43011,0.2512,1.12,0.23037,1.5317-0.0527l15.978-10.966c0.41173-0.27939,1.0391-0.22302,1.3908,0.12989l14.662,14.658c0.35414,0.35536,0.4105,0.98153,0.12866,1.3933l-11.162,16.266c-0.28306,0.41173-0.33576,1.1151-0.11519,1.5648l6.1343,15.323c0.15072,0.47544,0.67274,0.94232,1.1653,1.033l19.649,3.6566c0.49015,0.0894,0.8933,0.57593,0.8933,1.0759l0.0025,20.732c0,0.49996-0.40315,0.98276-0.8933,1.0759"
         fill-rule="nonzero"
         fill="#000" />
    </g>
  </g>
  <g
     transform="matrix(0.87043888,0,0,0.87043888,177.38321,470.16965)"
     style="font-size:40px;font-style:normal;font-variant:normal;font-weight:normal;font-stretch:normal;line-height:125%;letter-spacing:0px;word-spacing:0px;fill:#008080;fill-opacity:1;stroke:none;font-family:Cambria;-inkscape-font-specification:Cambria"
     id="flowRoot2994">
    <path
       d="m 83.011719,137.35417 c -3.828135,0 -6.702481,-1.11979 -8.623047,-3.35938 -1.920576,-2.23958 -2.880862,-5.59244 -2.88086,-10.05859 -2e-6,-2.92967 0.465493,-5.43293 1.396485,-7.50977 0.930985,-2.0768 2.301426,-3.65557 4.111328,-4.73633 1.809886,-1.0807 3.964832,-1.62106 6.464844,-1.62109 3.893211,3e-5 6.816385,1.11656 8.769531,3.34961 1.9531,2.23309 2.929662,5.55015 2.929687,9.95117 -2.5e-5,2.46095 -0.289738,4.57358 -0.86914,6.33789 -0.579452,1.76433 -1.403018,3.2129 -2.470703,4.34571 -1.06773,1.13281 -2.347026,1.96614 -3.837891,2.5 -1.490902,0.53385 -3.154312,0.80078 -4.990234,0.80078 z M 77.71875,123.40885 c -8e-6,3.93231 0.471996,6.85873 1.416016,8.7793 0.943999,1.92058 2.386055,2.88086 4.326171,2.88086 1.00259,0 1.855453,-0.27018 2.558594,-0.81055 0.703108,-0.54036 1.272769,-1.29557 1.708985,-2.26562 0.436179,-0.97005 0.748679,-2.11913 0.9375,-3.44727 0.188782,-1.32811 0.283183,-2.78644 0.283203,-4.375 -2e-5,-2.59113 -0.205098,-4.76235 -0.615235,-6.51367 -0.410174,-1.75128 -1.028663,-3.07289 -1.855468,-3.96484 -0.82684,-0.89191 -1.884781,-1.33787 -3.173829,-1.33789 -1.888032,2e-5 -3.291026,0.90171 -4.208984,2.70507 -0.917977,1.80341 -1.376961,4.58661 -1.376953,8.34961 z"
       style="font-weight:bold;fill:#008080;-inkscape-font-specification:Cambria Bold"
       id="path3029" />
    <path
       d="m 106.23438,140.53776 c -1e-5,0.97656 0.0521,1.66666 0.15625,2.07031 0.10415,0.40364 0.2897,0.72265 0.55664,0.95703 0.26691,0.23437 0.73892,0.42968 1.41601,0.58594 l 0,1.28906 -9.726561,0 0,-1.28906 c 0.611977,-0.1823 1.038409,-0.38412 1.279297,-0.60547 0.240884,-0.22136 0.413404,-0.5306 0.517574,-0.92773 0.10417,-0.39714 0.15625,-1.0905 0.15625,-2.08008 l 0,-17.08984 c 0,-0.92447 -0.01,-1.58202 -0.0293,-1.97266 -0.0195,-0.39061 -0.0651,-0.72264 -0.13672,-0.99609 -0.0716,-0.27342 -0.17253,-0.49803 -0.30274,-0.67383 -0.130207,-0.17577 -0.322264,-0.32876 -0.576168,-0.45899 -0.253908,-0.13019 -0.628257,-0.24737 -1.123047,-0.35156 l 0,-1.32812 5.410155,-0.15625 2.40235,0 -0.29297,2.83203 0.23437,0.0586 c 1.11978,-1.08071 2.1647,-1.8587 3.13477,-2.33398 0.97004,-0.47524 1.96938,-0.71287 2.99804,-0.71289 2.31769,2e-5 4.05597,0.81707 5.21485,2.45117 1.15883,1.63413 1.73826,4.07879 1.73828,7.33398 -2e-5,2.25261 -0.34182,4.13738 -1.02539,5.6543 -0.68362,1.51693 -1.7025,2.65625 -3.05664,3.41797 -1.35419,0.76172 -3.02085,1.14258 -5,1.14258 -1.34116,0 -2.65626,-0.16927 -3.94531,-0.50782 z m 0,-9.90234 c -1e-5,1.60156 0.27668,2.7832 0.83007,3.54492 0.55338,0.76172 1.4095,1.14258 2.56836,1.14258 1.19791,0 2.11262,-0.62826 2.74414,-1.88477 0.6315,-1.2565 0.94725,-3.05012 0.94727,-5.38086 -2e-5,-2.59113 -0.28322,-4.5117 -0.84961,-5.76172 -0.56642,-1.24998 -1.44858,-1.87498 -2.64648,-1.875 -0.58595,2e-5 -1.15562,0.14976 -1.70899,0.44922 -0.5534,0.2995 -1.00587,0.72593 -1.35742,1.2793 -0.35157,0.5534 -0.52735,1.17514 -0.52734,1.86523 z"
       style="font-weight:bold;fill:#008080;-inkscape-font-specification:Cambria Bold"
       id="path3031" />
    <path
       d="m 140.51172,133.48698 c -1.32814,1.40625 -2.64325,2.40234 -3.94531,2.98828 -1.3021,0.58594 -2.7995,0.87891 -4.49219,0.87891 -3.03386,0 -5.31576,-0.83008 -6.8457,-2.49024 -1.52995,-1.66015 -2.29493,-4.12434 -2.29493,-7.39258 0,-2.10936 0.39388,-3.92902 1.18164,-5.45898 0.78776,-1.52993 1.9043,-2.68878 3.34961,-3.47656 1.44531,-0.78774 3.12499,-1.18162 5.03907,-1.18164 1.18488,2e-5 2.22329,0.13673 3.11523,0.41015 0.89191,0.27346 1.65689,0.65432 2.29492,1.14258 0.63801,0.4883 1.16535,1.07749 1.58203,1.76758 0.49478,0.82033 0.86587,1.75783 1.11328,2.8125 0.2604,1.08074 0.39712,2.38933 0.41016,3.92578 l -12.38281,0 c 0.013,2.35678 0.43293,4.0918 1.25976,5.20508 0.82682,1.11328 2.08658,1.66992 3.7793,1.66992 0.98957,0 1.8815,-0.18554 2.67578,-0.55664 0.79426,-0.37109 1.65363,-1.02539 2.57813,-1.96289 z m -5.27344,-8.18359 c -0.0521,-1.99218 -0.31251,-3.47655 -0.78125,-4.45313 -0.46876,-0.97654 -1.22397,-1.46483 -2.26562,-1.46484 -1.00262,1e-5 -1.80014,0.50783 -2.39258,1.52343 -0.59246,1.01564 -0.94728,2.48049 -1.06446,4.39454 z"
       style="font-weight:bold;fill:#008080;-inkscape-font-specification:Cambria Bold"
       id="path3033" />
    <path
       d="m 165.31641,137.04167 -9.47266,0 0,-1.28907 c 0.59894,-0.14322 1.01561,-0.35481 1.25,-0.63476 0.23436,-0.27995 0.39387,-0.65755 0.47852,-1.13281 0.0846,-0.47526 0.12693,-1.33138 0.12695,-2.56836 l 0,-5.21485 c -2e-5,-0.92446 -0.0196,-1.68293 -0.0586,-2.27539 -0.0391,-0.59243 -0.10092,-1.07746 -0.18554,-1.45508 -0.0847,-0.37759 -0.20184,-0.69334 -0.35156,-0.94726 -0.14976,-0.25389 -0.31577,-0.46223 -0.49805,-0.625 -0.18231,-0.16275 -0.39064,-0.28319 -0.625,-0.36133 -0.23439,-0.0781 -0.53387,-0.11717 -0.89844,-0.11719 -0.4948,2e-5 -1.00913,0.15301 -1.54297,0.45899 -0.53386,0.306 -0.98308,0.72918 -1.34765,1.26953 -0.3646,0.54038 -0.54689,1.11655 -0.54688,1.72851 l 0,7.51954 c -1e-5,1.23698 0.0391,2.09635 0.11719,2.57812 0.0781,0.48177 0.23762,0.86263 0.47851,1.14258 0.24088,0.27995 0.66731,0.49154 1.2793,0.63476 l 0,1.28907 -9.43359,0 0,-1.28907 c 0.625,-0.16927 1.05794,-0.39062 1.29883,-0.66406 0.24088,-0.27343 0.40364,-0.64453 0.48828,-1.11328 0.0846,-0.46875 0.12695,-1.32161 0.12695,-2.55859 l 0,-8.02735 c 0,-0.96352 -0.0163,-1.67641 -0.0488,-2.13867 -0.0325,-0.46222 -0.11068,-0.83332 -0.23437,-1.11328 -0.1237,-0.27993 -0.31251,-0.5078 -0.56641,-0.68359 -0.25391,-0.17577 -0.69336,-0.32876 -1.31836,-0.45899 l 0,-1.32812 5.35156,-0.15625 2.46094,0 -0.29297,2.8125 0.23438,0.0586 c 0.80728,-0.71613 1.51691,-1.27928 2.1289,-1.68945 0.61197,-0.41014 1.25325,-0.73566 1.92383,-0.97657 0.67056,-0.24086 1.37694,-0.3613 2.11914,-0.36132 1.06769,2e-5 1.95311,0.15301 2.65625,0.45898 0.70311,0.30601 1.27277,0.75197 1.70899,1.33789 0.43617,0.58596 0.74867,1.3021 0.9375,2.14844 0.18878,0.84637 0.28318,1.82944 0.2832,2.94922 l 0,7.14844 c -2e-5,0.57292 0.01,1.11003 0.0293,1.61132 0.0195,0.50131 0.0683,0.9017 0.14648,1.20118 0.0781,0.29948 0.18553,0.54362 0.32227,0.73242 0.13669,0.1888 0.32875,0.34831 0.57617,0.47851 0.24737,0.13021 0.54685,0.24089 0.89844,0.33203 z"
       style="font-weight:bold;fill:#008080;-inkscape-font-specification:Cambria Bold"
       id="path3035" />
  </g>
  <g
     style="fill:#008080"
     transform="matrix(1.6665774,0,0,-1.6665774,403.00034,507.80801)"
     id="g3024">
    <path
       id="path3026"
       style="fill:#008080;fill-opacity:1;fill-rule:nonzero;stroke:none"
       d="m -101.36214,-38.365354 -3.87033,0.719728 c -0.0944,0.01765 -0.19729,0.106181 -0.22908,0.19706 l -1.18636,2.767787 c -0.0442,0.08546 -0.036,0.219662 0.0188,0.299239 l 2.25501,3.286689 c 0.0539,0.07911 0.0433,0.199415 -0.0247,0.267456 l -2.81652,2.816522 c -0.068,0.06804 -0.18811,0.07911 -0.26722,0.02472 l -3.34437,-2.295031 c -0.0791,-0.05439 -0.21472,-0.06404 -0.30089,-0.02166 l -2.68303,1.098309 c -0.0911,0.03013 -0.17987,0.132079 -0.19777,0.226489 l -0.74491,4.003121 c -0.0174,0.09441 -0.11042,0.171633 -0.20648,0.171633 l -3.98358,0 c -0.0958,0 -0.18906,-0.07722 -0.20648,-0.171633 l -0.74468,-4.003121 c -0.0179,-0.09441 -0.10642,-0.196354 -0.198,-0.226489 l -2.68327,-1.098309 c -0.0859,-0.04238 -0.22178,-0.03272 -0.30042,0.02166 l -3.34437,2.295031 c -0.0791,0.05439 -0.19965,0.04332 -0.26722,-0.02472 l -2.81675,-2.816522 c -0.0676,-0.06804 -0.0791,-0.188349 -0.0247,-0.267456 l 2.25524,-3.286689 c 0.0541,-0.07958 0.0629,-0.213776 0.0188,-0.299239 l -1.18684,-2.767787 c -0.0313,-0.09088 -0.1342,-0.179403 -0.22908,-0.19706 l -3.8701,-0.719728 c -0.0944,-0.01789 -0.17163,-0.110656 -0.17163,-0.206714 l 2.4e-4,-3.983344 c 0,-0.09606 0.0772,-0.189526 0.17163,-0.206713 l 3.77521,-0.702541 c 0.0944,-0.01719 0.19565,-0.106888 0.22438,-0.198473 l 1.17836,-2.944129 c 0.0424,-0.0864 0.0325,-0.221545 -0.0224,-0.300652 l -2.14435,-3.125179 c -0.0541,-0.07911 -0.0431,-0.199415 0.0247,-0.267456 l 2.81723,-2.816522 c 0.0676,-0.06757 0.18812,-0.07864 0.26722,-0.02496 l 3.06985,2.107154 c 0.0789,0.05415 0.21143,0.05839 0.2943,0.0099 l 1.35376,-0.722789 c 0.0855,-0.04356 0.18575,-0.0068 0.22225,0.08193 l 2.79133,6.744774 c 0.0372,0.08876 0,0.20224 -0.0817,0.252388 l -0.33879,0.207184 c -0.0626,0.03837 -0.14762,0.104063 -0.21425,0.164334 -1.22215,0.78259 -2.03323,2.151651 -2.03323,3.710709 0,2.432998 1.97273,4.405246 4.40549,4.405246 2.43276,0 4.40501,-1.972248 4.40501,-4.405246 0,-1.559058 -0.81061,-2.928119 -2.03299,-3.710709 -0.0662,-0.06027 -0.15115,-0.125958 -0.21378,-0.164334 l -0.33879,-0.207184 c -0.0815,-0.05015 -0.11866,-0.163628 -0.0819,-0.252388 l 2.79133,-6.744774 c 0.0367,-0.08876 0.13655,-0.125488 0.22248,-0.08193 l 1.35376,0.722789 c 0.0826,0.0485 0.21519,0.04426 0.29429,-0.0099 l 3.06986,-2.107154 c 0.0791,-0.05368 0.19965,-0.04261 0.26722,0.02496 l 2.81699,2.816522 c 0.068,0.06804 0.0789,0.188349 0.0247,0.267456 l -2.14458,3.125179 c -0.0544,0.07911 -0.0645,0.214247 -0.0221,0.300652 l 1.17859,2.944129 c 0.029,0.09158 0.12926,0.181286 0.2239,0.198473 l 3.77522,0.702541 c 0.0942,0.01719 0.17163,0.110655 0.17163,0.206713 l 4.7e-4,3.983344 c 0,0.09606 -0.0774,0.18882 -0.17163,0.206714"
       inkscape:connector-curvature="0" />
  </g>
  <path
     sodipodi:type="arc"
     style="fill:none;stroke:#000000;stroke-width:0.74842995;stroke-miterlimit:4;stroke-opacity:1;stroke-dasharray:none"
     id="path5497"
     sodipodi:cx="55.555557"
     sodipodi:cy="1343.7749"
     sodipodi:rx="5.2287583"
     sodipodi:ry="5.2287583"
     d="m 60.784316,1343.7749 a 5.2287583,5.2287583 0 1 1 -10.457517,0 5.2287583,5.2287583 0 1 1 10.457517,0 z"
     transform="matrix(0.94686867,0,0,0.94685937,30.584099,-1113.9664)" />
  <path
     sodipodi:type="arc"
     style="fill:none;stroke:#000000;stroke-width:0.74842268;stroke-miterlimit:4;stroke-opacity:1;stroke-dasharray:none"
     id="path5497-1"
     sodipodi:cx="55.555557"
     sodipodi:cy="1343.7749"
     sodipodi:rx="5.2287583"
     sodipodi:ry="5.2287583"
     d="m 60.784316,1343.7749 a 5.2287583,5.2287583 0 1 1 -10.457517,0 5.2287583,5.2287583 0 1 1 10.457517,0 z"
     transform="matrix(0.94687789,0,0,0.94686859,30.583639,-1223.8217)" />
  <path
     sodipodi:type="arc"
     style="fill:none;stroke:#000000;stroke-width:0.74842268;stroke-miterlimit:4;stroke-opacity:1;stroke-dasharray:none"
     id="path5497-7"
     sodipodi:cx="55.555557"
     sodipodi:cy="1343.7749"
     sodipodi:rx="5.2287583"
     sodipodi:ry="5.2287583"
     d="m 60.784316,1343.7749 a 5.2287583,5.2287583 0 1 1 -10.457517,0 5.2287583,5.2287583 0 1 1 10.457517,0 z"
     transform="matrix(0.94687789,0,0,0.94686859,296.33158,-1113.9788)" />
  <path
     sodipodi:type="arc"
     style="fill:none;stroke:#000000;stroke-width:0.74842268;stroke-miterlimit:4;stroke-opacity:1;stroke-dasharray:none"
     id="path5497-4"
     sodipodi:cx="55.555557"
     sodipodi:cy="1343.7749"
     sodipodi:rx="5.2287583"
     sodipodi:ry="5.2287583"
     d="m 60.784316,1343.7749 a 5.2287583,5.2287583 0 1 1 -10.457517,0 5.2287583,5.2287583 0 1 1 10.457517,0 z"
     transform="matrix(0.94687789,0,0,0.94686859,296.86731,-1223.8217)" />
  <path
     sodipodi:nodetypes="cccccc"
     inkscape:connector-curvature="0"
     id="path5879"
     d="m 103.19253,74.7323 226.14438,0 m 0,0 0,56.06564 -226.14438,0 0,-56.06564"
     style="fill:none;stroke:#000000;stroke-width:0.62727225;stroke-miterlimit:4;stroke-opacity:1;stroke-dasharray:none" />
  <path
     transform="matrix(5.402953,0,0,5.4028999,-83.631413,-7029.6744)"
     d="m 60.784316,1343.7749 a 5.2287583,5.2287583 0 1 1 -10.457517,0 5.2287583,5.2287583 0 1 1 10.457517,0 z"
     sodipodi:ry="5.2287583"
     sodipodi:rx="5.2287583"
     sodipodi:cy="1343.7749"
     sodipodi:cx="55.555557"
     id="path6783"
     style="fill:none;stroke:#000000;stroke-width:0.13116251;stroke-miterlimit:4;stroke-opacity:1;stroke-dasharray:none"
     sodipodi:type="arc" />
  <rect
     style="fill:none;stroke:#000000;stroke-width:0.76839018;stroke-linejoin:round;stroke-miterlimit:4;stroke-opacity:1;stroke-dasharray:none"
     id="rect6751"
     width="422.27576"
     height="660.14087"
     x="1.6520306"
     y="1.2221206" />
  <path
     sodipodi:type="arc"
     style="fill:none;stroke:#000000;stroke-width:0.74842268;stroke-miterlimit:4;stroke-opacity:1;stroke-dasharray:none"
     id="path5497-4-1"
     sodipodi:cx="55.555557"
     sodipodi:cy="1343.7749"
     sodipodi:rx="5.2287583"
     sodipodi:ry="5.2287583"
     d="m 60.784316,1343.7749 a 5.2287583,5.2287583 0 1 1 -10.457517,0 5.2287583,5.2287583 0 1 1 10.457517,0 z"
     transform="matrix(0.94687789,0,0,0.94686859,357.00614,-1255.505)" />
  <path
     sodipodi:type="arc"
     style="fill:none;stroke:#000000;stroke-width:0.74842268;stroke-miterlimit:4;stroke-opacity:1;stroke-dasharray:none"
     id="path5497-4-7"
     sodipodi:cx="55.555557"
     sodipodi:cy="1343.7749"
     sodipodi:rx="5.2287583"
     sodipodi:ry="5.2287583"
     d="m 60.784316,1343.7749 a 5.2287583,5.2287583 0 1 1 -10.457517,0 5.2287583,5.2287583 0 1 1 10.457517,0 z"
     transform="matrix(0.94687789,0,0,0.94686859,-35.152253,-1257.5582)" />
  <path
     sodipodi:type="arc"
     style="fill:none;stroke:#000000;stroke-width:0.74842268;stroke-miterlimit:4;stroke-opacity:1;stroke-dasharray:none"
     id="path5497-4-4"
     sodipodi:cx="55.555557"
     sodipodi:cy="1343.7749"
     sodipodi:rx="5.2287583"
     sodipodi:ry="5.2287583"
     d="m 60.784316,1343.7749 a 5.2287583,5.2287583 0 1 1 -10.457517,0 5.2287583,5.2287583 0 1 1 10.457517,0 z"
     transform="matrix(0.94687789,0,0,0.94686859,-39.258628,-947.52722)" />
  <path
     sodipodi:type="arc"
     style="fill:none;stroke:#000000;stroke-width:0.74842268;stroke-miterlimit:4;stroke-opacity:1;stroke-dasharray:none"
     id="path5497-4-0"
     sodipodi:cx="55.555557"
     sodipodi:cy="1343.7749"
     sodipodi:rx="5.2287583"
     sodipodi:ry="5.2287583"
     d="m 60.784316,1343.7749 a 5.2287583,5.2287583 0 1 1 -10.457517,0 5.2287583,5.2287583 0 1 1 10.457517,0 z"
     transform="matrix(0.94687789,0,0,0.94686859,355.76755,-942.39916)" />
  <path
     sodipodi:type="arc"
     style="fill:none;stroke:#000000;stroke-width:0.74842268;stroke-miterlimit:4;stroke-opacity:1;stroke-dasharray:none"
     id="path5497-4-9"
     sodipodi:cx="55.555557"
     sodipodi:cy="1343.7749"
     sodipodi:rx="5.2287583"
     sodipodi:ry="5.2287583"
     d="m 60.784316,1343.7749 a 5.2287583,5.2287583 0 1 1 -10.457517,0 5.2287583,5.2287583 0 1 1 10.457517,0 z"
     transform="matrix(0.94687789,0,0,0.94686859,355.76755,-626.86874)" />
  <path
     sodipodi:type="arc"
     style="fill:none;stroke:#000000;stroke-width:0.74842268;stroke-miterlimit:4;stroke-opacity:1;stroke-dasharray:none"
     id="path5497-4-48"
     sodipodi:cx="55.555557"
     sodipodi:cy="1343.7749"
     sodipodi:rx="5.2287583"
     sodipodi:ry="5.2287583"
     d="m 60.784316,1343.7749 a 5.2287583,5.2287583 0 1 1 -10.457517,0 5.2287583,5.2287583 0 1 1 10.457517,0 z"
     transform="matrix(0.94687789,0,0,0.94686859,-37.20544,-626.20375)" />
</svg>
