<?xml version="1.0" encoding="UTF-8" standalone="no"?>
<!-- Created with Inkscape (http://www.inkscape.org/) -->

<svg
   xmlns:dc="http://purl.org/dc/elements/1.1/"
   xmlns:cc="http://creativecommons.org/ns#"
   xmlns:rdf="http://www.w3.org/1999/02/22-rdf-syntax-ns#"
   xmlns:svg="http://www.w3.org/2000/svg"
   xmlns="http://www.w3.org/2000/svg"
   xmlns:sodipodi="http://sodipodi.sourceforge.net/DTD/sodipodi-0.dtd"
   xmlns:inkscape="http://www.inkscape.org/namespaces/inkscape"
   width="744.09448819"
   height="1052.3622047"
   id="svg5943"
   version="1.1"
   inkscape:version="0.48.4 r9939"
   sodipodi:docname="Enclosure_Mounting_Plate.svg">
  <defs
     id="defs5945" />
  <sodipodi:namedview
     id="base"
     pagecolor="#ffffff"
     bordercolor="#666666"
     borderopacity="1.0"
     inkscape:pageopacity="0.0"
     inkscape:pageshadow="2"
     inkscape:zoom="1"
     inkscape:cx="585.73579"
     inkscape:cy="693.30569"
     inkscape:document-units="px"
     inkscape:current-layer="layer1"
     showgrid="false"
     inkscape:window-width="1366"
     inkscape:window-height="706"
     inkscape:window-x="-8"
     inkscape:window-y="-8"
     inkscape:window-maximized="1" />
  <metadata
     id="metadata5948">
    <rdf:RDF>
      <cc:Work
         rdf:about="">
        <dc:format>image/svg+xml</dc:format>
        <dc:type
           rdf:resource="http://purl.org/dc/dcmitype/StillImage" />
        <dc:title></dc:title>
      </cc:Work>
    </rdf:RDF>
  </metadata>
  <g
     inkscape:label="Layer 1"
     inkscape:groupmode="layer"
     id="layer1">
    <path
       sodipodi:type="arc"
       style="fill:none;stroke:#0000ff;stroke-width:0.87156668;stroke-miterlimit:4;stroke-opacity:1;stroke-dasharray:none"
       id="path5497-7-8"
       sodipodi:cx="55.555557"
       sodipodi:cy="1343.7749"
       sodipodi:rx="5.2287583"
       sodipodi:ry="5.2287583"
       d="m 60.784316,1343.7749 a 5.2287583,5.2287583 0 1 1 -10.457517,0 5.2287583,5.2287583 0 1 1 10.457517,0 z"
       transform="matrix(1.5936548,0,0,1.5936547,136.11528,-1326.9023)" />
    <path
       transform="matrix(1.5936548,0,0,1.5936547,433.75305,-1326.9023)"
       d="m 60.784316,1343.7749 a 5.2287583,5.2287583 0 1 1 -10.457517,0 5.2287583,5.2287583 0 1 1 10.457517,0 z"
       sodipodi:ry="5.2287583"
       sodipodi:rx="5.2287583"
       sodipodi:cy="1343.7749"
       sodipodi:cx="55.555557"
       id="path6490"
       style="fill:none;stroke:#0000ff;stroke-width:0.87156668;stroke-miterlimit:4;stroke-opacity:1;stroke-dasharray:none"
       sodipodi:type="arc" />
    <path
       sodipodi:type="arc"
       style="fill:none;stroke:#0000ff;stroke-width:0.87156668;stroke-miterlimit:4;stroke-opacity:1;stroke-dasharray:none"
       id="path6492"
       sodipodi:cx="55.555557"
       sodipodi:cy="1343.7749"
       sodipodi:rx="5.2287583"
       sodipodi:ry="5.2287583"
       d="m 60.784316,1343.7749 a 5.2287583,5.2287583 0 1 1 -10.457517,0 5.2287583,5.2287583 0 1 1 10.457517,0 z"
       transform="matrix(1.5936548,0,0,1.5936547,433.75305,-1872.5714)" />
    <path
       transform="matrix(3.1873096,0,0,3.1873094,17.46077,-3739.4784)"
       d="m 60.784316,1343.7749 a 5.2287583,5.2287583 0 1 1 -10.457517,0 5.2287583,5.2287583 0 1 1 10.457517,0 z"
       sodipodi:ry="5.2287583"
       sodipodi:rx="5.2287583"
       sodipodi:cy="1343.7749"
       sodipodi:cx="55.555557"
       id="path6494"
       style="fill:none;stroke:#0000ff;stroke-width:0.43578334;stroke-miterlimit:4;stroke-opacity:1;stroke-dasharray:none"
       sodipodi:type="arc" />
    <path
       transform="matrix(1.1155584,0,0,1.1155584,186.59351,-850.09787)"
       d="m 60.784316,1343.7749 a 5.2287583,5.2287583 0 1 1 -10.457517,0 5.2287583,5.2287583 0 1 1 10.457517,0 z"
       sodipodi:ry="5.2287583"
       sodipodi:rx="5.2287583"
       sodipodi:cy="1343.7749"
       sodipodi:cx="55.555557"
       id="path6526"
       style="fill:none;stroke:#0000ff;stroke-width:1.24509517;stroke-miterlimit:4;stroke-opacity:1;stroke-dasharray:none"
       sodipodi:type="arc" />
    <path
       sodipodi:type="arc"
       style="fill:none;stroke:#0000ff;stroke-width:1.24509517;stroke-miterlimit:4;stroke-opacity:1;stroke-dasharray:none"
       id="path6528"
       sodipodi:cx="55.555557"
       sodipodi:cy="1343.7749"
       sodipodi:rx="5.2287583"
       sodipodi:ry="5.2287583"
       d="m 60.784316,1343.7749 a 5.2287583,5.2287583 0 1 1 -10.457517,0 5.2287583,5.2287583 0 1 1 10.457517,0 z"
       transform="matrix(1.1155584,0,0,1.1155584,255.68799,-850.09788)" />
    <path
       transform="matrix(1.1155584,0,0,1.1155584,308.83759,-779.23173)"
       d="m 60.784316,1343.7749 a 5.2287583,5.2287583 0 1 1 -10.457517,0 5.2287583,5.2287583 0 1 1 10.457517,0 z"
       sodipodi:ry="5.2287583"
       sodipodi:rx="5.2287583"
       sodipodi:cy="1343.7749"
       sodipodi:cx="55.555557"
       id="path6530"
       style="fill:none;stroke:#0000ff;stroke-width:1.24509517;stroke-miterlimit:4;stroke-opacity:1;stroke-dasharray:none"
       sodipodi:type="arc" />
    <path
       sodipodi:type="arc"
       style="fill:none;stroke:#0000ff;stroke-width:1.24509517;stroke-miterlimit:4;stroke-opacity:1;stroke-dasharray:none"
       id="path6532"
       sodipodi:cx="55.555557"
       sodipodi:cy="1343.7749"
       sodipodi:rx="5.2287583"
       sodipodi:ry="5.2287583"
       d="m 60.784316,1343.7749 a 5.2287583,5.2287583 0 1 1 -10.457517,0 5.2287583,5.2287583 0 1 1 10.457517,0 z"
       transform="matrix(1.1155584,0,0,1.1155584,468.28641,-779.23173)" />
    <path
       sodipodi:type="arc"
       style="fill:none;stroke:#0000ff;stroke-width:1.24509517;stroke-miterlimit:4;stroke-opacity:1;stroke-dasharray:none"
       id="path6534"
       sodipodi:cx="55.555557"
       sodipodi:cy="1343.7749"
       sodipodi:rx="5.2287583"
       sodipodi:ry="5.2287583"
       d="m 60.784316,1343.7749 a 5.2287583,5.2287583 0 1 1 -10.457517,0 5.2287583,5.2287583 0 1 1 10.457517,0 z"
       transform="matrix(1.1155584,0,0,1.1155584,308.83759,-903.24748)" />
    <path
       transform="matrix(1.1155584,0,0,1.1155584,468.28641,-903.24748)"
       d="m 60.784316,1343.7749 a 5.2287583,5.2287583 0 1 1 -10.457517,0 5.2287583,5.2287583 0 1 1 10.457517,0 z"
       sodipodi:ry="5.2287583"
       sodipodi:rx="5.2287583"
       sodipodi:cy="1343.7749"
       sodipodi:cx="55.555557"
       id="path6536"
       style="fill:none;stroke:#0000ff;stroke-width:1.24509517;stroke-miterlimit:4;stroke-opacity:1;stroke-dasharray:none"
       sodipodi:type="arc" />
    <path
       sodipodi:type="arc"
       style="fill:none;stroke:#0000ff;stroke-width:1.24509517;stroke-miterlimit:4;stroke-opacity:1;stroke-dasharray:none"
       id="path6538"
       sodipodi:cx="55.555557"
       sodipodi:cy="1343.7749"
       sodipodi:rx="5.2287583"
       sodipodi:ry="5.2287583"
       d="m 60.784316,1343.7749 a 5.2287583,5.2287583 0 1 1 -10.457517,0 5.2287583,5.2287583 0 1 1 10.457517,0 z"
       transform="matrix(1.1155584,0,0,1.1155584,468.28641,-1002.4601)" />
    <path
       transform="matrix(1.1155584,0,0,1.1155584,468.28641,-1161.9089)"
       d="m 60.784316,1343.7749 a 5.2287583,5.2287583 0 1 1 -10.457517,0 5.2287583,5.2287583 0 1 1 10.457517,0 z"
       sodipodi:ry="5.2287583"
       sodipodi:rx="5.2287583"
       sodipodi:cy="1343.7749"
       sodipodi:cx="55.555557"
       id="path6540"
       style="fill:none;stroke:#0000ff;stroke-width:1.24509517;stroke-miterlimit:4;stroke-opacity:1;stroke-dasharray:none"
       sodipodi:type="arc" />
    <path
       transform="matrix(1.1155584,0,0,1.1155584,204.31005,-1085.7278)"
       d="m 60.784316,1343.7749 a 5.2287583,5.2287583 0 1 1 -10.457517,0 5.2287583,5.2287583 0 1 1 10.457517,0 z"
       sodipodi:ry="5.2287583"
       sodipodi:rx="5.2287583"
       sodipodi:cy="1343.7749"
       sodipodi:cx="55.555557"
       id="path6542"
       style="fill:none;stroke:#0000ff;stroke-width:1.24509517;stroke-miterlimit:4;stroke-opacity:1;stroke-dasharray:none"
       sodipodi:type="arc" />
    <path
       sodipodi:type="arc"
       style="fill:none;stroke:#0000ff;stroke-width:1.24509517;stroke-miterlimit:4;stroke-opacity:1;stroke-dasharray:none"
       id="path6544"
       sodipodi:cx="55.555557"
       sodipodi:cy="1343.7749"
       sodipodi:rx="5.2287583"
       sodipodi:ry="5.2287583"
       d="m 60.784316,1343.7749 a 5.2287583,5.2287583 0 1 1 -10.457517,0 5.2287583,5.2287583 0 1 1 10.457517,0 z"
       transform="matrix(1.1155584,0,0,1.1155584,204.31005,-1222.1452)" />
    <path
       transform="matrix(1.1155584,0,0,1.1155584,380.58956,-1222.1452)"
       d="m 60.784316,1343.7749 a 5.2287583,5.2287583 0 1 1 -10.457517,0 5.2287583,5.2287583 0 1 1 10.457517,0 z"
       sodipodi:ry="5.2287583"
       sodipodi:rx="5.2287583"
       sodipodi:cy="1343.7749"
       sodipodi:cx="55.555557"
       id="path6546"
       style="fill:none;stroke:#0000ff;stroke-width:1.24509517;stroke-miterlimit:4;stroke-opacity:1;stroke-dasharray:none"
       sodipodi:type="arc" />
    <path
       sodipodi:type="arc"
       style="fill:none;stroke:#0000ff;stroke-width:1.24509517;stroke-miterlimit:4;stroke-opacity:1;stroke-dasharray:none"
       id="path6548"
       sodipodi:cx="55.555557"
       sodipodi:cy="1343.7749"
       sodipodi:rx="5.2287583"
       sodipodi:ry="5.2287583"
       d="m 60.784316,1343.7749 a 5.2287583,5.2287583 0 1 1 -10.457517,0 5.2287583,5.2287583 0 1 1 10.457517,0 z"
       transform="matrix(1.1155584,0,0,1.1155584,380.58956,-1085.7278)" />
    <path
       sodipodi:type="arc"
       style="fill:none;stroke:#0000ff;stroke-width:0.43578334;stroke-miterlimit:4;stroke-opacity:1;stroke-dasharray:none"
       id="path6561"
       sodipodi:cx="55.555557"
       sodipodi:cy="1343.7749"
       sodipodi:rx="5.2287583"
       sodipodi:ry="5.2287583"
       d="m 60.784316,1343.7749 a 5.2287583,5.2287583 0 1 1 -10.457517,0 5.2287583,5.2287583 0 1 1 10.457517,0 z"
       transform="matrix(3.1873096,0,0,3.1873094,371.79148,-3739.4784)" />
    <path
       transform="matrix(1.5936548,0,0,1.5936547,136.11528,-1872.5714)"
       d="m 60.784316,1343.7749 a 5.2287583,5.2287583 0 1 1 -10.457517,0 5.2287583,5.2287583 0 1 1 10.457517,0 z"
       sodipodi:ry="5.2287583"
       sodipodi:rx="5.2287583"
       sodipodi:cy="1343.7749"
       sodipodi:cx="55.555557"
       id="path6743"
       style="fill:none;stroke:#0000ff;stroke-width:0.87156668;stroke-miterlimit:4;stroke-opacity:1;stroke-dasharray:none"
       sodipodi:type="arc" />
    <path
       transform="matrix(3.1873096,0,0,3.1873094,17.325774,-4040.0637)"
       d="m 60.784316,1343.7749 a 5.2287583,5.2287583 0 1 1 -10.457517,0 5.2287583,5.2287583 0 1 1 10.457517,0 z"
       sodipodi:ry="5.2287583"
       sodipodi:rx="5.2287583"
       sodipodi:cy="1343.7749"
       sodipodi:cx="55.555557"
       id="path6494-3"
       style="fill:none;stroke:#0000ff;stroke-width:0.43578334;stroke-miterlimit:4;stroke-opacity:1;stroke-dasharray:none"
       sodipodi:type="arc" />
    <path
       sodipodi:type="arc"
       style="fill:none;stroke:#0000ff;stroke-width:0.43578334;stroke-miterlimit:4;stroke-opacity:1;stroke-dasharray:none"
       id="path6561-9"
       sodipodi:cx="55.555557"
       sodipodi:cy="1343.7749"
       sodipodi:rx="5.2287583"
       sodipodi:ry="5.2287583"
       d="m 60.784316,1343.7749 a 5.2287583,5.2287583 0 1 1 -10.457517,0 5.2287583,5.2287583 0 1 1 10.457517,0 z"
       transform="matrix(3.1873096,0,0,3.1873094,371.65648,-4040.0637)" />
    <path
       transform="matrix(3.1873096,0,0,3.1873094,17.751774,-3438.5477)"
       d="m 60.784316,1343.7749 a 5.2287583,5.2287583 0 1 1 -10.457517,0 5.2287583,5.2287583 0 1 1 10.457517,0 z"
       sodipodi:ry="5.2287583"
       sodipodi:rx="5.2287583"
       sodipodi:cy="1343.7749"
       sodipodi:cx="55.555557"
       id="path6494-6"
       style="fill:none;stroke:#0000ff;stroke-width:0.43578334;stroke-miterlimit:4;stroke-opacity:1;stroke-dasharray:none"
       sodipodi:type="arc" />
    <path
       sodipodi:type="arc"
       style="fill:none;stroke:#0000ff;stroke-width:0.43578334;stroke-miterlimit:4;stroke-opacity:1;stroke-dasharray:none"
       id="path6561-7"
       sodipodi:cx="55.555557"
       sodipodi:cy="1343.7749"
       sodipodi:rx="5.2287583"
       sodipodi:ry="5.2287583"
       d="m 60.784316,1343.7749 a 5.2287583,5.2287583 0 1 1 -10.457517,0 5.2287583,5.2287583 0 1 1 10.457517,0 z"
       transform="matrix(3.1873096,0,0,3.1873094,372.08248,-3438.5477)" />
    <rect
       style="fill:none;stroke:#0000ff;stroke-width:1.38897638;stroke-linejoin:round;stroke-miterlimit:4;stroke-opacity:1;stroke-dasharray:none"
       id="rect5987"
       width="354.33072"
       height="602.36218"
       x="194.93225"
       y="243.0979" />
    <text
       xml:space="preserve"
       style="font-size:24px;font-style:normal;font-weight:normal;line-height:125%;letter-spacing:0px;word-spacing:0px;fill:#000000;fill-opacity:1;stroke:none;font-family:Sans"
       x="345"
       y="228.36218"
       id="text3009"
       sodipodi:linespacing="125%"><tspan
         sodipodi:role="line"
         id="tspan3011"
         x="345"
         y="228.36218">100.0</tspan></text>
    <text
       xml:space="preserve"
       style="font-size:40px;font-style:normal;font-weight:normal;line-height:125%;letter-spacing:0px;word-spacing:0px;fill:#000000;fill-opacity:1;stroke:none;font-family:Sans"
       x="402"
       y="257.36218"
       id="text3013"
       sodipodi:linespacing="125%"><tspan
         sodipodi:role="line"
         id="tspan3015"
         x="402"
         y="257.36218" /></text>
    <text
       xml:space="preserve"
       style="font-size:24px;font-style:normal;font-weight:normal;line-height:125%;letter-spacing:0px;word-spacing:0px;fill:#000000;fill-opacity:1;stroke:none;font-family:Sans"
       x="-572.6571"
       y="164.25195"
       id="text3017"
       sodipodi:linespacing="125%"
       transform="matrix(0,-1,1,0,0,0)"><tspan
         sodipodi:role="line"
         id="tspan3019"
         x="-572.6571"
         y="164.25195">170.0</tspan></text>
  </g>
</svg>
